<?xml version="1.0" encoding="UTF-8" standalone="no"?>
<!-- Created with Inkscape (http://www.inkscape.org/) -->

<svg
   xmlns:dc="http://purl.org/dc/elements/1.1/"
   xmlns:cc="http://creativecommons.org/ns#"
   xmlns:rdf="http://www.w3.org/1999/02/22-rdf-syntax-ns#"
   xmlns:svg="http://www.w3.org/2000/svg"
   xmlns="http://www.w3.org/2000/svg"
   xmlns:xlink="http://www.w3.org/1999/xlink"
   xmlns:sodipodi="http://sodipodi.sourceforge.net/DTD/sodipodi-0.dtd"
   xmlns:inkscape="http://www.inkscape.org/namespaces/inkscape"
   width="720"
   height="450"
   id="svg2"
   version="1.1"
   inkscape:version="0.48.1 r9760"
   sodipodi:docname="10.svg"
   inkscape:export-filename="/home/fabio/repos/anaconda-sabayon/pixmaps/rnotes/rnote.png"
   inkscape:export-xdpi="90"
   inkscape:export-ydpi="90">
  <defs
     id="defs4">
    <linearGradient
       x1="46.915581"
       y1="45.730022"
       x2="150.70486"
       y2="106.60844"
       id="linearGradient2538"
       xlink:href="#linearGradient4808"
       gradientUnits="userSpaceOnUse"
       gradientTransform="matrix(1.4685665,0,0,1.4685665,-46.272274,-47.021816)" />
    <linearGradient
       id="linearGradient4808">
      <stop
         id="stop4810"
         style="stop-color:#ffffff;stop-opacity:0.72448999"
         offset="0" />
      <stop
         id="stop4812"
         style="stop-color:#ffffff;stop-opacity:0.0408163"
         offset="1" />
    </linearGradient>
    <linearGradient
       inkscape:collect="always"
       xlink:href="#linearGradient3741"
       id="linearGradient6191"
       gradientUnits="userSpaceOnUse"
       gradientTransform="translate(395.035,31.240115)"
       spreadMethod="repeat"
       x1="0"
       y1="450"
       x2="5.3162198"
       y2="455.31622" />
    <linearGradient
       id="linearGradient3741">
      <stop
         id="stop3743"
         style="stop-color:#000000;stop-opacity:0;"
         offset="0" />
      <stop
         id="stop3788"
         style="stop-color:#000000;stop-opacity:0.49803922;"
         offset="0.01" />
      <stop
         id="stop3755"
         style="stop-color:#000000;stop-opacity:1;"
         offset="0.02" />
      <stop
         id="stop3761"
         style="stop-color:#000000;stop-opacity:1;"
         offset="0.50999999" />
      <stop
         id="stop3786"
         style="stop-color:#000000;stop-opacity:0;"
         offset="0.50999999" />
      <stop
         id="stop3749"
         style="stop-color:#000000;stop-opacity:0;"
         offset="1" />
    </linearGradient>
    <linearGradient
       y2="455.31622"
       x2="5.3162198"
       y1="450"
       x1="0"
       spreadMethod="repeat"
       gradientTransform="matrix(0.66666667,0,0,1,-141.42135,358.43328)"
       gradientUnits="userSpaceOnUse"
       id="linearGradient6212"
       xlink:href="#linearGradient3741"
       inkscape:collect="always" />
  </defs>
  <sodipodi:namedview
     id="base"
     pagecolor="#ffffff"
     bordercolor="#666666"
     borderopacity="1.0"
     inkscape:pageopacity="0.0"
     inkscape:pageshadow="2"
     inkscape:zoom="0.98994949"
     inkscape:cx="296.87189"
     inkscape:cy="143.7561"
     inkscape:document-units="px"
     inkscape:current-layer="layer1"
     showgrid="false"
     inkscape:window-width="1920"
     inkscape:window-height="987"
     inkscape:window-x="0"
     inkscape:window-y="29"
     inkscape:window-maximized="1" />
  <metadata
     id="metadata7">
    <rdf:RDF>
      <cc:Work
         rdf:about="">
        <dc:format>image/svg+xml</dc:format>
        <dc:type
           rdf:resource="http://purl.org/dc/dcmitype/StillImage" />
        <dc:title />
      </cc:Work>
    </rdf:RDF>
  </metadata>
  <g
     inkscape:label="Livello 1"
     inkscape:groupmode="layer"
     id="layer1"
     transform="translate(0,-602.36218)">
    <rect
       style="opacity:1;fill:#f4f4f4;stroke:none;fill-opacity:1"
       id="rect3008"
       width="720"
       height="450"
       x="0"
       y="602.36218" />
    <rect
       width="960"
       height="900"
       x="-141.42136"
       y="358.43329"
       id="rect3739"
       style="opacity:0.02;fill:url(#linearGradient6212);fill-opacity:1;stroke:none;display:inline" />
    <text
       xml:space="preserve"
       style="font-size:40px;font-style:normal;font-weight:normal;line-height:125%;letter-spacing:0px;word-spacing:0px;fill:#343434;fill-opacity:1;stroke:none;font-family:Bitstream Vera Sans"
       x="15.091372"
       y="672.48389"
       id="text3004"
       sodipodi:linespacing="125%"><tspan
         sodipodi:role="line"
         id="tspan3006"
         x="15.091372"
         y="672.48389"
         style="font-size:72px;font-style:normal;font-variant:normal;font-weight:normal;font-stretch:normal;fill:#4f7796;fill-opacity:1;font-family:Cantarell;-inkscape-font-specification:Cantarell">Thanks</tspan></text>
    <g
       transform="matrix(0.14351876,0,0,0.14351876,580.67516,986.09108)"
       id="layer1-1">
      <g
         id="text2820"
         style="font-size:40px;font-style:normal;font-weight:normal;fill:#000000;fill-opacity:1;stroke:none;font-family:Bitstream Vera Sans">
        <path
           inkscape:connector-curvature="0"
           d="m 276.88195,306.85647 c -8e-5,16.8364 -12.79708,25.25458 -38.39104,25.25458 l -9.97964,0 c -12.28786,0 -21.2831,-3.59809 -26.98574,-10.79429 l 7.63748,-4.58249 c 4.6843,4.82011 11.13371,7.23015 19.34826,7.23014 l 16.19145,0 c 15.75011,1e-5 23.62518,-5.49896 23.62525,-16.49694 -7e-5,-9.43649 -7.50176,-16.22535 -22.50509,-20.3666 l -19.04277,-5.29532 c -16.36118,-4.54848 -24.54175,-12.93272 -24.54175,-25.15275 0,-15.34274 10.35301,-23.01415 31.05906,-23.01425 l 9.57231,0 0,-0.10183 5.60081,0 c 12.42356,9e-5 21.38486,3.46241 26.88391,10.38696 l -7.63747,4.58249 c -4.48072,-4.61635 -11.20169,-6.92456 -20.16294,-6.92465 l -17.41344,0 c -12.89886,9e-5 -19.34828,5.15963 -19.34827,15.47862 -1e-5,7.80726 6.65307,13.57779 19.95927,17.31161 l 19.85743,5.60081 c 17.51521,4.95592 26.27284,13.91721 26.27292,26.88391"
           id="path2825"
           style="font-size:250px;font-variant:normal;font-stretch:normal;fill:#000000;font-family:Asenine;-inkscape-font-specification:Asenine" />
        <path
           inkscape:connector-curvature="0"
           d="m 385.46814,332.11105 -8.55397,0 0,-18.32994 c -5.3633,7.46777 -12.83104,13.06858 -22.40326,16.80245 -5.77061,2.24032 -11.84663,3.36049 -18.22811,3.36049 -15.00343,0 -27.05366,-4.71826 -36.15071,-14.15479 -9.09709,-9.50439 -13.64563,-21.79223 -13.64562,-36.86354 -10e-6,-15.34278 4.37881,-27.63061 13.13645,-36.86355 8.89339,-9.50431 20.97756,-14.25652 36.25255,-14.25662 17.44731,1e-4 31.12687,7.26418 41.0387,21.79227 l 0,-20.0611 8.55397,0 0,98.57433 m -8.55397,-30.85539 0,-13.34013 c -1e-4,-13.78134 -3.25875,-25.0169 -9.77597,-33.70672 -7.26417,-9.77588 -17.54929,-14.66386 -30.8554,-14.66395 -12.62733,9e-5 -22.6409,4.07341 -30.04073,12.21996 -7.19622,7.87516 -10.79431,18.19423 -10.7943,30.95723 -10e-6,12.96677 3.53019,23.31978 10.59063,31.05906 7.33195,8.07877 17.4134,12.11814 30.2444,12.11813 6.51725,10e-6 12.59328,-1.39171 18.22811,-4.17515 9.77588,-4.82008 17.24363,-11.64289 22.40326,-20.46843"
           id="path2827"
           style="font-size:250px;font-variant:normal;font-stretch:normal;fill:#000000;font-family:Asenine;-inkscape-font-specification:Asenine" />
        <path
           inkscape:connector-curvature="0"
           d="m 493.96841,282.92572 c -1.1e-4,15.07131 -4.54864,27.35915 -13.64562,36.86354 -9.02928,9.43653 -21.0795,14.15479 -36.15072,14.15479 -6.38158,0 -12.45761,-1.12017 -18.2281,-3.36049 -9.64022,-3.73387 -17.10796,-9.33468 -22.40326,-16.80245 l 0,18.32994 -8.55397,0 -0.10183,-0.10183 0,-145.31568 8.55397,0 0,66.90428 c 9.97961,-14.52809 23.6931,-21.79217 41.14053,-21.79227 15.27488,1e-4 27.35905,4.75231 36.25254,14.25662 8.75754,9.23294 13.13635,21.52077 13.13646,36.86355 m -8.9613,-0.20367 c -1e-4,-12.69512 -3.5982,-23.01418 -10.7943,-30.95723 -7.39994,-8.14655 -17.41351,-12.21987 -30.04074,-12.21996 -13.44199,9e-5 -23.76106,4.85413 -30.95723,14.56212 -6.44944,8.62193 -9.67414,19.89144 -9.67413,33.80855 l 0,13.34013 c 5.15952,8.82554 12.62727,15.64835 22.40326,20.46843 5.63472,2.78344 11.71075,4.17516 18.2281,4.17515 12.69512,10e-6 22.74263,-4.07331 30.14257,-12.21996 7.12822,-7.80717 10.69237,-18.12623 10.69247,-30.95723"
           id="path2829"
           style="font-size:250px;font-variant:normal;font-stretch:normal;fill:#000000;font-family:Asenine;-inkscape-font-specification:Asenine" />
        <path
           inkscape:connector-curvature="0"
           d="m 602.26501,332.11105 -8.55397,0 0,-18.32994 c -5.36329,7.46777 -12.83104,13.06858 -22.40326,16.80245 -5.7706,2.24032 -11.84663,3.36049 -18.2281,3.36049 -15.00344,0 -27.05366,-4.71826 -36.15072,-14.15479 -9.09709,-9.50439 -13.64562,-21.79223 -13.64562,-36.86354 0,-15.34278 4.37881,-27.63061 13.13646,-36.86355 8.89339,-9.50431 20.97756,-14.25652 36.25255,-14.25662 17.44731,1e-4 31.12686,7.26418 41.03869,21.79227 l 0,-20.0611 8.55397,0 0,98.57433 m -8.55397,-30.85539 0,-13.34013 c -9e-5,-13.78134 -3.25875,-25.0169 -9.77597,-33.70672 -7.26416,-9.77588 -17.54928,-14.66386 -30.85539,-14.66395 -12.62734,9e-5 -22.6409,4.07341 -30.04074,12.21996 -7.19621,7.87516 -10.79431,18.19423 -10.79429,30.95723 -2e-5,12.96677 3.53019,23.31978 10.59063,31.05906 7.33194,8.07877 17.4134,12.11814 30.2444,12.11813 6.51725,10e-6 12.59328,-1.39171 18.2281,-4.17515 9.77589,-4.82008 17.24363,-11.64289 22.40326,-20.46843"
           id="path2831"
           style="font-size:250px;font-variant:normal;font-stretch:normal;fill:#000000;font-family:Asenine;-inkscape-font-specification:Asenine" />
        <path
           inkscape:connector-curvature="0"
           d="m 692.74084,329.05606 c -8e-5,15.27494 -4.17523,27.427 -12.52545,36.45622 -8.62193,9.36859 -20.50243,14.0529 -35.64155,14.05295 -11.60899,-5e-5 -22.573,-3.2587 -32.89206,-9.77597 l 2.95316,-8.55397 c 5.70263,4.14117 11.91444,6.92461 18.63544,8.35031 4.48062,0.9504 8.38421,1.42562 11.71079,1.42566 12.55935,-4e-5 22.30136,-3.90364 29.22607,-11.7108 6.65301,-7.46777 9.97955,-17.54923 9.97963,-30.2444 l 0,-9.97963 c -7.39993,9.91175 -17.88872,14.86762 -31.46639,14.86762 -13.03466,0 -23.08217,-4.27699 -30.14257,-12.83096 -6.58521,-7.87507 -9.87781,-18.46569 -9.8778,-31.77189 l 0,-55.70265 8.35031,0 0,58.45214 c -2e-5,9.97966 2.74947,18.09235 8.24847,24.33808 5.77051,6.58521 13.5777,9.87781 23.42159,9.8778 9.70802,10e-6 17.44732,-3.32653 23.21792,-9.97963 5.49891,-6.31362 8.24839,-14.39237 8.24847,-24.23625 l 0,-58.45214 8.55397,0 0,95.41751"
           id="path2833"
           style="font-size:250px;font-variant:normal;font-stretch:normal;fill:#000000;font-family:Asenine;-inkscape-font-specification:Asenine" />
        <path
           inkscape:connector-curvature="0"
           d="m 801.40281,282.92572 c -1e-4,14.86765 -4.58258,27.0876 -13.74745,36.65988 -9.09716,9.5723 -21.04556,14.35845 -35.84521,14.35845 -14.73188,0 -26.71422,-4.78615 -35.94705,-14.35845 -9.23287,-9.64017 -13.84929,-21.86012 -13.84929,-36.65988 0,-14.79967 4.61642,-27.01961 13.84929,-36.65988 9.23283,-9.64009 21.21517,-14.46019 35.94705,-14.46029 14.79965,1e-4 26.81594,4.85414 36.04888,14.56212 9.02909,9.50449 13.54368,21.69049 13.54378,36.55805 m -8.9613,-0.20367 c -9e-5,-12.55934 -3.59819,-22.84446 -10.7943,-30.8554 -7.39994,-8.21444 -17.34562,-12.3217 -29.83706,-12.32179 -12.49156,9e-5 -22.50513,4.10735 -30.04074,12.32179 -7.19621,7.94305 -10.79431,18.22817 -10.79429,30.8554 -2e-5,12.62733 3.59808,22.91245 10.79429,30.8554 7.46772,8.21454 17.48129,12.3218 30.04074,12.32179 12.35567,10e-6 22.2674,-4.1412 29.73523,-12.42362 7.264,-8.07873 10.89604,-18.32991 10.89613,-30.75357"
           id="path2835"
           style="font-size:250px;font-variant:normal;font-stretch:normal;fill:#000000;font-family:Asenine;-inkscape-font-specification:Asenine" />
        <path
           inkscape:connector-curvature="0"
           d="m 891.0431,332.11105 -8.35031,0 0,-58.3503 c -8e-5,-9.84379 -2.78351,-17.92253 -8.3503,-24.23625 -5.83849,-6.653 -13.61174,-9.97955 -23.31976,-9.97964 -9.64023,9e-5 -17.31164,2.9193 -23.01426,8.75764 -5.70266,5.77061 -8.55398,13.47597 -8.55397,23.11609 l 0,60.4888 -0.10183,0 0,0.20366 -8.35031,0 0,-0.20366 -0.10183,0 0,-98.47251 8.55397,0 0,13.54379 c 7.33196,-10.11531 17.85469,-15.17302 31.56823,-15.17312 12.89879,1e-4 22.91236,4.31103 30.04073,12.93279 6.65301,7.94306 9.97955,18.49973 9.97964,31.67007 l 0,55.70264"
           id="path2837"
           style="font-size:250px;font-variant:normal;font-stretch:normal;fill:#000000;font-family:Asenine;-inkscape-font-specification:Asenine" />
      </g>
    </g>
    <g
       transform="matrix(0.16862817,0,0,0.16862562,573.59204,1010.1246)"
       id="g2531">
      <path
         inkscape:connector-curvature="0"
         d="M 102.22637,184.5407 C 55.934332,185.39935 17.672179,148.567 16.765458,102.27333 15.858737,55.979655 52.650806,17.755146 98.942837,16.896491 145.23487,16.037838 183.49702,52.870195 184.40375,99.163864 185.31047,145.45754 148.5184,183.68205 102.22637,184.5407 l 0,0 z"
         id="path4777"
         style="fill:#101010;fill-opacity:1;stroke:none" />
      <text
         sodipodi:linespacing="125%"
         x="32.369461"
         y="159.09149"
         id="text4781"
         xml:space="preserve"
         style="font-size:146.85664368px;font-style:normal;font-variant:normal;font-weight:normal;font-stretch:normal;text-align:start;line-height:125%;text-anchor:start;fill:#ffffff;fill-opacity:1;stroke:none;font-family:AnimalTracks"><tspan
           x="32.369461"
           y="159.09149"
           id="tspan4783">q</tspan></text>
      <path
         inkscape:connector-curvature="0"
         d="M 95.495113,19.830365 C 62.013306,22.55451 40.450641,40.725646 28.433017,67.698913 c -1.392416,3.602123 -2.950339,7.184636 -3.965764,10.855306 -0.728528,4.194894 2.9494,7.801002 5.694835,11.22344 4.680384,5.621532 9.087323,11.696731 16.600264,15.610001 9.001436,4.88301 21.667665,4.63722 31.392336,1.04466 5.45254,-1.86132 9.691154,-5.15886 15.248317,-6.904272 4.049954,-1.575418 8.813165,-1.903433 13.253185,-1.120891 8.84841,1.198593 17.82458,3.588293 26.91379,2.179763 11.57392,-1.291859 21.69979,-6.017632 30.60802,-11.33111 3.50324,-2.103844 7.71407,-3.681491 10.73747,-6.205124 2.80305,-2.400567 1.67945,-5.730471 1.54274,-8.58825 -1.84297,-11.05421 -7.74986,-21.71401 -16.94605,-30.605331 -9.31438,-9.158964 -21.77912,-16.814996 -36.5002,-20.894715 -8.72571,-2.420695 -18.17187,-3.715652 -27.516847,-3.132025 z"
         id="path4816"
         style="opacity:0.40394102;fill:url(#linearGradient2538);fill-opacity:1;stroke:none" />
      <path
         inkscape:connector-curvature="0"
         d="m 181.58219,99.83417 c 0.0112,44.74144 -36.25603,81.01744 -80.99768,81.01744 -44.741662,0 -81.008822,-36.276 -80.997684,-81.01744 -0.01114,-44.74143 36.256022,-81.017436 80.997684,-81.017436 44.74165,0 81.00883,36.276006 80.99768,81.017436 l 0,0 z"
         id="path4827"
         style="fill:none;stroke:#101010;stroke-width:1.10142386;stroke-linecap:round;stroke-linejoin:round;stroke-miterlimit:4;stroke-opacity:1;stroke-dasharray:none;stroke-dashoffset:0" />
    </g>
    <text
       xml:space="preserve"
       style="font-size:40px;font-style:normal;font-weight:normal;line-height:146.00000381%;letter-spacing:0px;word-spacing:0px;fill:#000000;fill-opacity:1;stroke:none;font-family:Bitstream Vera Sans"
       x="49.497475"
       y="746.28595"
       id="text6239"
       sodipodi:linespacing="146%"><tspan
         sodipodi:role="line"
         x="49.497475"
         y="746.28595"
         id="tspan6249"
         style="font-size:40px;font-style:normal;font-variant:normal;font-weight:normal;font-stretch:normal;line-height:146.00000381%;word-spacing:0.05px;font-family:Cantarell;-inkscape-font-specification:Cantarell">Thanks for installing <tspan
   style="font-size:52px;font-style:normal;font-variant:normal;font-weight:bold;font-stretch:normal;font-family:Asenine;-inkscape-font-specification:Asenine Bold"
   id="tspan7301">sabayon</tspan>,</tspan><tspan
         sodipodi:role="line"
         x="49.497475"
         y="807.19519"
         style="font-size:40px;font-style:normal;font-variant:normal;font-weight:normal;font-stretch:normal;line-height:146.00000381%;word-spacing:0.05px;font-family:Cantarell;-inkscape-font-specification:Cantarell"
         id="tspan7291">our free Operating System.</tspan><tspan
         sodipodi:role="line"
         x="49.497475"
         y="865.59515"
         style="font-size:40px;font-style:normal;font-variant:normal;font-weight:normal;font-stretch:normal;line-height:146.00000381%;word-spacing:0.05px;font-family:Cantarell;-inkscape-font-specification:Cantarell"
         id="tspan7293">Please consider to help our project</tspan><tspan
         sodipodi:role="line"
         x="49.497475"
         y="923.99518"
         style="font-size:40px;font-style:normal;font-variant:normal;font-weight:normal;font-stretch:normal;line-height:146.00000381%;word-spacing:0.05px;font-family:Cantarell;-inkscape-font-specification:Cantarell"
         id="tspan7295">by donating at:<tspan
   style="font-weight:bold;-inkscape-font-specification:Cantarell Bold"
   id="tspan7299" /></tspan><tspan
         sodipodi:role="line"
         x="49.497475"
         y="982.34875"
         style="font-size:40px;font-style:normal;font-variant:normal;font-weight:normal;font-stretch:normal;line-height:146.00000381%;word-spacing:0.05px;font-family:Cantarell;-inkscape-font-specification:Cantarell"
         id="tspan7311"><tspan
           style="font-weight:bold;-inkscape-font-specification:Cantarell Bold"
           id="tspan7313">                      sabayon.org/donate</tspan></tspan></text>
    <path
       style="fill:#ff00ff"
       id="path5217"
       d="m 293.20332,156.42134 c 4.49859,2.05952 9.19657,3.6197 13.90816,5.10494 3.87611,1.04632 7.79899,2.06231 11.76867,2.69209 4.79503,0.48672 9.5897,0.96906 14.40187,1.26433 6.18198,0.23692 12.37999,0.51412 18.5634,0.22348 6.00407,-0.21036 11.89791,-1.45045 17.88098,-1.8544 7.99129,-0.20762 15.95582,-0.6742 23.9162,-1.39015 9.25383,-0.76092 18.53291,-1.28851 27.76532,-2.28734 4.08616,-0.49615 2.13664,-0.25556 5.84879,-0.71978 0,0 -11.86692,8.83428 -11.86692,8.83428 l 0,0 c -3.63625,0.39339 -1.72411,0.1909 -5.73674,0.60463 -9.21262,0.82868 -18.44679,1.40123 -27.66231,2.19578 -8.0261,0.73309 -16.06292,1.16775 -24.11471,1.51646 -5.98455,0.54601 -11.91574,1.66597 -17.93721,1.81615 -6.21763,0.15151 -12.43869,-0.073 -18.65088,-0.33795 -4.88117,-0.30616 -9.76252,-0.72148 -14.61687,-1.31122 -3.97527,-0.74468 -7.91472,-1.75115 -11.78285,-2.92678 -4.78845,-1.52741 -9.52436,-3.20502 -14.17023,-5.12811 0,0 12.48533,-8.29641 12.48533,-8.29641 z"
       inkscape:connector-curvature="0"
       transform="translate(0,602.36218)" />
    <path
       style="fill:#ff00ff"
       id="path5219"
       d="m 355.01673,172.05766 c -0.94672,4.76267 -1.73518,9.55838 -2.56278,14.34393 -1.00462,5.39382 -0.61306,10.89624 -0.72213,16.34721 -0.15459,4.97521 -0.88482,9.90616 -1.27744,14.86522 -0.2704,3.91695 -0.32471,7.8439 -0.36504,11.76856 -0.0153,3.38787 0.002,6.77579 0.009,10.16366 0.01,3.03211 0.0156,6.06425 0.0113,9.09637 -0.15011,3.7307 0.0714,7.43775 0.40421,11.15055 0.31088,3.31535 0.47459,6.63975 0.57124,9.96729 0.0555,2.94559 0.0488,5.89245 0.0385,8.83855 -8.2e-4,2.68092 0.0129,5.36181 0.0206,8.04272 0.006,2.08269 0.007,4.1654 0.007,6.2481 3.5e-4,2.01393 1.9e-4,4.02786 1.3e-4,6.04179 0.10837,1.06417 0.0326,0.5324 0.22869,1.59513 0,0 -13.26076,7.08658 -13.26076,7.08658 l 0,0 c -0.25399,-1.20788 -0.13712,-0.58649 -0.34659,-1.86493 -9e-5,-2.01399 -3e-4,-4.02797 8e-5,-6.04195 7e-4,-2.08572 0.002,-4.17144 0.009,-6.25714 0.0102,-2.68977 0.0286,-5.3795 0.0318,-8.06929 -0.008,-2.93302 0.001,-5.86607 -0.0413,-8.79887 -0.052,-3.30699 -0.17296,-6.61367 -0.46729,-9.90909 -0.33269,-3.74428 -0.63935,-7.48006 -0.51151,-11.24426 -0.006,-3.03349 -0.002,-6.067 -5e-5,-9.10048 -0.001,-3.39689 -9e-5,-6.79366 0.0154,-10.19056 0.0189,-3.96635 0.10664,-7.93292 0.38644,-11.89075 0.34682,-4.95326 1.11172,-9.86185 1.34997,-14.8211 0.17464,-5.51118 -0.3273,-11.07362 0.62782,-16.53512 0.79334,-4.76949 1.68342,-9.52289 2.3321,-14.31577 0,0 13.51153,-6.51635 13.51153,-6.51635 z"
       inkscape:connector-curvature="0"
       transform="translate(0,602.36218)" />
    <path
       style="fill:#ff00ff"
       id="path5221"
       d="m 395.34152,98.314414 c -11.11423,-2.202322 -22.39633,-3.180532 -33.68649,-3.903837 -9.53145,-0.537551 -19.07808,-0.719312 -28.62324,-0.714285 -5.2883,0.05171 -10.40562,1.329023 -15.52037,2.532945 -11.07981,2.523567 -22.36918,3.859843 -33.46815,6.321723 -8.65788,1.60881 -16.68874,5.13287 -24.67944,8.68417 -3.3843,1.48384 -3.09321,1.32581 -6.33075,2.8594 -0.917,0.43437 -3.61165,1.8446 -2.74223,1.32147 19.6924,-11.8491 9.30238,-5.26676 5.13259,-2.30392 -4.55237,3.15029 -8.75267,6.67333 -12.53797,10.70334 -3.22632,3.46077 -6.19822,7.07286 -8.52364,11.1987 -2.3543,4.44214 -3.81832,9.24624 -5.11524,14.07913 -1.44286,4.66922 -1.81788,9.53293 -2.32403,14.36247 -0.40654,5.02042 -1.38674,9.9635 -2.15892,14.93333 -0.81961,4.32119 -1.54574,8.64904 -1.64804,13.05152 -0.0942,4.52124 -0.2131,9.04181 -0.27398,13.56368 -0.23491,4.29421 0.0583,8.52253 0.63307,12.77182 0.66544,6.19104 1.57833,12.34806 2.58759,18.49098 0.85148,5.65277 1.88457,11.27469 2.92894,16.89486 0.72944,3.85656 1.70873,7.68457 3.07718,11.36539 1.46281,3.86326 3.72936,7.3169 6.02891,10.71848 2.54972,2.8502 4.36685,6.23471 6.72043,9.22738 2.24099,2.44039 4.64141,4.75591 7.2111,6.85242 3.21476,2.04733 6.06692,4.61034 9.23883,6.70787 2.98332,1.9192 5.81639,4.05417 8.73062,6.07726 2.7645,1.61548 5.35572,3.47377 7.79678,5.54049 2.73294,2.6821 5.67085,5.0636 8.96049,7.02451 6.35436,3.30381 13.40451,4.63454 20.22127,6.60593 10.71573,3.18479 21.43244,6.36086 32.12423,9.62485 5.20212,1.67907 10.5573,2.83678 15.79386,4.38461 3.07323,1.46957 6.33613,1.91245 9.70567,1.91387 4.40317,-0.0695 8.73046,-1.15775 13.01696,-2.09749 4.32532,-0.81123 8.70368,-1.36827 13.00284,-2.31177 1.84864,-0.86622 5.44906,-0.42774 7.10419,-1.42481 -4.25672,2.96697 -8.3882,6.12224 -12.77015,8.90093 -0.28253,0.17915 -5.95845,-0.10046 -6.17767,-0.0938 -0.70768,0.0216 -8.06702,0.53631 -8.35714,0.5563 -7.62599,0.48911 -15.2468,1.0936 -22.88332,1.39703 -5.30181,0.10053 -10.59722,-0.41727 -15.8944,-0.64169 -4.22193,-0.32233 -8.51611,0.2315 -12.66298,-0.7388 -3.03069,-0.49357 -4.68504,-2.90492 -6.72288,-4.93248 -2.12317,-2.16843 -4.25965,-4.27167 -7.23261,-5.11361 -3.15538,-0.68468 -6.3338,-1.13218 -9.55254,-1.37752 -2.66367,0.0301 -5.18533,-0.39975 -7.64154,-1.41207 -2.57064,-1.56678 -5.25975,-3.04089 -7.37041,-5.21818 -3.76677,-5.8928 11.46501,-8.57456 13.43008,-9.46507 0.34367,-0.15574 6.0919,1.41491 6.52493,1.52236 7.77482,1.66249 15.6126,2.98023 23.42206,4.4644 5.79988,1.2503 11.70539,1.67188 17.58996,2.26466 8.35619,1.07223 16.64285,2.5438 25.0107,3.54282 3.6403,0.27832 7.26634,0.85241 10.9127,1.06705 0.44914,0.0264 1.73313,-0.2447 1.34972,-0.009 -14.5283,8.92034 -9.25448,8.87135 -18.878,7.14274 -21.57535,-3.98181 -43.30179,-7.13378 -65.05463,-9.96872 -16.43148,-2.55215 -33.19443,-3.35273 -49.36528,-7.40852 -9.38357,-2.98893 -7.63046,-2.48223 8.14214,-9.96739 0.59586,-0.28278 1.25311,0.41205 1.88001,0.61702 0.96046,0.31402 1.92137,0.62663 2.88205,0.93995 13.46048,4.11892 27.63755,4.64324 41.59313,5.37008 13.62468,0.57354 27.25366,-0.10291 40.88004,0.0983 3.36109,0.23547 6.83245,0.32014 9.82697,2.01084 2.37289,1.29734 5.13105,1.63483 7.77464,1.97858 3.85089,0.77901 7.58086,2.1441 11.30267,3.4028 0.3593,0.1448 0.86439,0.11116 1.07791,0.43439 3.13957,4.75284 -13.05735,8.35062 -15.07136,9.11624 -1.40394,0.53371 -3.00149,0.12302 -4.50285,0.16587 -5.60673,0.16002 -9.98493,0.20721 -15.70463,0.29721 -20.37039,-0.3898 -40.77012,-0.39385 -61.09815,-1.93669 -3.81022,-0.28918 -7.61024,-0.70003 -11.41535,-1.05005 -8.03793,-0.96633 -9.84525,-1.11656 -17.37528,-2.247 -1.85453,-0.27841 -3.68932,-0.694 -5.55286,-0.90384 -0.7274,-0.0819 -2.80694,0.43421 -2.19578,0.0313 13.01958,-8.58283 9.0556,-9.40148 16.4738,-5.99232 13.11682,5.30711 26.97855,8.58464 40.94802,10.68282 3.44935,0.51808 6.91829,0.89606 10.37744,1.34409 12.51166,0.85525 25.6845,3.14334 38.24017,1.72096 0.49925,-0.12959 1.93864,-0.65647 1.49776,-0.38876 -4.12822,2.50672 -8.39846,4.77181 -12.60982,7.13618 -0.28941,0.16248 -0.56187,0.48368 -0.89135,0.44372 -1.12476,-0.1364 -2.16863,-0.65891 -3.26421,-0.94768 -4.52656,-1.1931 -9.08808,-2.24941 -13.63344,-3.36879 -17.43104,-3.75958 -34.92353,-7.16838 -52.50032,-10.16986 -10.06323,-1.84477 -10.0562,-1.60414 7.4275,-9.83026 0.83534,-0.39303 1.80902,0.37139 2.70625,0.58878 1.56518,0.37922 3.11987,0.80051 4.6798,1.20076 18.92197,5.43528 38.6135,7.28564 58.16779,8.79803 7.60902,0.36763 15.22669,1.04068 22.8534,0.87931 1.36017,-0.0288 2.72683,-0.0575 4.07386,-0.24824 0.81642,-0.11563 3.08729,-1.09382 2.38231,-0.66614 -3.89814,2.36484 -8.01736,4.34439 -12.02604,6.51659 -3.03542,-3.79113 -9.32564,-6.54869 -13.52353,-8.66048 -6.31848,-3.17858 -7.05573,-3.4446 -13.39756,-6.34077 -4.82919,-1.9844 -9.37101,-4.63584 -14.19581,-6.62825 -0.67582,-0.27908 -1.36108,-0.57108 -2.08285,-0.68799 -0.22817,-0.037 -0.84852,0.36143 -0.64851,0.24555 4.32038,-2.5031 8.67817,-4.94107 13.01726,-7.41161 8.22617,5.3688 16.98242,9.90155 25.92539,13.93884 9.36908,4.17265 19.13543,7.48891 29.05697,10.08578 -4.37102,2.81926 -8.39078,6.27734 -13.11304,8.45776 -1.09854,0.50723 -2.35653,-0.55673 -3.54854,-0.76457 -1.95091,-0.34017 -3.91359,-0.61054 -5.8757,-0.87867 -8.62858,-1.17913 -17.27998,-2.21687 -25.92857,-3.23555 -6.35107,-0.32799 -12.77836,-2.04817 -19.17912,-1.33439 -0.8935,0.0996 -3.36902,1.17301 -2.6049,0.69929 11.381,-7.05585 8.72312,-9.63584 12.06255,-6.22487 8.05277,5.63665 18.11043,7.03048 27.54117,8.82741 10.41424,1.8649 21.09046,2.54841 31.63774,1.60107 0.61564,-0.15683 2.3912,-0.79815 1.84691,-0.47051 -3.98242,2.3973 -8.14029,4.49038 -12.22135,6.71562 -0.0709,0.0387 0.25607,-0.11149 0.1873,-0.15392 -0.32488,-0.20045 -0.71922,-0.25644 -1.07532,-0.39399 -0.88621,-0.34233 -1.744,-0.76407 -2.65137,-1.04556 -1.34617,-0.41762 -2.731,-0.69854 -4.09651,-1.04781 -10.47621,-2.09843 -21.18874,-2.59767 -31.8422,-2.94876 4.22848,-3.29858 -5.02632,1.00408 -3.91888,0.30392 4.50779,-2.84997 8.74763,-6.26516 13.67555,-8.30429 1.40232,-0.58026 2.98633,0.54367 4.48382,0.79013 5.9353,0.97686 10.69325,1.65095 16.75225,2.54739 17.98499,2.8075 36.08085,4.79356 54.21327,6.34166 1.02851,0.0471 3.9406,-0.43217 3.08553,0.14134 -4.64476,3.11535 -9.54321,6.07131 -14.87336,7.76503 -1.82652,0.5804 -3.7271,-0.90226 -5.61069,-1.25597 -2.70292,-0.50758 -5.42441,-0.912 -8.14312,-1.32682 -10.56551,-1.6121 -10.4103,-1.4945 -21.39525,-2.78747 -18.80038,-1.94753 -37.54187,-4.40273 -55.97484,-8.63227 -0.5037,-0.27076 -1.97895,-0.48342 -1.51111,-0.81229 4.80996,-3.38115 9.78719,-6.69463 15.25714,-8.85046 2.00938,-0.79193 4.31743,0.15251 6.4731,0.28609 8.60307,0.53311 17.19637,1.34456 25.78773,2.03734 -10.81591,5.64373 11.94349,-1.58436 9.4452,0.33487 -4.27826,3.28665 -8.75653,6.4865 -13.7394,8.55451 -1.67061,0.69334 -3.59053,-0.4458 -5.3914,-0.61478 -6.79827,-0.63786 -11.03939,-0.8399 -17.98496,-1.26995 -8.38926,-0.39036 -16.77589,-0.83957 -25.15913,-1.34293 -3.37982,-0.20294 -6.67958,-0.21456 -9.91003,-1.2542 -0.62732,-0.74451 -1.10883,-0.99651 -0.8063,-2.1717 0.0525,-0.20394 1.03139,-1.04901 1.28983,-1.09607 0.11645,-0.0212 0.34757,0.27258 0.22921,0.27122 -0.29128,-0.003 -0.55232,-0.18541 -0.82847,-0.27811 -7.36451,-2.48993 -14.7451,-4.92604 -22.09897,-7.45004 -2.43258,-0.92031 -4.94693,-1.81324 -7.11786,-3.28784 -0.17032,-0.11568 -2.35767,-1.60869 -1.16488,-2.32142 4.72767,-2.82496 9.89613,-4.83653 14.84419,-7.25479 7.81987,1.57838 15.59211,3.40193 23.32736,5.35608 0.69951,0.14575 1.38452,0.40983 2.09852,0.43723 0.28824,0.0111 0.53441,-0.21729 0.80161,-0.32594 -4.34875,2.53184 -8.44803,5.55145 -13.04625,7.59552 -0.62628,0.2784 -1.17402,-0.71411 -1.7985,-0.99652 -1.79148,-0.81019 -5.46173,-2.05983 -7.16307,-2.66317 -3.31067,-1.31392 -6.78542,-2.26064 -10.03534,-3.73377 -0.29158,-0.13216 -1.08389,-0.34856 -0.81054,-0.51519 14.27999,-8.70463 9.41739,-9.41276 18.31049,-5.72584 7.9254,3.3716 16.21784,5.7236 24.45223,8.18689 8.45643,2.52972 16.91558,4.97751 25.43955,7.26895 1.92163,0.50156 3.84348,1.00229 5.7649,1.50466 1.38173,0.36127 2.76828,0.70473 4.14455,1.08626 0.69132,0.19166 1.50058,0.18015 2.05701,0.63297 4.1667,3.39079 -13.09635,7.71076 -15.16692,8.29705 -1.55766,0.44106 -3.17079,-0.65532 -4.75619,-0.98298 -10.71611,-2.33969 -21.44076,-4.69299 -32.30557,-6.23381 -0.59633,0.0647 -2.29835,0.51093 -1.78899,0.19415 4.07471,-2.5341 8.40214,-4.63735 12.61806,-6.92886 0.19789,-0.10756 0.40696,-0.33784 0.62074,-0.26692 0.97083,0.32202 1.80445,0.96788 2.73986,1.38166 1.20529,0.53315 8.28386,3.27457 9.10789,3.59583 5.15852,1.95616 10.45348,3.50974 15.73991,5.07233 1.19612,0.35356 2.39316,0.70399 3.58995,1.05528 0.72017,0.21139 1.54406,0.2052 2.16093,0.63275 0.38895,0.26958 0.40337,0.85622 0.60505,1.28433 -5.14369,2.36735 -10.02048,5.43248 -15.43106,7.10203 -1.34813,0.41599 -2.72843,-0.71953 -4.09313,-1.07744 -1.86344,-0.4887 -3.73429,-0.94977 -5.59129,-1.4624 -6.87931,-1.89904 -13.66783,-4.11297 -20.51159,-6.13471 -6.61851,-1.91526 -13.2543,-3.79042 -19.77494,-6.0228 -0.4957,-0.1697 -1.89025,-0.20084 -1.48065,-0.52755 4.10984,-3.27815 8.74543,-5.8366 13.11814,-8.7549 1.06408,0.20373 2.12132,0.44714 3.19224,0.61117 10.09585,1.54632 -0.48605,-0.43664 11.31058,1.67799 6.6795,1.19735 13.3087,2.68035 19.95656,4.03831 1.81973,0.39883 3.63946,0.79766 5.45919,1.19648 0,0 -11.83421,8.20267 -11.83421,8.20267 l 0,0 c -1.78251,-0.41492 -3.56501,-0.82983 -5.34751,-1.24475 -11.47823,-2.43847 -23.00935,-5.13991 -34.78778,-5.49611 3.78871,-2.84556 7.35682,-6.01142 11.36614,-8.53667 0.38713,-0.24383 0.81081,0.42721 1.23429,0.60036 0.98887,0.40432 1.99252,0.77224 2.99898,1.13052 5.36179,1.90866 10.82136,3.5265 16.27786,5.13735 6.86051,2.0433 13.69202,4.22406 20.63816,5.96522 1.9097,0.47869 3.83205,0.90656 5.75648,1.32214 1.39594,0.30145 5.03788,-0.3303 4.20344,0.82867 -2.52569,3.50802 -6.92565,5.17463 -10.38848,7.76194 0.27775,0.24797 1.20557,0.73907 0.83326,0.74393 -0.70251,0.009 -1.31321,-0.50057 -1.97761,-0.729 -1.14797,-0.39468 -2.30405,-0.76544 -3.45873,-1.14006 -2.21559,-0.71882 -8.06697,-2.57163 -10.05345,-3.23559 -1.89694,-0.63403 -3.78129,-1.30513 -5.67194,-1.95769 -1.11383,-0.41202 -8.01399,-2.94634 -9.42964,-3.53369 -1.02864,-0.42677 -2.10455,-0.78737 -3.031,-1.40537 -7.45605,-4.97358 7.13705,-10.55561 13.15581,-9.52997 10.74415,1.9686 21.40436,4.35903 32.13867,6.38082 1.65422,0.25365 5.86653,-0.64753 4.96266,0.76094 -2.2939,3.57454 -7.16618,4.63947 -10.28114,7.52673 -0.35951,0.33323 1.4993,0.83369 1.04998,1.02965 -0.58048,0.25317 -1.15778,-0.51825 -1.75774,-0.72098 -1.55569,-0.52565 -8.60394,-2.57586 -9.52659,-2.84709 -16.82311,-4.88605 -33.70222,-9.65576 -50.27131,-15.3496 -9.00004,-3.07895 -6.73668,-0.81941 6.42528,-10.42537 0.14252,-0.10401 0.22859,0.28304 0.3866,0.36154 0.80233,0.3986 1.64028,0.72175 2.47069,1.05799 1.10407,0.44705 2.21538,0.87649 3.33187,1.29154 1.33004,0.49444 2.67141,0.95781 4.00712,1.43671 1.78307,0.60764 5.7182,1.87525 7.54474,2.75408 0.80035,0.38508 2.87932,0.73684 2.27476,1.38749 -8.76061,9.42851 -8.08331,10.19714 -14.91577,8.32181 -7.62607,-2.12642 -15.36859,-4.08972 -23.24711,-4.95815 3.70996,-2.42927 7.63973,-4.55212 11.12989,-7.28781 0.31442,-0.24646 -0.613,-0.67859 -1.01099,-0.64372 -0.33944,0.0297 0.49729,0.46966 0.77703,0.66422 2.04461,1.42208 4.41531,2.28979 6.71131,3.19785 7.47419,2.68265 15.0693,4.96388 22.57695,7.53644 0.84789,0.67732 2.12149,1.27987 2.03561,2.65023 -0.0129,0.20532 -1.31969,0.68942 -1.42832,0.67259 -0.60618,-0.0939 -1.07319,-0.86665 -0.73346,-0.34241 2.95594,0.94734 6.05358,1.10017 9.13455,1.36392 8.26102,0.70716 16.53938,1.20453 24.82241,1.56499 3.27309,0.16991 6.54618,0.33981 9.81927,0.50972 2.88085,0.15334 5.7615,0.31045 8.64254,0.46003 1.94023,0.10074 6.69766,-1.44302 5.82128,0.29095 -5.49288,10.86808 -6.83905,9.07377 -12.71114,8.51273 -2.18227,-0.20851 -4.36817,-0.37715 -6.55226,-0.56573 -8.6046,-0.77275 -17.26226,-1.6707 -25.90712,-1.81977 -2.24639,-0.0387 -7.39432,2.31074 -6.73822,0.16195 3.98864,-13.06323 6.56983,-10.31922 9.93206,-7.34865 18.07634,4.77136 36.61857,7.09776 55.1961,8.95895 10.95111,1.21689 11.1623,1.17632 21.75811,2.59285 2.82213,0.37728 5.64572,0.74774 8.45846,1.18959 2.0045,0.31489 6.61023,-0.85193 5.99064,1.08023 -3.41606,10.65271 -6.39808,9.53393 -12.12599,8.8346 -17.9329,-2.12715 -35.86817,-4.23035 -53.75477,-6.72747 -5.77084,-0.7331 -11.54602,-1.43211 -17.31448,-2.18369 -1.64786,-0.21471 -5.77112,0.75402 -4.93824,-0.68399 5.63625,-9.73127 7.71516,-9.40802 14.43294,-8.98868 10.68535,0.64013 21.43468,1.15975 31.9601,3.22778 2.73442,0.69181 7.19961,1.21426 9.14236,3.73846 0.30911,0.40162 0.8213,1.169 0.40938,1.46427 -10.99931,7.88447 -8.72835,7.35123 -15.3982,8.20093 -10.50897,0.46647 -21.07646,-0.28261 -31.41925,-2.20915 -8.79528,-1.63413 -18.68062,-3.00592 -26.48274,-7.72776 -0.84049,-0.50867 -1.58202,-1.16527 -2.37303,-1.74791 -0.37436,-0.69287 -1.73734,-1.58578 -1.12307,-2.07862 4.29173,-3.4433 10.18737,-8.2915 16.40349,-8.42551 6.29271,-0.13566 12.49845,1.35279 18.74019,1.84017 8.76351,1.02255 17.52818,2.01841 26.29559,3.00439 2.05568,0.23118 4.1085,0.48705 6.16227,0.73461 1.27641,0.15385 4.65694,-0.51335 3.82826,0.4696 -3.09139,3.66695 -7.67118,5.75899 -11.50677,8.63848 -3.0775,-1.23801 -6.26805,-2.18957 -9.40479,-3.26343 -6.46439,-2.21309 -12.90659,-4.51394 -19.12307,-7.36719 -8.46207,-3.81628 -4.4523,-1.87888 -12.47031,-5.98847 -4.15977,-2.13207 -8.47699,-4.17801 -12.42914,-6.69496 -0.78204,-0.49805 -1.50319,-1.0858 -2.25478,-1.62871 4.0807,-2.95749 8.03402,-6.09921 12.24209,-8.87247 0.23164,-0.15266 0.52571,0.17939 0.77989,0.29054 0.65998,0.2886 1.3158,0.58763 1.96097,0.90798 4.59788,2.28301 9.08552,4.79201 13.79108,6.85795 6.57471,3.06782 13.27182,6.0018 19.65774,9.45459 1.81717,0.98253 6.32665,3.51965 8.0119,5.32053 0.58916,0.62959 0.8445,1.5036 1.26675,2.2554 -4.53657,2.74636 -8.93727,5.73086 -13.60972,8.23909 -0.91139,0.48925 -6.08208,0.37492 -6.28518,0.37123 -7.48552,-0.13579 -14.94487,-0.86315 -22.41452,-1.29662 -19.76899,-1.64978 -39.57748,-3.78605 -58.87701,-8.54686 -1.62283,-0.32391 -3.23772,-0.69047 -4.86847,-0.97174 -0.92813,-0.16007 -3.45574,0.32798 -2.80354,-0.35149 9.97514,-10.39218 8.05322,-9.13957 16.55974,-7.12611 17.3955,3.55959 34.81332,7.01838 52.23902,10.42462 2.72975,0.59244 5.45851,1.18951 8.18926,1.77734 0.0245,0.005 8.35749,1.66916 9.58009,2.23717 8.33417,3.87193 -6.3511,9.47103 -12.30403,9.88277 -12.54974,0.47675 -25.08174,-1.49205 -37.54683,-2.58554 -8.53996,-1.13805 -12.32106,-1.51409 -20.78946,-3.15504 -10.70923,-2.07515 -21.2904,-4.95484 -31.5375,-8.69446 -7.61869,-3.42448 -6.19696,-1.50439 7.83938,-10.75429 0.53641,-0.35349 1.26321,0.23475 1.89389,0.35691 5.57583,1.08005 6.53057,1.34715 12.68054,2.2496 3.17018,0.46519 6.35225,0.84544 9.52838,1.26817 3.75401,0.36841 7.50189,0.80571 11.26202,1.10524 20.42421,1.627 40.94817,1.51468 61.42006,1.55594 6.39645,-0.22299 9.99039,-0.29532 16.15551,-0.68691 1.57228,-0.0999 5.7539,-1.55911 4.71119,-0.3781 -2.7827,3.15181 -7.01369,4.63868 -10.52054,6.95802 0.40449,0.36135 1.03334,0.57245 1.21349,1.08406 0.11689,0.33198 -0.64982,-0.27064 -0.97473,-0.40596 -3.62503,-1.29394 -7.30242,-2.58128 -11.11413,-3.18278 -2.79828,-0.43033 -5.66841,-0.88766 -8.15735,-2.31908 -2.85863,-1.29132 -6.03777,-1.42565 -9.12279,-1.68762 -13.41345,-0.45445 -26.84213,0.007 -40.25441,-0.59641 -14.26022,-0.7148 -28.72486,-1.14932 -42.53496,-5.14172 -1.00065,-0.28978 -2.00259,-0.57512 -3.00195,-0.86932 -0.68277,-0.201 -2.55317,-0.1186 -2.04436,-0.61629 11.82906,-11.57051 7.94024,-9.53309 16.33658,-6.67735 15.75635,4.30531 32.14682,5.51508 48.24382,7.97659 22.03471,2.90437 44.04757,5.99751 66.01913,9.34632 8.95795,1.36124 7.57977,-0.16073 -5.14988,9.91834 -0.33257,0.26332 -0.84241,-0.10065 -1.26316,-0.1546 -3.73487,-0.47887 -1.47562,-0.21737 -5.98526,-0.75272 -1.54475,-0.18337 -3.09039,-0.35916 -4.63558,-0.53874 -8.43392,-1.04608 -16.82565,-2.38431 -25.27418,-3.30839 -5.87781,-0.52486 -11.72194,-1.24131 -17.49725,-2.50096 -7.8619,-1.52764 -15.77145,-2.77622 -23.61506,-4.39854 -1.33692,-0.28914 -3.48415,-0.79592 -4.9065,-0.95955 -0.51337,-0.0591 -1.97131,0.23992 -1.54919,-0.0582 3.81746,-2.69575 8.13109,-4.63429 11.96942,-7.30022 0.24966,-0.1734 -0.47761,-0.48953 -0.781,-0.47074 -0.18919,0.0117 0.1773,0.33509 0.26595,0.50263 1.9497,2.01555 4.51321,3.41035 6.98972,4.66966 2.3978,0.7914 4.86424,0.99562 7.3792,1.10554 3.29417,0.3297 6.57841,0.79458 9.77862,1.6674 3.01623,1.21416 5.3114,3.38755 7.5635,5.69336 1.89963,1.86664 3.45769,3.84597 6.26665,4.19403 4.08619,0.67724 8.26404,0.32431 12.38375,0.65372 5.28006,0.23277 10.56284,0.71667 15.85036,0.52539 7.55166,-0.27345 15.09831,-0.68023 22.63188,-1.27611 3.87675,-0.30026 7.7201,-0.60706 11.60899,-0.62354 7.6032,-0.0322 6.31765,-0.7152 -7.96056,9.10449 -2.3647,0.0559 -4.6844,0.84138 -7.00742,1.1953 -4.315,0.79532 -8.65713,1.44305 -12.96044,2.30074 -4.35872,0.90683 -8.74339,1.95794 -13.22641,1.81904 -3.47597,-0.16205 -6.79375,-0.76048 -9.99027,-2.19137 -5.15688,-1.51415 -10.33352,-2.96608 -15.43708,-4.65781 -10.63823,-3.41014 -21.36188,-6.53429 -32.11029,-9.57838 -7.02109,-1.87601 -14.25199,-3.25506 -20.70538,-6.76122 -3.33945,-2.03609 -6.3811,-4.43634 -9.20701,-7.14275 -2.41809,-2.01408 -4.99901,-3.79295 -7.66869,-5.45883 -2.91483,-2.02057 -5.78158,-4.10917 -8.74709,-6.0551 -3.13574,-2.21357 -6.08772,-4.68651 -9.27264,-6.8372 -2.65269,-2.17354 -5.20057,-4.51718 -7.43937,-7.11717 -2.29696,-3.07088 -4.1714,-6.44255 -6.71528,-9.33426 -2.36023,-3.49856 -4.65009,-7.06733 -6.21344,-11.00841 -1.45986,-3.75969 -2.4362,-7.67804 -3.09794,-11.65773 -1.04489,-5.63951 -2.14016,-11.26959 -2.87887,-16.95823 -0.99079,-6.1388 -2.00167,-12.27336 -2.72141,-18.45192 -2e-4,-0.001 -0.65526,-4.31149 -0.67006,-4.44978 -0.30293,-2.83072 -0.0272,-5.68361 -0.0787,-8.52118 0.0531,-4.52003 0.15677,-9.03852 0.2768,-13.55725 -0.0303,-4.47498 0.6612,-8.8739 1.55859,-13.25206 0.78569,-4.95365 1.79795,-9.87862 2.22264,-14.88195 0.52283,-4.87694 0.76379,-9.81038 2.16785,-14.54511 1.32317,-4.92059 2.77457,-9.81823 5.01975,-14.4128 0.97023,-1.88904 1.29172,-2.65607 2.47322,-4.40776 1.72658,-2.55981 3.94658,-4.73443 5.87463,-7.13488 1.12002,-1.19393 2.18042,-2.44472 3.33696,-3.6033 2.78146,-2.78637 6.11584,-4.95848 9.18073,-7.40748 1.65422,-1.18239 3.19047,-2.54141 4.93641,-3.58361 7.93795,-4.73832 15.65803,-9.36502 24.19285,-12.80043 7.97124,-3.483794 16.03935,-6.74429 24.65365,-8.292461 11.19245,-2.355035 22.57662,-3.68943 33.66813,-6.510544 5.20767,-1.244382 10.43157,-2.46124 15.82895,-2.314535 9.4065,0.219404 18.81154,0.561033 28.20471,1.113099 11.51816,0.776141 23.01238,1.820714 34.41438,3.678333 0,0 -12.27707,8.501212 -12.27707,8.501212 z"
       inkscape:connector-curvature="0"
       transform="translate(0,602.36218)" />
  </g>
</svg>
