<?xml version="1.0" encoding="UTF-8" standalone="no"?>
<!-- Created with Inkscape (http://www.inkscape.org/) -->

<svg
   xmlns:dc="http://purl.org/dc/elements/1.1/"
   xmlns:cc="http://creativecommons.org/ns#"
   xmlns:rdf="http://www.w3.org/1999/02/22-rdf-syntax-ns#"
   xmlns:svg="http://www.w3.org/2000/svg"
   xmlns="http://www.w3.org/2000/svg"
   xmlns:xlink="http://www.w3.org/1999/xlink"
   xmlns:sodipodi="http://sodipodi.sourceforge.net/DTD/sodipodi-0.dtd"
   xmlns:inkscape="http://www.inkscape.org/namespaces/inkscape"
   width="720"
   height="450"
   id="svg2"
   version="1.1"
   inkscape:version="0.48.1 r9760"
   sodipodi:docname="5.svg"
   inkscape:export-filename="/home/fabio/repos/anaconda-sabayon/pixmaps/rnotes/rnote.png"
   inkscape:export-xdpi="90"
   inkscape:export-ydpi="90">
  <defs
     id="defs4">
    <linearGradient
       x1="46.915581"
       y1="45.730022"
       x2="150.70486"
       y2="106.60844"
       id="linearGradient2538"
       xlink:href="#linearGradient4808"
       gradientUnits="userSpaceOnUse"
       gradientTransform="matrix(1.4685665,0,0,1.4685665,-46.272274,-47.021816)" />
    <linearGradient
       id="linearGradient4808">
      <stop
         id="stop4810"
         style="stop-color:#ffffff;stop-opacity:0.72448999"
         offset="0" />
      <stop
         id="stop4812"
         style="stop-color:#ffffff;stop-opacity:0.0408163"
         offset="1" />
    </linearGradient>
    <linearGradient
       inkscape:collect="always"
       xlink:href="#linearGradient3741"
       id="linearGradient6191"
       gradientUnits="userSpaceOnUse"
       gradientTransform="translate(395.035,31.240115)"
       spreadMethod="repeat"
       x1="0"
       y1="450"
       x2="5.3162198"
       y2="455.31622" />
    <linearGradient
       id="linearGradient3741">
      <stop
         id="stop3743"
         style="stop-color:#000000;stop-opacity:0;"
         offset="0" />
      <stop
         id="stop3788"
         style="stop-color:#000000;stop-opacity:0.49803922;"
         offset="0.01" />
      <stop
         id="stop3755"
         style="stop-color:#000000;stop-opacity:1;"
         offset="0.02" />
      <stop
         id="stop3761"
         style="stop-color:#000000;stop-opacity:1;"
         offset="0.50999999" />
      <stop
         id="stop3786"
         style="stop-color:#000000;stop-opacity:0;"
         offset="0.50999999" />
      <stop
         id="stop3749"
         style="stop-color:#000000;stop-opacity:0;"
         offset="1" />
    </linearGradient>
    <linearGradient
       y2="455.31622"
       x2="5.3162198"
       y1="450"
       x1="0"
       spreadMethod="repeat"
       gradientTransform="matrix(0.66666667,0,0,1,-141.42135,358.43328)"
       gradientUnits="userSpaceOnUse"
       id="linearGradient6212"
       xlink:href="#linearGradient3741"
       inkscape:collect="always" />
  </defs>
  <sodipodi:namedview
     id="base"
     pagecolor="#ffffff"
     bordercolor="#666666"
     borderopacity="1.0"
     inkscape:pageopacity="0.0"
     inkscape:pageshadow="2"
     inkscape:zoom="0.98994949"
     inkscape:cx="296.87189"
     inkscape:cy="143.7561"
     inkscape:document-units="px"
     inkscape:current-layer="layer1"
     showgrid="false"
     inkscape:window-width="1920"
     inkscape:window-height="987"
     inkscape:window-x="0"
     inkscape:window-y="29"
     inkscape:window-maximized="1" />
  <metadata
     id="metadata7">
    <rdf:RDF>
      <cc:Work
         rdf:about="">
        <dc:format>image/svg+xml</dc:format>
        <dc:type
           rdf:resource="http://purl.org/dc/dcmitype/StillImage" />
        <dc:title />
      </cc:Work>
    </rdf:RDF>
  </metadata>
  <g
     inkscape:label="Livello 1"
     inkscape:groupmode="layer"
     id="layer1"
     transform="translate(0,-602.36218)">
    <rect
       style="opacity:1;fill:#f4f4f4;stroke:none;fill-opacity:1"
       id="rect3008"
       width="720"
       height="450"
       x="0"
       y="602.36218" />
    <rect
       width="960"
       height="900"
       x="-141.42136"
       y="358.43329"
       id="rect3739"
       style="opacity:0.02;fill:url(#linearGradient6212);fill-opacity:1;stroke:none;display:inline" />
    <text
       xml:space="preserve"
       style="font-size:40px;font-style:normal;font-weight:normal;line-height:125%;letter-spacing:0px;word-spacing:0px;fill:#343434;fill-opacity:1;stroke:none;font-family:Bitstream Vera Sans"
       x="15.091372"
       y="672.48389"
       id="text3004"
       sodipodi:linespacing="125%"><tspan
         sodipodi:role="line"
         id="tspan3006"
         x="15.091372"
         y="672.48389"
         style="font-size:72px;font-style:normal;font-variant:normal;font-weight:normal;font-stretch:normal;fill:#4f7796;fill-opacity:1;font-family:Cantarell;-inkscape-font-specification:Cantarell">extreme rolling</tspan></text>
    <g
       transform="matrix(0.14351876,0,0,0.14351876,580.67516,986.09108)"
       id="layer1-1">
      <g
         id="text2820"
         style="font-size:40px;font-style:normal;font-weight:normal;fill:#000000;fill-opacity:1;stroke:none;font-family:Bitstream Vera Sans">
        <path
           inkscape:connector-curvature="0"
           d="m 276.88195,306.85647 c -8e-5,16.8364 -12.79708,25.25458 -38.39104,25.25458 l -9.97964,0 c -12.28786,0 -21.2831,-3.59809 -26.98574,-10.79429 l 7.63748,-4.58249 c 4.6843,4.82011 11.13371,7.23015 19.34826,7.23014 l 16.19145,0 c 15.75011,1e-5 23.62518,-5.49896 23.62525,-16.49694 -7e-5,-9.43649 -7.50176,-16.22535 -22.50509,-20.3666 l -19.04277,-5.29532 c -16.36118,-4.54848 -24.54175,-12.93272 -24.54175,-25.15275 0,-15.34274 10.35301,-23.01415 31.05906,-23.01425 l 9.57231,0 0,-0.10183 5.60081,0 c 12.42356,9e-5 21.38486,3.46241 26.88391,10.38696 l -7.63747,4.58249 c -4.48072,-4.61635 -11.20169,-6.92456 -20.16294,-6.92465 l -17.41344,0 c -12.89886,9e-5 -19.34828,5.15963 -19.34827,15.47862 -1e-5,7.80726 6.65307,13.57779 19.95927,17.31161 l 19.85743,5.60081 c 17.51521,4.95592 26.27284,13.91721 26.27292,26.88391"
           id="path2825"
           style="font-size:250px;font-variant:normal;font-stretch:normal;fill:#000000;font-family:Asenine;-inkscape-font-specification:Asenine" />
        <path
           inkscape:connector-curvature="0"
           d="m 385.46814,332.11105 -8.55397,0 0,-18.32994 c -5.3633,7.46777 -12.83104,13.06858 -22.40326,16.80245 -5.77061,2.24032 -11.84663,3.36049 -18.22811,3.36049 -15.00343,0 -27.05366,-4.71826 -36.15071,-14.15479 -9.09709,-9.50439 -13.64563,-21.79223 -13.64562,-36.86354 -10e-6,-15.34278 4.37881,-27.63061 13.13645,-36.86355 8.89339,-9.50431 20.97756,-14.25652 36.25255,-14.25662 17.44731,1e-4 31.12687,7.26418 41.0387,21.79227 l 0,-20.0611 8.55397,0 0,98.57433 m -8.55397,-30.85539 0,-13.34013 c -1e-4,-13.78134 -3.25875,-25.0169 -9.77597,-33.70672 -7.26417,-9.77588 -17.54929,-14.66386 -30.8554,-14.66395 -12.62733,9e-5 -22.6409,4.07341 -30.04073,12.21996 -7.19622,7.87516 -10.79431,18.19423 -10.7943,30.95723 -10e-6,12.96677 3.53019,23.31978 10.59063,31.05906 7.33195,8.07877 17.4134,12.11814 30.2444,12.11813 6.51725,10e-6 12.59328,-1.39171 18.22811,-4.17515 9.77588,-4.82008 17.24363,-11.64289 22.40326,-20.46843"
           id="path2827"
           style="font-size:250px;font-variant:normal;font-stretch:normal;fill:#000000;font-family:Asenine;-inkscape-font-specification:Asenine" />
        <path
           inkscape:connector-curvature="0"
           d="m 493.96841,282.92572 c -1.1e-4,15.07131 -4.54864,27.35915 -13.64562,36.86354 -9.02928,9.43653 -21.0795,14.15479 -36.15072,14.15479 -6.38158,0 -12.45761,-1.12017 -18.2281,-3.36049 -9.64022,-3.73387 -17.10796,-9.33468 -22.40326,-16.80245 l 0,18.32994 -8.55397,0 -0.10183,-0.10183 0,-145.31568 8.55397,0 0,66.90428 c 9.97961,-14.52809 23.6931,-21.79217 41.14053,-21.79227 15.27488,1e-4 27.35905,4.75231 36.25254,14.25662 8.75754,9.23294 13.13635,21.52077 13.13646,36.86355 m -8.9613,-0.20367 c -1e-4,-12.69512 -3.5982,-23.01418 -10.7943,-30.95723 -7.39994,-8.14655 -17.41351,-12.21987 -30.04074,-12.21996 -13.44199,9e-5 -23.76106,4.85413 -30.95723,14.56212 -6.44944,8.62193 -9.67414,19.89144 -9.67413,33.80855 l 0,13.34013 c 5.15952,8.82554 12.62727,15.64835 22.40326,20.46843 5.63472,2.78344 11.71075,4.17516 18.2281,4.17515 12.69512,10e-6 22.74263,-4.07331 30.14257,-12.21996 7.12822,-7.80717 10.69237,-18.12623 10.69247,-30.95723"
           id="path2829"
           style="font-size:250px;font-variant:normal;font-stretch:normal;fill:#000000;font-family:Asenine;-inkscape-font-specification:Asenine" />
        <path
           inkscape:connector-curvature="0"
           d="m 602.26501,332.11105 -8.55397,0 0,-18.32994 c -5.36329,7.46777 -12.83104,13.06858 -22.40326,16.80245 -5.7706,2.24032 -11.84663,3.36049 -18.2281,3.36049 -15.00344,0 -27.05366,-4.71826 -36.15072,-14.15479 -9.09709,-9.50439 -13.64562,-21.79223 -13.64562,-36.86354 0,-15.34278 4.37881,-27.63061 13.13646,-36.86355 8.89339,-9.50431 20.97756,-14.25652 36.25255,-14.25662 17.44731,1e-4 31.12686,7.26418 41.03869,21.79227 l 0,-20.0611 8.55397,0 0,98.57433 m -8.55397,-30.85539 0,-13.34013 c -9e-5,-13.78134 -3.25875,-25.0169 -9.77597,-33.70672 -7.26416,-9.77588 -17.54928,-14.66386 -30.85539,-14.66395 -12.62734,9e-5 -22.6409,4.07341 -30.04074,12.21996 -7.19621,7.87516 -10.79431,18.19423 -10.79429,30.95723 -2e-5,12.96677 3.53019,23.31978 10.59063,31.05906 7.33194,8.07877 17.4134,12.11814 30.2444,12.11813 6.51725,10e-6 12.59328,-1.39171 18.2281,-4.17515 9.77589,-4.82008 17.24363,-11.64289 22.40326,-20.46843"
           id="path2831"
           style="font-size:250px;font-variant:normal;font-stretch:normal;fill:#000000;font-family:Asenine;-inkscape-font-specification:Asenine" />
        <path
           inkscape:connector-curvature="0"
           d="m 692.74084,329.05606 c -8e-5,15.27494 -4.17523,27.427 -12.52545,36.45622 -8.62193,9.36859 -20.50243,14.0529 -35.64155,14.05295 -11.60899,-5e-5 -22.573,-3.2587 -32.89206,-9.77597 l 2.95316,-8.55397 c 5.70263,4.14117 11.91444,6.92461 18.63544,8.35031 4.48062,0.9504 8.38421,1.42562 11.71079,1.42566 12.55935,-4e-5 22.30136,-3.90364 29.22607,-11.7108 6.65301,-7.46777 9.97955,-17.54923 9.97963,-30.2444 l 0,-9.97963 c -7.39993,9.91175 -17.88872,14.86762 -31.46639,14.86762 -13.03466,0 -23.08217,-4.27699 -30.14257,-12.83096 -6.58521,-7.87507 -9.87781,-18.46569 -9.8778,-31.77189 l 0,-55.70265 8.35031,0 0,58.45214 c -2e-5,9.97966 2.74947,18.09235 8.24847,24.33808 5.77051,6.58521 13.5777,9.87781 23.42159,9.8778 9.70802,10e-6 17.44732,-3.32653 23.21792,-9.97963 5.49891,-6.31362 8.24839,-14.39237 8.24847,-24.23625 l 0,-58.45214 8.55397,0 0,95.41751"
           id="path2833"
           style="font-size:250px;font-variant:normal;font-stretch:normal;fill:#000000;font-family:Asenine;-inkscape-font-specification:Asenine" />
        <path
           inkscape:connector-curvature="0"
           d="m 801.40281,282.92572 c -1e-4,14.86765 -4.58258,27.0876 -13.74745,36.65988 -9.09716,9.5723 -21.04556,14.35845 -35.84521,14.35845 -14.73188,0 -26.71422,-4.78615 -35.94705,-14.35845 -9.23287,-9.64017 -13.84929,-21.86012 -13.84929,-36.65988 0,-14.79967 4.61642,-27.01961 13.84929,-36.65988 9.23283,-9.64009 21.21517,-14.46019 35.94705,-14.46029 14.79965,1e-4 26.81594,4.85414 36.04888,14.56212 9.02909,9.50449 13.54368,21.69049 13.54378,36.55805 m -8.9613,-0.20367 c -9e-5,-12.55934 -3.59819,-22.84446 -10.7943,-30.8554 -7.39994,-8.21444 -17.34562,-12.3217 -29.83706,-12.32179 -12.49156,9e-5 -22.50513,4.10735 -30.04074,12.32179 -7.19621,7.94305 -10.79431,18.22817 -10.79429,30.8554 -2e-5,12.62733 3.59808,22.91245 10.79429,30.8554 7.46772,8.21454 17.48129,12.3218 30.04074,12.32179 12.35567,10e-6 22.2674,-4.1412 29.73523,-12.42362 7.264,-8.07873 10.89604,-18.32991 10.89613,-30.75357"
           id="path2835"
           style="font-size:250px;font-variant:normal;font-stretch:normal;fill:#000000;font-family:Asenine;-inkscape-font-specification:Asenine" />
        <path
           inkscape:connector-curvature="0"
           d="m 891.0431,332.11105 -8.35031,0 0,-58.3503 c -8e-5,-9.84379 -2.78351,-17.92253 -8.3503,-24.23625 -5.83849,-6.653 -13.61174,-9.97955 -23.31976,-9.97964 -9.64023,9e-5 -17.31164,2.9193 -23.01426,8.75764 -5.70266,5.77061 -8.55398,13.47597 -8.55397,23.11609 l 0,60.4888 -0.10183,0 0,0.20366 -8.35031,0 0,-0.20366 -0.10183,0 0,-98.47251 8.55397,0 0,13.54379 c 7.33196,-10.11531 17.85469,-15.17302 31.56823,-15.17312 12.89879,1e-4 22.91236,4.31103 30.04073,12.93279 6.65301,7.94306 9.97955,18.49973 9.97964,31.67007 l 0,55.70264"
           id="path2837"
           style="font-size:250px;font-variant:normal;font-stretch:normal;fill:#000000;font-family:Asenine;-inkscape-font-specification:Asenine" />
      </g>
    </g>
    <g
       transform="matrix(0.16862817,0,0,0.16862562,573.59204,1010.1246)"
       id="g2531">
      <path
         inkscape:connector-curvature="0"
         d="M 102.22637,184.5407 C 55.934332,185.39935 17.672179,148.567 16.765458,102.27333 15.858737,55.979655 52.650806,17.755146 98.942837,16.896491 145.23487,16.037838 183.49702,52.870195 184.40375,99.163864 185.31047,145.45754 148.5184,183.68205 102.22637,184.5407 l 0,0 z"
         id="path4777"
         style="fill:#101010;fill-opacity:1;stroke:none" />
      <text
         sodipodi:linespacing="125%"
         x="32.369461"
         y="159.09149"
         id="text4781"
         xml:space="preserve"
         style="font-size:146.85664368px;font-style:normal;font-variant:normal;font-weight:normal;font-stretch:normal;text-align:start;line-height:125%;text-anchor:start;fill:#ffffff;fill-opacity:1;stroke:none;font-family:AnimalTracks"><tspan
           x="32.369461"
           y="159.09149"
           id="tspan4783">q</tspan></text>
      <path
         inkscape:connector-curvature="0"
         d="M 95.495113,19.830365 C 62.013306,22.55451 40.450641,40.725646 28.433017,67.698913 c -1.392416,3.602123 -2.950339,7.184636 -3.965764,10.855306 -0.728528,4.194894 2.9494,7.801002 5.694835,11.22344 4.680384,5.621532 9.087323,11.696731 16.600264,15.610001 9.001436,4.88301 21.667665,4.63722 31.392336,1.04466 5.45254,-1.86132 9.691154,-5.15886 15.248317,-6.904272 4.049954,-1.575418 8.813165,-1.903433 13.253185,-1.120891 8.84841,1.198593 17.82458,3.588293 26.91379,2.179763 11.57392,-1.291859 21.69979,-6.017632 30.60802,-11.33111 3.50324,-2.103844 7.71407,-3.681491 10.73747,-6.205124 2.80305,-2.400567 1.67945,-5.730471 1.54274,-8.58825 -1.84297,-11.05421 -7.74986,-21.71401 -16.94605,-30.605331 -9.31438,-9.158964 -21.77912,-16.814996 -36.5002,-20.894715 -8.72571,-2.420695 -18.17187,-3.715652 -27.516847,-3.132025 z"
         id="path4816"
         style="opacity:0.40394102;fill:url(#linearGradient2538);fill-opacity:1;stroke:none" />
      <path
         inkscape:connector-curvature="0"
         d="m 181.58219,99.83417 c 0.0112,44.74144 -36.25603,81.01744 -80.99768,81.01744 -44.741662,0 -81.008822,-36.276 -80.997684,-81.01744 -0.01114,-44.74143 36.256022,-81.017436 80.997684,-81.017436 44.74165,0 81.00883,36.276006 80.99768,81.017436 l 0,0 z"
         id="path4827"
         style="fill:none;stroke:#101010;stroke-width:1.10142386;stroke-linecap:round;stroke-linejoin:round;stroke-miterlimit:4;stroke-opacity:1;stroke-dasharray:none;stroke-dashoffset:0" />
    </g>
    <text
       xml:space="preserve"
       style="font-size:40px;font-style:normal;font-weight:normal;line-height:190.99999666%;letter-spacing:0px;word-spacing:0px;fill:#000000;fill-opacity:1;stroke:none;font-family:Bitstream Vera Sans"
       x="49.497475"
       y="746.28595"
       id="text6239"
       sodipodi:linespacing="191%"><tspan
         sodipodi:role="line"
         id="tspan6241"
         x="49.497475"
         y="746.28595"
         style="font-size:40px;font-style:normal;font-variant:normal;font-weight:normal;font-stretch:normal;line-height:190.99999666%;word-spacing:0.05px;font-family:Cantarell;-inkscape-font-specification:Cantarell">▢ +2000 updated apps per month</tspan><tspan
         sodipodi:role="line"
         x="49.497475"
         y="823.46497"
         id="tspan6243"
         style="font-size:40px;font-style:normal;font-variant:normal;font-weight:normal;font-stretch:normal;line-height:190.99999666%;word-spacing:0.05px;font-family:Cantarell;-inkscape-font-specification:Cantarell">▢ semi-automated QA = fast</tspan><tspan
         sodipodi:role="line"
         x="49.497475"
         y="900.64404"
         id="tspan6245"
         style="font-size:40px;font-style:normal;font-variant:normal;font-weight:normal;font-stretch:normal;line-height:190.99999666%;word-spacing:0.05px;font-family:Cantarell;-inkscape-font-specification:Cantarell">▢ automatic package updates</tspan><tspan
         sodipodi:role="line"
         x="49.497475"
         y="977.82306"
         id="tspan6249"
         style="font-size:40px;font-style:normal;font-variant:normal;font-weight:normal;font-stretch:normal;line-height:190.99999666%;word-spacing:0.05px;font-family:Cantarell;-inkscape-font-specification:Cantarell">▢ BDFL model, clear project vision</tspan></text>
    <path
       style="fill:none;stroke:#000000;stroke-width:1px;stroke-linecap:butt;stroke-linejoin:miter;stroke-opacity:1"
       d="m 51.51778,198.47202 c 11.515354,9.59612 2.514689,1.12305 8.08122,8.08122 0.594948,0.74368 1.410606,1.28866 2.020305,2.0203 3.252585,3.9031 2.88167,4.7297 7.071068,8.08122 1.896031,1.51683 4.25612,2.4163 6.060916,4.04061 3.413139,3.07183 5.367225,7.49302 8.08122,11.11168 0.857143,1.14286 2.020305,2.0203 3.030458,3.03046 1.010152,1.01015 1.8876,2.17331 3.030457,3.03045 0.971242,0.72844 2.020305,1.34687 3.030458,2.02031 1.34687,1.01015 2.711666,1.99683 4.04061,3.03046 1.701878,1.32368 3.166041,2.99354 5.050758,4.04061 1.21362,0.67423 2.76455,0.46326 4.04062,1.01015 1.11589,0.47824 2.0203,1.34687 3.03045,2.02031 1.68359,0.33671 3.43721,0.4234 5.05077,1.01015 4.24555,1.54384 7.80406,4.73237 12.12183,6.06091 2.27566,0.70021 4.72251,0.61873 7.07106,1.01016 31.52764,5.2546 -11.38403,-0.82991 24.24366,2.0203 4.0833,0.32666 8.03456,1.74782 12.12184,2.02031 6.04749,0.40316 12.12183,0 18.18274,0 17.4035,0 11.45194,0.62302 29.29443,-2.02031 4.05211,-0.60031 8.20296,-0.82761 12.12183,-2.0203 1.82095,-0.55421 19.2404,-8.8333 21.2132,-10.10153 1.60224,-1.03001 2.57733,-2.82121 4.04061,-4.04061 0.57841,-0.48201 1.30602,-0.77206 2.0203,-1.01015 0.31944,-0.10648 0.77206,0.23809 1.01016,0 0.0458,-0.0458 0,-4.57448 0,-5.05077"
       id="path3888"
       inkscape:connector-curvature="0"
       transform="translate(0,602.36218)" />
    <path
       style="fill:none;stroke:#000000;stroke-width:1px;stroke-linecap:butt;stroke-linejoin:miter;stroke-opacity:1"
       d="M 274.76149,192.4111 435.37575,377.26902"
       id="path3890"
       inkscape:connector-curvature="0"
       transform="translate(0,602.36218)" />
    <path
       style="fill:none;stroke:#000000;stroke-width:1px;stroke-linecap:butt;stroke-linejoin:miter;stroke-opacity:1"
       d="m 539.42146,149.98469 c -10.28667,-13.22572 -4.59552,-7.19677 -20.20305,-20.20305 -12.68854,-10.57378 -9.61471,-8.48665 -24.24366,-17.17259 -6.35645,-3.77414 -13.15349,-6.84857 -19.1929,-11.11168 -5.46033,-3.854349 -9.64468,-9.345501 -15.15229,-13.131982 -5.33723,-3.669346 -11.34658,-6.261594 -17.17259,-9.091373 -5.96605,-2.897795 -11.96521,-5.771851 -18.18275,-8.081221 -6.10535,-2.267703 -30.70981,-8.687606 -36.36549,-10.101525 -4.2756,-1.068899 -35.05553,-8.496865 -40.4061,-9.091373 -5.68919,-0.632132 -11.4484,0 -17.17259,0 -4.37733,0 -8.76978,0.363517 -13.13199,0 -4.41884,-0.368237 -12.98936,-3.31865 -18.18274,-2.020305 -1.90477,0.47619 -3.2566,2.233052 -5.05077,3.030458 -1.26866,0.56385 -2.76454,0.463265 -4.04061,1.010152 -1.11589,0.478239 -1.98941,1.39568 -3.03045,2.020305 -2.52539,1.515229 -3.03046,1.010153 -6.06092,3.030458 -1.48521,0.990137 -10.2484,8.385057 -11.11168,9.091373 -1.66868,1.365288 -3.45542,2.590298 -5.05076,4.04061 -8.82919,8.026535 -16.01832,17.840135 -26.26397,24.243661 -3.24915,2.030718 -9.1707,4.620452 -13.13198,6.060912 -2.00137,0.72778 -4.09514,1.20124 -6.06091,2.02031 -2.08502,0.86876 -4.07796,1.94884 -6.06092,3.03046 -1.72365,0.94017 -3.50096,1.82505 -5.05076,3.03045 -1.50353,1.16941 -2.69374,2.69374 -4.04061,4.04061 -1.34687,1.34687 -3.03109,2.42538 -4.04061,4.04061 -0.73581,1.1773 -0.38928,2.79886 -1.01016,4.04061 -0.75292,1.50585 -2.13815,2.61294 -3.03045,4.04061 -0.7981,1.27696 -1.34687,2.69374 -2.02031,4.04061 -0.67343,1.34687 -1.42712,2.65652 -2.0203,4.04061 -0.41945,0.97871 -0.59071,2.05176 -1.01016,3.03046 -0.59318,1.38409 -1.24555,2.74936 -2.0203,4.04061 -0.245,0.40833 -0.8333,0.56802 -1.01015,1.01016 -0.51561,1.28902 -0.62875,2.7057 -1.01016,4.04061 -0.58504,2.04765 -1.60265,3.97268 -2.0203,6.06091 -0.19811,0.99054 0,2.02031 0,3.03046 0,3.03046 0,6.06091 0,9.09137"
       id="path3892"
       inkscape:connector-curvature="0"
       transform="translate(0,602.36218)" />
    <path
       style="fill:none;stroke:#000000;stroke-width:1px;stroke-linecap:butt;stroke-linejoin:miter;stroke-opacity:1"
       d="m 451.53819,199.48217 c 6.53813,5.2305 3.52621,2.51605 9.09137,8.08122 1.68359,1.68359 3.89447,2.96943 5.05076,5.05076 0.6541,1.17738 -0.26414,2.7199 0,4.04061 0.41765,2.08823 1.06793,4.15615 2.02031,6.06092 0.42592,0.85183 1.44888,1.2584 2.0203,2.0203 0.45176,0.60234 0.67344,1.34687 1.01016,2.02031 0.67343,1.34687 1.21185,2.77018 2.0203,4.04061 1.55509,2.44371 3.22422,4.82301 5.05077,7.07106 23.23092,28.59192 -9.04333,-13.74135 17.17259,21.21321 2.0203,2.69374 4.15331,5.30653 6.06091,8.08122 1.68537,2.45143 10.14927,16.43291 11.11168,18.18274 1.81424,3.29862 3.08771,6.88925 5.05076,10.10153 5.21775,8.53813 5.85172,6.35082 10.10153,14.14214 4.47863,8.21082 0.56585,1.81912 2.02031,9.09137 0.0934,0.46694 0.79719,0.58423 1.01015,1.01015 0.47619,0.95238 0.67343,2.02031 1.01015,3.03046 0.33672,1.01015 0.59071,2.05176 1.01015,3.03046 0.88978,2.07613 2.02031,4.04061 3.03046,6.06091 0.98611,1.97222 1.50674,3.2223 3.03046,5.05076 0.91455,1.09746 2.11591,1.933 3.03046,3.03046 2.20891,2.6507 1.4283,3.09154 4.04061,5.05076 1.63103,1.22328 4.29733,1.57941 6.06091,2.02031 5.0206,1.25515 2.65229,1.01015 7.07107,1.01015 2.35702,0 4.71404,0 7.07107,0 1.34687,0 2.73395,0.32667 4.04061,0 1.46088,-0.36522 2.66455,-1.40872 4.04061,-2.0203 9.8895,-4.39534 0.0815,0.9583 11.11168,-6.06092 5.31628,-3.38309 6.8413,-3.26813 11.11167,-9.09137 2.0501,-2.79558 3.31381,-6.09118 5.05077,-9.09137 1.96745,-3.39833 3.84353,-6.86074 6.06091,-10.10153 5.60482,-8.19165 7.95484,-8.22821 11.11168,-17.17259 2.75075,-7.79379 2.0203,-10.95967 2.0203,-19.1929 0,-5.38748 0,-10.77496 0,-16.16244 0,-2.35702 0,-4.71405 0,-7.07107 0,-2.35702 0.35841,-4.74145 0,-7.07107 -0.32381,-2.10482 -1.29253,-4.05954 -2.0203,-6.06091 -1.54177,-4.23987 -1.59454,-6.16706 -6.06092,-8.08122 -0.92847,-0.39792 -2.03405,0.16607 -3.03045,0 -7.66194,-1.27699 2.32399,-0.97641 -7.07107,-2.02031 -1.67329,-0.18592 -3.36718,0 -5.05076,0 -6.39764,0 -12.79527,0 -19.1929,0 -3.03046,0 -6.06092,0 -9.09138,0 -3.03045,0 -6.09799,-0.47264 -9.09137,0 -6.46345,1.02055 -11.31586,3.64932 -17.17259,6.06092 -3.3534,1.38081 -6.82407,2.48813 -10.10153,4.04061 -3.133,1.48405 -5.95836,3.56671 -9.09137,5.05076 -3.27746,1.55248 -6.85783,2.41876 -10.10153,4.04061 -11.05746,5.52873 -21.1917,12.80811 -32.32488,18.18275 -21.52782,10.39274 -5.41504,-1.56356 -25.25381,14.14213 -4.12384,3.26471 -7.99799,6.83682 -12.12183,10.10153 -21.95075,17.37767 -3.0604,1.03677 -21.2132,17.17259 -3.03046,2.69374 -6.22433,5.21417 -9.09138,8.08122 -3.53954,3.53954 -6.27263,7.88735 -10.10152,11.11168 -4.28543,3.60878 -15.74972,7.62745 -20.20305,10.10152 -2.53205,1.4067 -4.41737,3.88977 -7.07107,5.05077 -6.12047,2.6777 -11.775,2.0203 -18.18275,2.0203 -3.36717,0 -6.73435,0 -10.10152,0 -5.05077,0 -10.10153,0 -15.15229,0 -2.02031,0 -4.0681,0.33214 -6.06092,0 -2.10061,-0.3501 -4.04061,-1.34687 -6.06091,-2.0203 -2.02031,-0.67344 -4.12734,-1.12789 -6.06092,-2.02031 -1.45766,-0.67276 -9.28714,-5.01846 -11.11168,-7.07107 -1.61314,-1.81478 -2.56016,-4.13634 -4.04061,-6.06091 -1.89277,-2.46061 -4.02776,-4.72512 -6.06091,-7.07107 -2.34423,-2.70488 -5.47033,-4.87975 -7.07107,-8.08122 -0.70591,-1.41183 -3.9821,-21.87231 -4.04061,-22.22336 -0.67343,-4.04061 -1.64944,-8.0423 -2.0203,-12.12183 -0.54474,-5.99212 0.10914,-16.76289 2.0203,-22.22335 1.04939,-2.99825 3.20441,-5.49633 5.05076,-8.08122 6.39374,-8.95123 15.30873,-15.77489 23.23351,-23.23351 2.42734,-2.28455 4.12511,-5.51144 7.07107,-7.07107 3.14284,-1.66385 18.16859,-2.88547 21.2132,-3.03046 3.36337,-0.16016 6.73435,0 10.10153,0 5.05076,0 10.10152,0 15.15229,0 2.0203,0 4.04061,0 6.06091,0 0.33672,0 0.77206,-0.23809 1.01016,0 0.23809,0.2381 -0.2381,0.77206 0,1.01016 0.23809,0.23809 0.77205,-0.2381 1.01015,0 0.23809,0.23809 -0.2381,0.77205 0,1.01015 0.23809,0.23809 0.68349,-0.0817 1.01015,0 1.033,0.25825 1.97637,0.85957 3.03046,1.01015 1.33333,0.19048 2.69374,0 4.04061,0 1.34687,0 2.69374,0 4.04061,0"
       id="path3894"
       inkscape:connector-curvature="0"
       transform="translate(0,602.36218)" />
  </g>
</svg>
