<?xml version="1.0" encoding="UTF-8" standalone="no"?>
<!-- Created with Inkscape (http://www.inkscape.org/) -->

<svg
   xmlns:dc="http://purl.org/dc/elements/1.1/"
   xmlns:cc="http://creativecommons.org/ns#"
   xmlns:rdf="http://www.w3.org/1999/02/22-rdf-syntax-ns#"
   xmlns:svg="http://www.w3.org/2000/svg"
   xmlns="http://www.w3.org/2000/svg"
   xmlns:xlink="http://www.w3.org/1999/xlink"
   xmlns:sodipodi="http://sodipodi.sourceforge.net/DTD/sodipodi-0.dtd"
   xmlns:inkscape="http://www.inkscape.org/namespaces/inkscape"
   width="720"
   height="450"
   id="svg2"
   version="1.1"
   inkscape:version="0.48.1 r9760"
   sodipodi:docname="6.svg"
   inkscape:export-filename="/home/fabio/repos/anaconda-sabayon/pixmaps/rnotes/rnote.png"
   inkscape:export-xdpi="90"
   inkscape:export-ydpi="90">
  <defs
     id="defs4">
    <linearGradient
       x1="46.915581"
       y1="45.730022"
       x2="150.70486"
       y2="106.60844"
       id="linearGradient2538"
       xlink:href="#linearGradient4808"
       gradientUnits="userSpaceOnUse"
       gradientTransform="matrix(1.4685665,0,0,1.4685665,-46.272274,-47.021816)" />
    <linearGradient
       id="linearGradient4808">
      <stop
         id="stop4810"
         style="stop-color:#ffffff;stop-opacity:0.72448999"
         offset="0" />
      <stop
         id="stop4812"
         style="stop-color:#ffffff;stop-opacity:0.0408163"
         offset="1" />
    </linearGradient>
    <linearGradient
       inkscape:collect="always"
       xlink:href="#linearGradient3741"
       id="linearGradient6191"
       gradientUnits="userSpaceOnUse"
       gradientTransform="translate(395.035,31.240115)"
       spreadMethod="repeat"
       x1="0"
       y1="450"
       x2="5.3162198"
       y2="455.31622" />
    <linearGradient
       id="linearGradient3741">
      <stop
         id="stop3743"
         style="stop-color:#000000;stop-opacity:0;"
         offset="0" />
      <stop
         id="stop3788"
         style="stop-color:#000000;stop-opacity:0.49803922;"
         offset="0.01" />
      <stop
         id="stop3755"
         style="stop-color:#000000;stop-opacity:1;"
         offset="0.02" />
      <stop
         id="stop3761"
         style="stop-color:#000000;stop-opacity:1;"
         offset="0.50999999" />
      <stop
         id="stop3786"
         style="stop-color:#000000;stop-opacity:0;"
         offset="0.50999999" />
      <stop
         id="stop3749"
         style="stop-color:#000000;stop-opacity:0;"
         offset="1" />
    </linearGradient>
    <linearGradient
       y2="455.31622"
       x2="5.3162198"
       y1="450"
       x1="0"
       spreadMethod="repeat"
       gradientTransform="matrix(0.66666667,0,0,1,-141.42135,358.43328)"
       gradientUnits="userSpaceOnUse"
       id="linearGradient6212"
       xlink:href="#linearGradient3741"
       inkscape:collect="always" />
  </defs>
  <sodipodi:namedview
     id="base"
     pagecolor="#ffffff"
     bordercolor="#666666"
     borderopacity="1.0"
     inkscape:pageopacity="0.0"
     inkscape:pageshadow="2"
     inkscape:zoom="0.98994949"
     inkscape:cx="296.87189"
     inkscape:cy="143.7561"
     inkscape:document-units="px"
     inkscape:current-layer="layer1"
     showgrid="false"
     inkscape:window-width="1920"
     inkscape:window-height="987"
     inkscape:window-x="0"
     inkscape:window-y="29"
     inkscape:window-maximized="1" />
  <metadata
     id="metadata7">
    <rdf:RDF>
      <cc:Work
         rdf:about="">
        <dc:format>image/svg+xml</dc:format>
        <dc:type
           rdf:resource="http://purl.org/dc/dcmitype/StillImage" />
        <dc:title />
      </cc:Work>
    </rdf:RDF>
  </metadata>
  <g
     inkscape:label="Livello 1"
     inkscape:groupmode="layer"
     id="layer1"
     transform="translate(0,-602.36218)">
    <rect
       style="opacity:1;fill:#f4f4f4;stroke:none;fill-opacity:1"
       id="rect3008"
       width="720"
       height="450"
       x="0"
       y="602.36218" />
    <rect
       width="960"
       height="900"
       x="-141.42136"
       y="358.43329"
       id="rect3739"
       style="opacity:0.02;fill:url(#linearGradient6212);fill-opacity:1;stroke:none;display:inline" />
    <text
       xml:space="preserve"
       style="font-size:40px;font-style:normal;font-weight:normal;line-height:125%;letter-spacing:0px;word-spacing:0px;fill:#343434;fill-opacity:1;stroke:none;font-family:Bitstream Vera Sans"
       x="15.091372"
       y="672.48389"
       id="text3004"
       sodipodi:linespacing="125%"><tspan
         sodipodi:role="line"
         id="tspan3006"
         x="15.091372"
         y="672.48389"
         style="font-size:72px;font-style:normal;font-variant:normal;font-weight:normal;font-stretch:normal;fill:#4f7796;fill-opacity:1;font-family:Cantarell;-inkscape-font-specification:Cantarell">extreme rolling, 2</tspan></text>
    <g
       transform="matrix(0.14351876,0,0,0.14351876,580.67516,986.09108)"
       id="layer1-1">
      <g
         id="text2820"
         style="font-size:40px;font-style:normal;font-weight:normal;fill:#000000;fill-opacity:1;stroke:none;font-family:Bitstream Vera Sans">
        <path
           inkscape:connector-curvature="0"
           d="m 276.88195,306.85647 c -8e-5,16.8364 -12.79708,25.25458 -38.39104,25.25458 l -9.97964,0 c -12.28786,0 -21.2831,-3.59809 -26.98574,-10.79429 l 7.63748,-4.58249 c 4.6843,4.82011 11.13371,7.23015 19.34826,7.23014 l 16.19145,0 c 15.75011,1e-5 23.62518,-5.49896 23.62525,-16.49694 -7e-5,-9.43649 -7.50176,-16.22535 -22.50509,-20.3666 l -19.04277,-5.29532 c -16.36118,-4.54848 -24.54175,-12.93272 -24.54175,-25.15275 0,-15.34274 10.35301,-23.01415 31.05906,-23.01425 l 9.57231,0 0,-0.10183 5.60081,0 c 12.42356,9e-5 21.38486,3.46241 26.88391,10.38696 l -7.63747,4.58249 c -4.48072,-4.61635 -11.20169,-6.92456 -20.16294,-6.92465 l -17.41344,0 c -12.89886,9e-5 -19.34828,5.15963 -19.34827,15.47862 -1e-5,7.80726 6.65307,13.57779 19.95927,17.31161 l 19.85743,5.60081 c 17.51521,4.95592 26.27284,13.91721 26.27292,26.88391"
           id="path2825"
           style="font-size:250px;font-variant:normal;font-stretch:normal;fill:#000000;font-family:Asenine;-inkscape-font-specification:Asenine" />
        <path
           inkscape:connector-curvature="0"
           d="m 385.46814,332.11105 -8.55397,0 0,-18.32994 c -5.3633,7.46777 -12.83104,13.06858 -22.40326,16.80245 -5.77061,2.24032 -11.84663,3.36049 -18.22811,3.36049 -15.00343,0 -27.05366,-4.71826 -36.15071,-14.15479 -9.09709,-9.50439 -13.64563,-21.79223 -13.64562,-36.86354 -10e-6,-15.34278 4.37881,-27.63061 13.13645,-36.86355 8.89339,-9.50431 20.97756,-14.25652 36.25255,-14.25662 17.44731,1e-4 31.12687,7.26418 41.0387,21.79227 l 0,-20.0611 8.55397,0 0,98.57433 m -8.55397,-30.85539 0,-13.34013 c -1e-4,-13.78134 -3.25875,-25.0169 -9.77597,-33.70672 -7.26417,-9.77588 -17.54929,-14.66386 -30.8554,-14.66395 -12.62733,9e-5 -22.6409,4.07341 -30.04073,12.21996 -7.19622,7.87516 -10.79431,18.19423 -10.7943,30.95723 -10e-6,12.96677 3.53019,23.31978 10.59063,31.05906 7.33195,8.07877 17.4134,12.11814 30.2444,12.11813 6.51725,10e-6 12.59328,-1.39171 18.22811,-4.17515 9.77588,-4.82008 17.24363,-11.64289 22.40326,-20.46843"
           id="path2827"
           style="font-size:250px;font-variant:normal;font-stretch:normal;fill:#000000;font-family:Asenine;-inkscape-font-specification:Asenine" />
        <path
           inkscape:connector-curvature="0"
           d="m 493.96841,282.92572 c -1.1e-4,15.07131 -4.54864,27.35915 -13.64562,36.86354 -9.02928,9.43653 -21.0795,14.15479 -36.15072,14.15479 -6.38158,0 -12.45761,-1.12017 -18.2281,-3.36049 -9.64022,-3.73387 -17.10796,-9.33468 -22.40326,-16.80245 l 0,18.32994 -8.55397,0 -0.10183,-0.10183 0,-145.31568 8.55397,0 0,66.90428 c 9.97961,-14.52809 23.6931,-21.79217 41.14053,-21.79227 15.27488,1e-4 27.35905,4.75231 36.25254,14.25662 8.75754,9.23294 13.13635,21.52077 13.13646,36.86355 m -8.9613,-0.20367 c -1e-4,-12.69512 -3.5982,-23.01418 -10.7943,-30.95723 -7.39994,-8.14655 -17.41351,-12.21987 -30.04074,-12.21996 -13.44199,9e-5 -23.76106,4.85413 -30.95723,14.56212 -6.44944,8.62193 -9.67414,19.89144 -9.67413,33.80855 l 0,13.34013 c 5.15952,8.82554 12.62727,15.64835 22.40326,20.46843 5.63472,2.78344 11.71075,4.17516 18.2281,4.17515 12.69512,10e-6 22.74263,-4.07331 30.14257,-12.21996 7.12822,-7.80717 10.69237,-18.12623 10.69247,-30.95723"
           id="path2829"
           style="font-size:250px;font-variant:normal;font-stretch:normal;fill:#000000;font-family:Asenine;-inkscape-font-specification:Asenine" />
        <path
           inkscape:connector-curvature="0"
           d="m 602.26501,332.11105 -8.55397,0 0,-18.32994 c -5.36329,7.46777 -12.83104,13.06858 -22.40326,16.80245 -5.7706,2.24032 -11.84663,3.36049 -18.2281,3.36049 -15.00344,0 -27.05366,-4.71826 -36.15072,-14.15479 -9.09709,-9.50439 -13.64562,-21.79223 -13.64562,-36.86354 0,-15.34278 4.37881,-27.63061 13.13646,-36.86355 8.89339,-9.50431 20.97756,-14.25652 36.25255,-14.25662 17.44731,1e-4 31.12686,7.26418 41.03869,21.79227 l 0,-20.0611 8.55397,0 0,98.57433 m -8.55397,-30.85539 0,-13.34013 c -9e-5,-13.78134 -3.25875,-25.0169 -9.77597,-33.70672 -7.26416,-9.77588 -17.54928,-14.66386 -30.85539,-14.66395 -12.62734,9e-5 -22.6409,4.07341 -30.04074,12.21996 -7.19621,7.87516 -10.79431,18.19423 -10.79429,30.95723 -2e-5,12.96677 3.53019,23.31978 10.59063,31.05906 7.33194,8.07877 17.4134,12.11814 30.2444,12.11813 6.51725,10e-6 12.59328,-1.39171 18.2281,-4.17515 9.77589,-4.82008 17.24363,-11.64289 22.40326,-20.46843"
           id="path2831"
           style="font-size:250px;font-variant:normal;font-stretch:normal;fill:#000000;font-family:Asenine;-inkscape-font-specification:Asenine" />
        <path
           inkscape:connector-curvature="0"
           d="m 692.74084,329.05606 c -8e-5,15.27494 -4.17523,27.427 -12.52545,36.45622 -8.62193,9.36859 -20.50243,14.0529 -35.64155,14.05295 -11.60899,-5e-5 -22.573,-3.2587 -32.89206,-9.77597 l 2.95316,-8.55397 c 5.70263,4.14117 11.91444,6.92461 18.63544,8.35031 4.48062,0.9504 8.38421,1.42562 11.71079,1.42566 12.55935,-4e-5 22.30136,-3.90364 29.22607,-11.7108 6.65301,-7.46777 9.97955,-17.54923 9.97963,-30.2444 l 0,-9.97963 c -7.39993,9.91175 -17.88872,14.86762 -31.46639,14.86762 -13.03466,0 -23.08217,-4.27699 -30.14257,-12.83096 -6.58521,-7.87507 -9.87781,-18.46569 -9.8778,-31.77189 l 0,-55.70265 8.35031,0 0,58.45214 c -2e-5,9.97966 2.74947,18.09235 8.24847,24.33808 5.77051,6.58521 13.5777,9.87781 23.42159,9.8778 9.70802,10e-6 17.44732,-3.32653 23.21792,-9.97963 5.49891,-6.31362 8.24839,-14.39237 8.24847,-24.23625 l 0,-58.45214 8.55397,0 0,95.41751"
           id="path2833"
           style="font-size:250px;font-variant:normal;font-stretch:normal;fill:#000000;font-family:Asenine;-inkscape-font-specification:Asenine" />
        <path
           inkscape:connector-curvature="0"
           d="m 801.40281,282.92572 c -1e-4,14.86765 -4.58258,27.0876 -13.74745,36.65988 -9.09716,9.5723 -21.04556,14.35845 -35.84521,14.35845 -14.73188,0 -26.71422,-4.78615 -35.94705,-14.35845 -9.23287,-9.64017 -13.84929,-21.86012 -13.84929,-36.65988 0,-14.79967 4.61642,-27.01961 13.84929,-36.65988 9.23283,-9.64009 21.21517,-14.46019 35.94705,-14.46029 14.79965,1e-4 26.81594,4.85414 36.04888,14.56212 9.02909,9.50449 13.54368,21.69049 13.54378,36.55805 m -8.9613,-0.20367 c -9e-5,-12.55934 -3.59819,-22.84446 -10.7943,-30.8554 -7.39994,-8.21444 -17.34562,-12.3217 -29.83706,-12.32179 -12.49156,9e-5 -22.50513,4.10735 -30.04074,12.32179 -7.19621,7.94305 -10.79431,18.22817 -10.79429,30.8554 -2e-5,12.62733 3.59808,22.91245 10.79429,30.8554 7.46772,8.21454 17.48129,12.3218 30.04074,12.32179 12.35567,10e-6 22.2674,-4.1412 29.73523,-12.42362 7.264,-8.07873 10.89604,-18.32991 10.89613,-30.75357"
           id="path2835"
           style="font-size:250px;font-variant:normal;font-stretch:normal;fill:#000000;font-family:Asenine;-inkscape-font-specification:Asenine" />
        <path
           inkscape:connector-curvature="0"
           d="m 891.0431,332.11105 -8.35031,0 0,-58.3503 c -8e-5,-9.84379 -2.78351,-17.92253 -8.3503,-24.23625 -5.83849,-6.653 -13.61174,-9.97955 -23.31976,-9.97964 -9.64023,9e-5 -17.31164,2.9193 -23.01426,8.75764 -5.70266,5.77061 -8.55398,13.47597 -8.55397,23.11609 l 0,60.4888 -0.10183,0 0,0.20366 -8.35031,0 0,-0.20366 -0.10183,0 0,-98.47251 8.55397,0 0,13.54379 c 7.33196,-10.11531 17.85469,-15.17302 31.56823,-15.17312 12.89879,1e-4 22.91236,4.31103 30.04073,12.93279 6.65301,7.94306 9.97955,18.49973 9.97964,31.67007 l 0,55.70264"
           id="path2837"
           style="font-size:250px;font-variant:normal;font-stretch:normal;fill:#000000;font-family:Asenine;-inkscape-font-specification:Asenine" />
      </g>
    </g>
    <g
       transform="matrix(0.16862817,0,0,0.16862562,573.59204,1010.1246)"
       id="g2531">
      <path
         inkscape:connector-curvature="0"
         d="M 102.22637,184.5407 C 55.934332,185.39935 17.672179,148.567 16.765458,102.27333 15.858737,55.979655 52.650806,17.755146 98.942837,16.896491 145.23487,16.037838 183.49702,52.870195 184.40375,99.163864 185.31047,145.45754 148.5184,183.68205 102.22637,184.5407 l 0,0 z"
         id="path4777"
         style="fill:#101010;fill-opacity:1;stroke:none" />
      <text
         sodipodi:linespacing="125%"
         x="32.369461"
         y="159.09149"
         id="text4781"
         xml:space="preserve"
         style="font-size:146.85664368px;font-style:normal;font-variant:normal;font-weight:normal;font-stretch:normal;text-align:start;line-height:125%;text-anchor:start;fill:#ffffff;fill-opacity:1;stroke:none;font-family:AnimalTracks"><tspan
           x="32.369461"
           y="159.09149"
           id="tspan4783">q</tspan></text>
      <path
         inkscape:connector-curvature="0"
         d="M 95.495113,19.830365 C 62.013306,22.55451 40.450641,40.725646 28.433017,67.698913 c -1.392416,3.602123 -2.950339,7.184636 -3.965764,10.855306 -0.728528,4.194894 2.9494,7.801002 5.694835,11.22344 4.680384,5.621532 9.087323,11.696731 16.600264,15.610001 9.001436,4.88301 21.667665,4.63722 31.392336,1.04466 5.45254,-1.86132 9.691154,-5.15886 15.248317,-6.904272 4.049954,-1.575418 8.813165,-1.903433 13.253185,-1.120891 8.84841,1.198593 17.82458,3.588293 26.91379,2.179763 11.57392,-1.291859 21.69979,-6.017632 30.60802,-11.33111 3.50324,-2.103844 7.71407,-3.681491 10.73747,-6.205124 2.80305,-2.400567 1.67945,-5.730471 1.54274,-8.58825 -1.84297,-11.05421 -7.74986,-21.71401 -16.94605,-30.605331 -9.31438,-9.158964 -21.77912,-16.814996 -36.5002,-20.894715 -8.72571,-2.420695 -18.17187,-3.715652 -27.516847,-3.132025 z"
         id="path4816"
         style="opacity:0.40394102;fill:url(#linearGradient2538);fill-opacity:1;stroke:none" />
      <path
         inkscape:connector-curvature="0"
         d="m 181.58219,99.83417 c 0.0112,44.74144 -36.25603,81.01744 -80.99768,81.01744 -44.741662,0 -81.008822,-36.276 -80.997684,-81.01744 -0.01114,-44.74143 36.256022,-81.017436 80.997684,-81.017436 44.74165,0 81.00883,36.276006 80.99768,81.017436 l 0,0 z"
         id="path4827"
         style="fill:none;stroke:#101010;stroke-width:1.10142386;stroke-linecap:round;stroke-linejoin:round;stroke-miterlimit:4;stroke-opacity:1;stroke-dasharray:none;stroke-dashoffset:0" />
    </g>
    <text
       xml:space="preserve"
       style="font-size:40px;font-style:normal;font-weight:normal;line-height:190.99999666%;letter-spacing:0px;word-spacing:0px;fill:#000000;fill-opacity:1;stroke:none;font-family:Bitstream Vera Sans"
       x="49.497475"
       y="746.28595"
       id="text6239"
       sodipodi:linespacing="191%"><tspan
         sodipodi:role="line"
         id="tspan6241"
         x="49.497475"
         y="746.28595"
         style="font-size:40px;font-style:normal;font-variant:normal;font-weight:normal;font-stretch:normal;line-height:190.99999666%;word-spacing:0.05px;font-family:Cantarell;-inkscape-font-specification:Cantarell">▢ &quot;release early, release often&quot;</tspan><tspan
         sodipodi:role="line"
         x="49.497475"
         y="823.46497"
         id="tspan6243"
         style="font-size:40px;font-style:normal;font-variant:normal;font-weight:normal;font-stretch:normal;line-height:190.99999666%;word-spacing:0.05px;font-family:Cantarell;-inkscape-font-specification:Cantarell">▢ new Sabayon every 4 months</tspan><tspan
         sodipodi:role="line"
         x="49.497475"
         y="900.64404"
         id="tspan6245"
         style="font-size:40px;font-style:normal;font-variant:normal;font-weight:normal;font-stretch:normal;line-height:190.99999666%;word-spacing:0.05px;font-family:Cantarell;-inkscape-font-specification:Cantarell">▢ users drive improvements</tspan><tspan
         sodipodi:role="line"
         x="49.497475"
         y="977.82306"
         id="tspan6249"
         style="font-size:40px;font-style:normal;font-variant:normal;font-weight:normal;font-stretch:normal;line-height:190.99999666%;word-spacing:0.05px;font-family:Cantarell;-inkscape-font-specification:Cantarell">▢ no political choices, we're free</tspan></text>
    <path
       style="fill:#000000;fill-opacity:1;fill-rule:nonzero;stroke:none"
       id="path4094"
       d="m 217.14179,186.35554 c 2.93008,10.31258 7.27506,20.13218 12.62556,29.41401 1.50434,2.60966 3.15895,5.12976 4.73842,7.69465 7.0393,10.59805 14.8245,20.99909 25.23559,28.53634 8.60542,6.23 10.85978,6.67917 20.75502,11.30681 21.53261,8.46642 44.46005,12.5675 67.43598,14.56237 15.4631,1.34257 27.36393,1.42297 42.90886,1.83915 26.82793,-0.0103 53.80186,-0.32665 80.42575,-4.03013 14.20239,-1.97562 16.75595,-2.90948 30.15856,-6.12467 9.14329,-3.03235 12.79988,-3.9084 21.27574,-7.93022 2.77317,-1.31588 5.37128,-2.97575 8.11003,-4.36187 1.76453,-0.89305 -5.90696,4.72351 -5.18598,2.88196 0.81734,-2.08768 3.76924,-2.43778 5.54693,-3.8039 1.55064,-1.19165 2.94752,-2.57102 4.42129,-3.85653 1.11662,-1.37254 2.36357,-2.64862 3.34986,-4.11761 4.85619,-7.23288 5.56985,-15.89061 5.92481,-24.31767 0.0555,-6.65299 -0.0672,-13.34806 -1.26565,-19.91582 -0.32796,-1.79729 -0.6543,-3.60819 -1.23947,-5.33891 -0.62643,-1.85276 -1.58604,-3.57561 -2.37906,-5.36341 -1.21436,-1.78917 -2.29156,-3.67956 -3.64309,-5.36751 -2.9827,-3.72511 -7.71086,-8.12692 -11.24983,-11.1889 -4.63727,-4.01224 -10.21783,-8.33103 -15.30842,-11.6938 -3.15634,-2.08503 -6.45653,-3.94368 -9.68479,-5.91553 -17.18084,-8.98893 -35.1761,-16.97336 -54.23868,-21.01062 -3.03414,-0.6426 -6.11969,-1.01247 -9.17953,-1.51871 -8.1756,-1.03185 -15.71061,0.27192 -23.1396,3.77598 -2.48267,1.17101 -5.00077,2.36016 -7.18708,4.01997 -1.29971,0.98672 5.50356,-3.24028 4.48292,-1.96702 -1.98953,2.48195 -5.04462,3.87623 -7.56693,5.81435 -2.62837,2.10547 -5.24435,4.22651 -7.88513,6.31641 -2.93119,2.31974 -5.78982,4.73805 -8.83049,6.9123 -9.8825,7.06653 -22.94538,14.19518 -33.17419,19.18454 -8.60499,4.19731 -17.58481,6.34275 -26.72127,8.97651 -4.79867,0.80017 -9.5527,1.94252 -14.39602,2.4005 -16.68246,1.57748 -33.33059,-0.50078 -49.31472,-5.39633 -14.7368,-4.51353 -22.46386,-8.69176 -36.53517,-15.19926 -37.88367,-19.36234 -73.24908,-43.17282 -107.83606,-67.8327 -7.67249,-5.470225 -13.84351,-9.805309 -21.283842,-15.322857 -2.182536,-1.618508 -4.553949,-3.02502 -6.492469,-4.929008 -0.832816,-0.817979 -2.579818,-2.358453 -1.663514,-3.081681 14.076035,-11.110049 13.109695,-9.292589 25.901365,-6.909318 4.297,1.04662 8.6254,1.971834 12.891,3.13986 11.43896,3.13227 21.38044,6.494825 32.59335,10.50973 12.47982,4.468533 25.04012,9.2562 37.19009,14.559684 6.49044,2.8331 12.85777,5.94027 19.28666,8.9104 25.32556,12.35313 48.28686,28.83 69.31196,47.49203 10.52833,9.34502 17.55013,16.49941 27.52515,26.31642 15.86479,14.9313 30.4931,31.63265 49.33072,43.00555 11.56518,6.98228 14.01578,7.11957 26.55287,11.48883 4.50997,0.73024 8.96634,1.97399 13.5299,2.19073 13.90053,0.66018 27.57927,-3.81915 39.35139,-10.96782 0.81728,-0.4963 0.8884,-1.73147 1.57363,-2.39836 3.79066,-3.6892 7.86436,-7.07596 11.79654,-10.61394 3.36722,-4.08911 7.02906,-7.95246 10.10167,-12.26733 9.77107,-13.72151 19.65246,-34.12018 17.4664,-51.50655 -0.46268,-3.67985 -2.03375,-7.1334 -3.05062,-10.70009 -2.11104,-3.14828 -3.80172,-6.62345 -6.33311,-9.44482 -12.4506,-13.87684 -32.8156,-19.93327 -50.84764,-20.72823 -6.221,-0.27426 -12.44798,0.39006 -18.67197,0.5851 -6.89367,1.22847 -13.90014,1.93853 -20.68102,3.68542 -16.06356,4.13828 -30.70345,10.40666 -45.11906,18.62001 -5.07669,2.89246 -9.70107,6.52401 -14.3782,10.02595 -25.55353,19.13286 -23.82656,18.49463 -47.72073,39.72193 -7.41311,7.07519 -14.89966,14.07423 -22.23933,21.22558 -16.23235,15.81585 -25.27223,25.01813 -40.46651,41.49139 -5.58912,6.05959 -11.02438,12.25932 -16.52718,18.39741 -9.95954,11.10935 -16.0641,17.96752 -25.74141,28.81951 -5.27171,5.85531 -10.11758,11.31588 -15.4727,17.01573 -1.49993,1.59648 -2.75073,3.50019 -4.56588,4.72647 -5.00183,3.37915 -10.0398,6.95194 -15.72469,8.98148 -2.68999,0.96034 -5.71694,-6.92172 -5.83649,-7.15469 0,0 12.53612,-7.18682 12.53612,-7.18682 l 0,0 c 0.78093,1.37879 1.27729,2.9635 2.34279,4.13637 1.94779,2.14406 17.64138,2.04187 -6.46619,6.67341 -2.27477,0.43703 3.34379,-3.20725 4.97211,-4.85473 6.01876,-6.08954 10.46622,-10.97557 16.44919,-17.39381 14.57815,-15.92737 10.88881,-11.87559 26.66227,-29.20663 5.63568,-6.19217 11.19538,-12.4542 16.9001,-18.58282 15.30103,-16.43799 24.55306,-25.85891 40.79585,-41.68842 7.35338,-7.16628 14.84766,-14.18654 22.27148,-21.27982 15.52382,-13.86107 30.21829,-27.83626 47.36427,-39.76038 24.48285,-17.02651 50.60831,-32.66293 79.76343,-40.11344 6.90119,-1.76358 14.02731,-2.48612 21.04097,-3.72918 6.35021,-0.20109 12.70342,-0.88342 19.05063,-0.60327 18.44515,0.8141 39.30689,7.11672 52.0219,21.3092 2.62447,2.92943 4.38186,6.53275 6.57278,9.79912 1.05008,3.70083 2.67828,7.28464 3.15024,11.1025 2.19138,17.72668 -7.7363,38.43525 -17.57189,52.5256 -3.04818,4.36678 -6.6801,8.2956 -10.02015,12.4434 -15.95397,14.67258 -12.15195,12.41712 -35.70133,26.151 -8.11393,4.732 -16.94111,8.29197 -26.27175,9.71861 -12.44328,1.90255 -15.03647,0.40399 -27.25285,-1.76875 -12.53181,-4.53893 -15.08242,-4.75361 -26.63235,-11.85841 -18.77763,-11.55083 -33.24601,-28.3953 -49.07756,-43.42338 -9.87611,-9.85571 -16.79106,-17.01796 -27.25563,-26.37086 -20.87532,-18.65769 -43.76059,-35.06611 -69.02958,-47.27148 -6.44809,-2.93579 -12.83408,-6.01199 -19.34426,-8.80739 -12.05233,-5.17513 -24.99928,-10.034886 -37.40318,-14.32193 -11.11366,-3.84111 -21.65348,-7.236875 -33.05692,-10.03098 -4.38123,-1.073502 -8.83244,-1.838042 -13.24865,-2.757062 -7.263054,-0.731215 -18.746047,0.545991 -1.73791,-8.251281 0.85214,-0.440763 0.0895,2.060859 0.71559,2.78778 1.73519,2.014598 4.04127,3.457245 6.1061,5.13235 8.12883,6.594566 11.68348,9.131751 20.50507,15.781667 4.78471,3.528766 9.52284,7.121586 14.35413,10.586306 29.60688,21.2324 60.44618,40.9096 93.05381,57.22617 13.99468,6.30009 22.02449,10.5247 36.6778,14.80363 16.04518,4.68537 32.73556,6.47854 49.38579,4.70538 4.81993,-0.51329 9.54616,-1.68876 14.31924,-2.53314 42.63823,-12.73878 -14.06373,4.65685 26.72804,-9.29834 0.2394,-0.0819 -0.23356,0.88432 -0.0138,0.75892 9.63992,-5.50087 18,-12.6989 26.5835,-19.65159 12.34263,-9.73353 7.34425,-6.26486 26.87403,-17.79037 4.72598,-2.78904 9.41377,-5.18674 14.79022,-6.47034 6.84413,-1.63401 8.95447,-0.94926 15.98878,-0.49385 3.0483,0.56131 6.12355,0.99206 9.1449,1.68392 19.05087,4.36244 37.00119,12.57644 54.31786,21.42982 3.29189,1.9713 6.65433,3.82929 9.87567,5.91389 5.52081,3.57266 10.59418,7.45811 15.59423,11.71107 3.72255,3.16634 8.50008,7.48877 11.64127,11.33427 1.42238,1.7413 2.56089,3.69637 3.84133,5.54455 0.85568,1.85845 1.88797,3.64536 2.56704,5.57536 0.62055,1.76364 0.9589,3.61723 1.31331,5.45296 1.27985,6.62921 1.57623,13.38859 1.41415,20.12162 -0.25297,8.62467 -0.88241,17.6015 -5.56781,25.15382 -0.96612,1.55727 -2.2135,2.92135 -3.32025,4.38203 -1.48837,1.35375 -2.88861,2.81124 -4.46512,4.06123 -6.44926,5.11352 -19.81263,12.24812 -24.44422,14.84182 -9.15401,5.12629 -18.92675,8.88395 -29.0584,11.59454 -13.3289,3.00129 -15.68639,3.83434 -29.80848,5.66271 -26.5503,3.43744 -53.40232,3.64418 -80.12694,3.60783 -15.6648,-0.4 -27.58695,-0.47107 -43.17481,-1.78087 -23.29752,-1.95762 -46.59408,-5.93801 -68.49365,-14.33994 -9.92191,-4.56434 -12.61234,-5.19035 -21.26039,-11.3985 -10.57001,-7.58787 -18.34056,-18.21938 -25.56969,-28.85873 -1.61017,-2.57817 -3.29132,-5.11334 -4.83051,-7.7345 -5.45403,-9.28789 -9.91581,-19.08682 -13.59567,-29.19957 0,0 13.09347,-7.17152 13.09347,-7.17152 z"
       inkscape:connector-curvature="0"
       transform="translate(0,602.36218)" />
  </g>
</svg>
