<?xml version="1.0" encoding="UTF-8" standalone="no"?>
<!-- Created with Inkscape (http://www.inkscape.org/) -->

<svg
   xmlns:dc="http://purl.org/dc/elements/1.1/"
   xmlns:cc="http://creativecommons.org/ns#"
   xmlns:rdf="http://www.w3.org/1999/02/22-rdf-syntax-ns#"
   xmlns:svg="http://www.w3.org/2000/svg"
   xmlns="http://www.w3.org/2000/svg"
   xmlns:xlink="http://www.w3.org/1999/xlink"
   xmlns:sodipodi="http://sodipodi.sourceforge.net/DTD/sodipodi-0.dtd"
   xmlns:inkscape="http://www.inkscape.org/namespaces/inkscape"
   width="720"
   height="450"
   id="svg2"
   version="1.1"
   inkscape:version="0.48.1 r9760"
   sodipodi:docname="7.svg"
   inkscape:export-filename="/home/fabio/repos/anaconda-sabayon/pixmaps/rnotes/rnote.png"
   inkscape:export-xdpi="90"
   inkscape:export-ydpi="90">
  <defs
     id="defs4">
    <linearGradient
       x1="46.915581"
       y1="45.730022"
       x2="150.70486"
       y2="106.60844"
       id="linearGradient2538"
       xlink:href="#linearGradient4808"
       gradientUnits="userSpaceOnUse"
       gradientTransform="matrix(1.4685665,0,0,1.4685665,-46.272274,-47.021816)" />
    <linearGradient
       id="linearGradient4808">
      <stop
         id="stop4810"
         style="stop-color:#ffffff;stop-opacity:0.72448999"
         offset="0" />
      <stop
         id="stop4812"
         style="stop-color:#ffffff;stop-opacity:0.0408163"
         offset="1" />
    </linearGradient>
    <linearGradient
       inkscape:collect="always"
       xlink:href="#linearGradient3741"
       id="linearGradient6191"
       gradientUnits="userSpaceOnUse"
       gradientTransform="translate(395.035,31.240115)"
       spreadMethod="repeat"
       x1="0"
       y1="450"
       x2="5.3162198"
       y2="455.31622" />
    <linearGradient
       id="linearGradient3741">
      <stop
         id="stop3743"
         style="stop-color:#000000;stop-opacity:0;"
         offset="0" />
      <stop
         id="stop3788"
         style="stop-color:#000000;stop-opacity:0.49803922;"
         offset="0.01" />
      <stop
         id="stop3755"
         style="stop-color:#000000;stop-opacity:1;"
         offset="0.02" />
      <stop
         id="stop3761"
         style="stop-color:#000000;stop-opacity:1;"
         offset="0.50999999" />
      <stop
         id="stop3786"
         style="stop-color:#000000;stop-opacity:0;"
         offset="0.50999999" />
      <stop
         id="stop3749"
         style="stop-color:#000000;stop-opacity:0;"
         offset="1" />
    </linearGradient>
    <linearGradient
       y2="455.31622"
       x2="5.3162198"
       y1="450"
       x1="0"
       spreadMethod="repeat"
       gradientTransform="matrix(0.66666667,0,0,1,-141.42135,358.43328)"
       gradientUnits="userSpaceOnUse"
       id="linearGradient6212"
       xlink:href="#linearGradient3741"
       inkscape:collect="always" />
  </defs>
  <sodipodi:namedview
     id="base"
     pagecolor="#ffffff"
     bordercolor="#666666"
     borderopacity="1.0"
     inkscape:pageopacity="0.0"
     inkscape:pageshadow="2"
     inkscape:zoom="0.98994949"
     inkscape:cx="296.87189"
     inkscape:cy="143.7561"
     inkscape:document-units="px"
     inkscape:current-layer="layer1"
     showgrid="false"
     inkscape:window-width="1920"
     inkscape:window-height="987"
     inkscape:window-x="0"
     inkscape:window-y="29"
     inkscape:window-maximized="1" />
  <metadata
     id="metadata7">
    <rdf:RDF>
      <cc:Work
         rdf:about="">
        <dc:format>image/svg+xml</dc:format>
        <dc:type
           rdf:resource="http://purl.org/dc/dcmitype/StillImage" />
        <dc:title />
      </cc:Work>
    </rdf:RDF>
  </metadata>
  <g
     inkscape:label="Livello 1"
     inkscape:groupmode="layer"
     id="layer1"
     transform="translate(0,-602.36218)">
    <rect
       style="opacity:1;fill:#f4f4f4;stroke:none;fill-opacity:1"
       id="rect3008"
       width="720"
       height="450"
       x="0"
       y="602.36218" />
    <rect
       width="960"
       height="900"
       x="-141.42136"
       y="358.43329"
       id="rect3739"
       style="opacity:0.02;fill:url(#linearGradient6212);fill-opacity:1;stroke:none;display:inline" />
    <text
       xml:space="preserve"
       style="font-size:40px;font-style:normal;font-weight:normal;line-height:125%;letter-spacing:0px;word-spacing:0px;fill:#343434;fill-opacity:1;stroke:none;font-family:Bitstream Vera Sans"
       x="15.091372"
       y="672.48389"
       id="text3004"
       sodipodi:linespacing="125%"><tspan
         sodipodi:role="line"
         id="tspan3006"
         x="15.091372"
         y="672.48389"
         style="font-size:72px;font-style:normal;font-variant:normal;font-weight:normal;font-stretch:normal;fill:#4f7796;fill-opacity:1;font-family:Cantarell;-inkscape-font-specification:Cantarell">extreme devel</tspan></text>
    <g
       transform="matrix(0.14351876,0,0,0.14351876,580.67516,986.09108)"
       id="layer1-1">
      <g
         id="text2820"
         style="font-size:40px;font-style:normal;font-weight:normal;fill:#000000;fill-opacity:1;stroke:none;font-family:Bitstream Vera Sans">
        <path
           inkscape:connector-curvature="0"
           d="m 276.88195,306.85647 c -8e-5,16.8364 -12.79708,25.25458 -38.39104,25.25458 l -9.97964,0 c -12.28786,0 -21.2831,-3.59809 -26.98574,-10.79429 l 7.63748,-4.58249 c 4.6843,4.82011 11.13371,7.23015 19.34826,7.23014 l 16.19145,0 c 15.75011,1e-5 23.62518,-5.49896 23.62525,-16.49694 -7e-5,-9.43649 -7.50176,-16.22535 -22.50509,-20.3666 l -19.04277,-5.29532 c -16.36118,-4.54848 -24.54175,-12.93272 -24.54175,-25.15275 0,-15.34274 10.35301,-23.01415 31.05906,-23.01425 l 9.57231,0 0,-0.10183 5.60081,0 c 12.42356,9e-5 21.38486,3.46241 26.88391,10.38696 l -7.63747,4.58249 c -4.48072,-4.61635 -11.20169,-6.92456 -20.16294,-6.92465 l -17.41344,0 c -12.89886,9e-5 -19.34828,5.15963 -19.34827,15.47862 -1e-5,7.80726 6.65307,13.57779 19.95927,17.31161 l 19.85743,5.60081 c 17.51521,4.95592 26.27284,13.91721 26.27292,26.88391"
           id="path2825"
           style="font-size:250px;font-variant:normal;font-stretch:normal;fill:#000000;font-family:Asenine;-inkscape-font-specification:Asenine" />
        <path
           inkscape:connector-curvature="0"
           d="m 385.46814,332.11105 -8.55397,0 0,-18.32994 c -5.3633,7.46777 -12.83104,13.06858 -22.40326,16.80245 -5.77061,2.24032 -11.84663,3.36049 -18.22811,3.36049 -15.00343,0 -27.05366,-4.71826 -36.15071,-14.15479 -9.09709,-9.50439 -13.64563,-21.79223 -13.64562,-36.86354 -10e-6,-15.34278 4.37881,-27.63061 13.13645,-36.86355 8.89339,-9.50431 20.97756,-14.25652 36.25255,-14.25662 17.44731,1e-4 31.12687,7.26418 41.0387,21.79227 l 0,-20.0611 8.55397,0 0,98.57433 m -8.55397,-30.85539 0,-13.34013 c -1e-4,-13.78134 -3.25875,-25.0169 -9.77597,-33.70672 -7.26417,-9.77588 -17.54929,-14.66386 -30.8554,-14.66395 -12.62733,9e-5 -22.6409,4.07341 -30.04073,12.21996 -7.19622,7.87516 -10.79431,18.19423 -10.7943,30.95723 -10e-6,12.96677 3.53019,23.31978 10.59063,31.05906 7.33195,8.07877 17.4134,12.11814 30.2444,12.11813 6.51725,10e-6 12.59328,-1.39171 18.22811,-4.17515 9.77588,-4.82008 17.24363,-11.64289 22.40326,-20.46843"
           id="path2827"
           style="font-size:250px;font-variant:normal;font-stretch:normal;fill:#000000;font-family:Asenine;-inkscape-font-specification:Asenine" />
        <path
           inkscape:connector-curvature="0"
           d="m 493.96841,282.92572 c -1.1e-4,15.07131 -4.54864,27.35915 -13.64562,36.86354 -9.02928,9.43653 -21.0795,14.15479 -36.15072,14.15479 -6.38158,0 -12.45761,-1.12017 -18.2281,-3.36049 -9.64022,-3.73387 -17.10796,-9.33468 -22.40326,-16.80245 l 0,18.32994 -8.55397,0 -0.10183,-0.10183 0,-145.31568 8.55397,0 0,66.90428 c 9.97961,-14.52809 23.6931,-21.79217 41.14053,-21.79227 15.27488,1e-4 27.35905,4.75231 36.25254,14.25662 8.75754,9.23294 13.13635,21.52077 13.13646,36.86355 m -8.9613,-0.20367 c -1e-4,-12.69512 -3.5982,-23.01418 -10.7943,-30.95723 -7.39994,-8.14655 -17.41351,-12.21987 -30.04074,-12.21996 -13.44199,9e-5 -23.76106,4.85413 -30.95723,14.56212 -6.44944,8.62193 -9.67414,19.89144 -9.67413,33.80855 l 0,13.34013 c 5.15952,8.82554 12.62727,15.64835 22.40326,20.46843 5.63472,2.78344 11.71075,4.17516 18.2281,4.17515 12.69512,10e-6 22.74263,-4.07331 30.14257,-12.21996 7.12822,-7.80717 10.69237,-18.12623 10.69247,-30.95723"
           id="path2829"
           style="font-size:250px;font-variant:normal;font-stretch:normal;fill:#000000;font-family:Asenine;-inkscape-font-specification:Asenine" />
        <path
           inkscape:connector-curvature="0"
           d="m 602.26501,332.11105 -8.55397,0 0,-18.32994 c -5.36329,7.46777 -12.83104,13.06858 -22.40326,16.80245 -5.7706,2.24032 -11.84663,3.36049 -18.2281,3.36049 -15.00344,0 -27.05366,-4.71826 -36.15072,-14.15479 -9.09709,-9.50439 -13.64562,-21.79223 -13.64562,-36.86354 0,-15.34278 4.37881,-27.63061 13.13646,-36.86355 8.89339,-9.50431 20.97756,-14.25652 36.25255,-14.25662 17.44731,1e-4 31.12686,7.26418 41.03869,21.79227 l 0,-20.0611 8.55397,0 0,98.57433 m -8.55397,-30.85539 0,-13.34013 c -9e-5,-13.78134 -3.25875,-25.0169 -9.77597,-33.70672 -7.26416,-9.77588 -17.54928,-14.66386 -30.85539,-14.66395 -12.62734,9e-5 -22.6409,4.07341 -30.04074,12.21996 -7.19621,7.87516 -10.79431,18.19423 -10.79429,30.95723 -2e-5,12.96677 3.53019,23.31978 10.59063,31.05906 7.33194,8.07877 17.4134,12.11814 30.2444,12.11813 6.51725,10e-6 12.59328,-1.39171 18.2281,-4.17515 9.77589,-4.82008 17.24363,-11.64289 22.40326,-20.46843"
           id="path2831"
           style="font-size:250px;font-variant:normal;font-stretch:normal;fill:#000000;font-family:Asenine;-inkscape-font-specification:Asenine" />
        <path
           inkscape:connector-curvature="0"
           d="m 692.74084,329.05606 c -8e-5,15.27494 -4.17523,27.427 -12.52545,36.45622 -8.62193,9.36859 -20.50243,14.0529 -35.64155,14.05295 -11.60899,-5e-5 -22.573,-3.2587 -32.89206,-9.77597 l 2.95316,-8.55397 c 5.70263,4.14117 11.91444,6.92461 18.63544,8.35031 4.48062,0.9504 8.38421,1.42562 11.71079,1.42566 12.55935,-4e-5 22.30136,-3.90364 29.22607,-11.7108 6.65301,-7.46777 9.97955,-17.54923 9.97963,-30.2444 l 0,-9.97963 c -7.39993,9.91175 -17.88872,14.86762 -31.46639,14.86762 -13.03466,0 -23.08217,-4.27699 -30.14257,-12.83096 -6.58521,-7.87507 -9.87781,-18.46569 -9.8778,-31.77189 l 0,-55.70265 8.35031,0 0,58.45214 c -2e-5,9.97966 2.74947,18.09235 8.24847,24.33808 5.77051,6.58521 13.5777,9.87781 23.42159,9.8778 9.70802,10e-6 17.44732,-3.32653 23.21792,-9.97963 5.49891,-6.31362 8.24839,-14.39237 8.24847,-24.23625 l 0,-58.45214 8.55397,0 0,95.41751"
           id="path2833"
           style="font-size:250px;font-variant:normal;font-stretch:normal;fill:#000000;font-family:Asenine;-inkscape-font-specification:Asenine" />
        <path
           inkscape:connector-curvature="0"
           d="m 801.40281,282.92572 c -1e-4,14.86765 -4.58258,27.0876 -13.74745,36.65988 -9.09716,9.5723 -21.04556,14.35845 -35.84521,14.35845 -14.73188,0 -26.71422,-4.78615 -35.94705,-14.35845 -9.23287,-9.64017 -13.84929,-21.86012 -13.84929,-36.65988 0,-14.79967 4.61642,-27.01961 13.84929,-36.65988 9.23283,-9.64009 21.21517,-14.46019 35.94705,-14.46029 14.79965,1e-4 26.81594,4.85414 36.04888,14.56212 9.02909,9.50449 13.54368,21.69049 13.54378,36.55805 m -8.9613,-0.20367 c -9e-5,-12.55934 -3.59819,-22.84446 -10.7943,-30.8554 -7.39994,-8.21444 -17.34562,-12.3217 -29.83706,-12.32179 -12.49156,9e-5 -22.50513,4.10735 -30.04074,12.32179 -7.19621,7.94305 -10.79431,18.22817 -10.79429,30.8554 -2e-5,12.62733 3.59808,22.91245 10.79429,30.8554 7.46772,8.21454 17.48129,12.3218 30.04074,12.32179 12.35567,10e-6 22.2674,-4.1412 29.73523,-12.42362 7.264,-8.07873 10.89604,-18.32991 10.89613,-30.75357"
           id="path2835"
           style="font-size:250px;font-variant:normal;font-stretch:normal;fill:#000000;font-family:Asenine;-inkscape-font-specification:Asenine" />
        <path
           inkscape:connector-curvature="0"
           d="m 891.0431,332.11105 -8.35031,0 0,-58.3503 c -8e-5,-9.84379 -2.78351,-17.92253 -8.3503,-24.23625 -5.83849,-6.653 -13.61174,-9.97955 -23.31976,-9.97964 -9.64023,9e-5 -17.31164,2.9193 -23.01426,8.75764 -5.70266,5.77061 -8.55398,13.47597 -8.55397,23.11609 l 0,60.4888 -0.10183,0 0,0.20366 -8.35031,0 0,-0.20366 -0.10183,0 0,-98.47251 8.55397,0 0,13.54379 c 7.33196,-10.11531 17.85469,-15.17302 31.56823,-15.17312 12.89879,1e-4 22.91236,4.31103 30.04073,12.93279 6.65301,7.94306 9.97955,18.49973 9.97964,31.67007 l 0,55.70264"
           id="path2837"
           style="font-size:250px;font-variant:normal;font-stretch:normal;fill:#000000;font-family:Asenine;-inkscape-font-specification:Asenine" />
      </g>
    </g>
    <g
       transform="matrix(0.16862817,0,0,0.16862562,573.59204,1010.1246)"
       id="g2531">
      <path
         inkscape:connector-curvature="0"
         d="M 102.22637,184.5407 C 55.934332,185.39935 17.672179,148.567 16.765458,102.27333 15.858737,55.979655 52.650806,17.755146 98.942837,16.896491 145.23487,16.037838 183.49702,52.870195 184.40375,99.163864 185.31047,145.45754 148.5184,183.68205 102.22637,184.5407 l 0,0 z"
         id="path4777"
         style="fill:#101010;fill-opacity:1;stroke:none" />
      <text
         sodipodi:linespacing="125%"
         x="32.369461"
         y="159.09149"
         id="text4781"
         xml:space="preserve"
         style="font-size:146.85664368px;font-style:normal;font-variant:normal;font-weight:normal;font-stretch:normal;text-align:start;line-height:125%;text-anchor:start;fill:#ffffff;fill-opacity:1;stroke:none;font-family:AnimalTracks"><tspan
           x="32.369461"
           y="159.09149"
           id="tspan4783">q</tspan></text>
      <path
         inkscape:connector-curvature="0"
         d="M 95.495113,19.830365 C 62.013306,22.55451 40.450641,40.725646 28.433017,67.698913 c -1.392416,3.602123 -2.950339,7.184636 -3.965764,10.855306 -0.728528,4.194894 2.9494,7.801002 5.694835,11.22344 4.680384,5.621532 9.087323,11.696731 16.600264,15.610001 9.001436,4.88301 21.667665,4.63722 31.392336,1.04466 5.45254,-1.86132 9.691154,-5.15886 15.248317,-6.904272 4.049954,-1.575418 8.813165,-1.903433 13.253185,-1.120891 8.84841,1.198593 17.82458,3.588293 26.91379,2.179763 11.57392,-1.291859 21.69979,-6.017632 30.60802,-11.33111 3.50324,-2.103844 7.71407,-3.681491 10.73747,-6.205124 2.80305,-2.400567 1.67945,-5.730471 1.54274,-8.58825 -1.84297,-11.05421 -7.74986,-21.71401 -16.94605,-30.605331 -9.31438,-9.158964 -21.77912,-16.814996 -36.5002,-20.894715 -8.72571,-2.420695 -18.17187,-3.715652 -27.516847,-3.132025 z"
         id="path4816"
         style="opacity:0.40394102;fill:url(#linearGradient2538);fill-opacity:1;stroke:none" />
      <path
         inkscape:connector-curvature="0"
         d="m 181.58219,99.83417 c 0.0112,44.74144 -36.25603,81.01744 -80.99768,81.01744 -44.741662,0 -81.008822,-36.276 -80.997684,-81.01744 -0.01114,-44.74143 36.256022,-81.017436 80.997684,-81.017436 44.74165,0 81.00883,36.276006 80.99768,81.017436 l 0,0 z"
         id="path4827"
         style="fill:none;stroke:#101010;stroke-width:1.10142386;stroke-linecap:round;stroke-linejoin:round;stroke-miterlimit:4;stroke-opacity:1;stroke-dasharray:none;stroke-dashoffset:0" />
    </g>
    <text
       xml:space="preserve"
       style="font-size:40px;font-style:normal;font-weight:normal;line-height:190.99999666%;letter-spacing:0px;word-spacing:0px;fill:#000000;fill-opacity:1;stroke:none;font-family:Bitstream Vera Sans"
       x="49.497475"
       y="746.28595"
       id="text6239"
       sodipodi:linespacing="191%"><tspan
         sodipodi:role="line"
         id="tspan6241"
         x="49.497475"
         y="746.28595"
         style="font-size:40px;font-style:normal;font-variant:normal;font-weight:normal;font-stretch:normal;line-height:190.99999666%;word-spacing:0.05px;font-family:Cantarell;-inkscape-font-specification:Cantarell">▢ we're a source &amp; binary distro</tspan><tspan
         sodipodi:role="line"
         x="49.497475"
         y="823.46497"
         id="tspan6243"
         style="font-size:40px;font-style:normal;font-variant:normal;font-weight:normal;font-stretch:normal;line-height:190.99999666%;word-spacing:0.05px;font-family:Cantarell;-inkscape-font-specification:Cantarell">▢ GCC is there, out of the box</tspan><tspan
         sodipodi:role="line"
         x="49.497475"
         y="900.64404"
         id="tspan6245"
         style="font-size:40px;font-style:normal;font-variant:normal;font-weight:normal;font-stretch:normal;line-height:190.99999666%;word-spacing:0.05px;font-family:Cantarell;-inkscape-font-specification:Cantarell">▢ best fit for your kernel hacks</tspan><tspan
         sodipodi:role="line"
         x="49.497475"
         y="977.82306"
         id="tspan6249"
         style="font-size:40px;font-style:normal;font-variant:normal;font-weight:normal;font-stretch:normal;line-height:190.99999666%;word-spacing:0.05px;font-family:Cantarell;-inkscape-font-specification:Cantarell">▢ we love new stuff, like you do</tspan></text>
    <path
       style="fill:#a0a0a0;stroke:none"
       d="m 273.28575,282.94238 c -0.91421,-2.38239 40.00924,-63.51297 41.51218,-62.01003 0.81338,0.81338 -4.36449,9.34926 -19.13589,31.54607 -11.13805,16.73703 -20.58949,30.80244 -21.0032,31.25647 -0.41371,0.45403 -1.0316,0.0974 -1.37309,-0.79251 z"
       id="path4337"
       inkscape:connector-curvature="0"
       transform="translate(0,602.36218)" />
    <path
       style="fill:#a0a0a0;stroke:none"
       d="m 278.79194,250.83703 c 10.06717,-15.13966 18.84993,-27.98122 19.51724,-28.53681 0.66731,-0.55558 1.4967,-1.76633 1.84308,-2.69055 1.63762,-4.36953 49.43309,-74.58612 50.76974,-74.58612 0.82956,0 1.50828,0.23317 1.50828,0.51816 0,0.28498 -8.75045,13.53495 -19.44544,29.44437 -23.05888,34.30143 -17.24564,25.58094 -45.51327,68.27481 -16.63867,25.13012 -23.77313,35.1028 -25.11257,35.1028 -1.4192,0 2.54897,-6.64704 16.43294,-27.52666 z"
       id="path4339"
       inkscape:connector-curvature="0"
       transform="translate(0,602.36218)" />
    <path
       style="fill:#a0a0a0;stroke:none"
       d="m 213.64072,142.7009 c -1.19113,-0.87098 -1.68085,-2.30896 -1.45576,-4.27456 0.34425,-3.0062 1.35313,-3.62399 8.16787,-5.00156 1.78039,-0.3599 2.77792,-1.20757 2.77792,-2.36058 0,-2.85375 -2.10339,-4.22218 -6.51548,-4.23886 -3.01352,-0.0114 -3.69201,-0.27339 -2.57589,-0.99469 2.43603,-1.57428 6.66091,-1.16104 9.20684,0.90053 2.01839,1.6344 2.4157,3.02202 2.7477,9.59645 0.24402,4.83229 0.003,7.68577 -0.64827,7.68577 -0.57001,0 -1.22401,-0.56286 -1.45332,-1.25081 -0.33144,-0.99431 -0.97989,-0.99431 -3.16217,0 -3.4799,1.58555 -4.85305,1.5736 -7.08944,-0.0617 l 0,0 z m 7.89219,-1.32096 c 0.95794,-0.36759 1.59784,-1.80793 1.59784,-3.59651 0,-2.81656 -0.20606,-2.96583 -3.68576,-2.66984 -3.95706,0.33659 -6.11841,2.5548 -5.093,5.22697 0.63777,1.662 4.21073,2.17915 7.18092,1.03938 l 0,0 z"
       id="path4341"
       inkscape:connector-curvature="0"
       transform="translate(0,602.36218)" />
    <path
       style="fill:#a0a0a0;stroke:none"
       d="m 223.58799,142.31812 c -0.58189,-0.1963 -0.87309,-1.94073 -0.64709,-3.8765 0.38255,-3.27685 0.21168,-3.52654 -2.47755,-3.62028 -2.85774,-0.0996 -2.8616,-0.10816 -0.36305,-0.80316 1.38896,-0.38636 2.5822,-1.25018 2.65165,-1.91961 0.0694,-0.66944 0.19691,-2.01265 0.28325,-2.98492 0.14933,-1.68148 0.20715,-1.68165 1.18471,-0.003 1.33373,2.28969 0.78843,13.68704 -0.63192,13.20787 z"
       id="path4343"
       inkscape:connector-curvature="0"
       transform="translate(0,602.36218)" />
    <path
       style="fill:#a0a0a0;stroke:none"
       d="m 399.18622,210.17839 c 0.008,-2.77792 0.20376,-3.79445 0.43594,-2.25895 0.23219,1.53549 0.22599,3.80834 -0.0138,5.05076 -0.23978,1.24243 -0.42975,-0.0139 -0.42216,-2.79181 z"
       id="path4345"
       inkscape:connector-curvature="0"
       transform="translate(0,602.36218)" />
    <path
       style="fill:#a0a0a0;stroke:none"
       d=""
       id="path4347"
       inkscape:connector-curvature="0"
       transform="translate(0,602.36218)" />
    <path
       style="fill:#a0a0a0;stroke:none"
       d=""
       id="path4349"
       inkscape:connector-curvature="0"
       transform="translate(0,602.36218)" />
    <path
       style="fill:#a0a0a0;stroke:none"
       d="m 60.050659,143.25579 c 11.4692,-17.63049 15.083626,-22.4759 16.765874,-22.4759 1.47438,0 0.105878,2.66644 -6.467514,12.60155 -5.664413,8.56127 -8.941623,12.60968 -10.221541,12.62691 -1.819957,0.0245 -1.822566,-0.069 -0.07682,-2.75256 z"
       id="path4351"
       inkscape:connector-curvature="0"
       transform="translate(0,602.36218)" />
    <path
       style="fill:#a0a0a0;stroke:none"
       d="m 62.516499,145.42146 c 0,-0.33674 1.305199,-2.26866 2.900442,-4.29315 1.595243,-2.0245 5.076122,-7.09017 7.735285,-11.25704 2.659164,-4.16688 4.960272,-7.73531 5.113572,-7.92984 0.1533,-0.19453 0.752427,-0.0609 1.33139,0.29689 1.334589,0.82482 -13.841797,23.79539 -15.721335,23.79539 -0.747645,0 -1.359354,-0.27552 -1.359354,-0.61225 z"
       id="path4353"
       inkscape:connector-curvature="0"
       transform="translate(0,602.36218)" />
    <path
       style="fill:#a0a0a0;stroke:none"
       d=""
       id="path4355"
       inkscape:connector-curvature="0"
       transform="translate(0,602.36218)" />
    <path
       style="fill:#a0a0a0;stroke:none"
       d="m 60.819527,143.61768 c 1.118527,-2.91483 14.009917,-20.96309 14.571941,-20.40106 0.289316,0.28931 -2.544375,5.09422 -6.297093,10.67757 -6.572005,9.77793 -9.711289,13.4668 -8.274848,9.72349 z"
       id="path4357"
       inkscape:connector-curvature="0"
       transform="translate(0,602.36218)" />
    <path
       style="fill:#a0a0a0;stroke:none"
       d="m 55.445431,141.2856 c 0,-2.46049 12.118198,-20.50571 13.770533,-20.50571 0.759965,0 1.381755,0.24244 1.381755,0.53875 0,0.8179 -14.11649,21.68461 -14.669804,21.68461 -0.265366,0 -0.482484,-0.77294 -0.482484,-1.71765 z"
       id="path4359"
       inkscape:connector-curvature="0"
       transform="translate(0,602.36218)" />
    <path
       style="fill:#a0a0a0;stroke:none"
       d=""
       id="path4361"
       inkscape:connector-curvature="0"
       transform="translate(0,602.36218)" />
    <path
       style="fill:#a0a0a0;stroke:none"
       d="m 222.77934,215.26533 c -0.90947,-2.37002 44.49479,-70.24178 46.98974,-70.24178 1.39874,0 -3.9634,8.75452 -21.50046,35.1028 -12.85017,19.30654 -23.70272,35.47429 -24.11678,35.92832 -0.41405,0.45403 -1.03168,0.0988 -1.3725,-0.78934 z"
       id="path4363"
       inkscape:connector-curvature="0"
       transform="translate(0,602.36218)" />
    <path
       style="fill:#a0a0a0;stroke:none"
       d=""
       id="path4365"
       inkscape:connector-curvature="0"
       transform="translate(0,602.36218)" />
    <path
       style="fill:#a0a0a0;stroke:none"
       d="m 248.03283,121.89954 c 1.02683,-1.60654 19.59514,-29.550094 41.26292,-62.096792 27.01732,-40.582152 39.95604,-59.18448684 41.17848,-59.20341235 1.3155,-0.0203664 -1.17224,4.40548345 -9.49513,16.89245835 -6.20272,9.30603 -12.75403,18.574438 -14.55847,20.59646 -1.80444,2.022023 -3.61573,4.731687 -4.02509,6.021477 -1.44936,4.566502 -52.98061,80.710769 -54.62168,80.710769 -1.41085,0 -1.3791,-0.35811 0.25897,-2.92096 l 0,0 z"
       id="path4367"
       inkscape:connector-curvature="0"
       transform="translate(0,602.36218)" />
    <path
       style="fill:#a0a0a0;stroke:none"
       d="m 226.93765,133.47755 c -0.27295,-1.42787 -0.17528,-2.59613 0.21705,-2.59613 0.39233,0 9.7616,-13.62555 20.82059,-30.279 13.53932,-20.388507 20.68727,-30.287348 21.88294,-30.304574 1.27329,-0.01834 -4.26336,9.048615 -19.56903,32.046764 -11.7396,17.63979 -21.68459,32.4451 -22.09999,32.9007 -0.4154,0.4556 -0.9786,-0.3399 -1.25156,-1.76776 z"
       id="path4369"
       inkscape:connector-curvature="0"
       transform="translate(0,602.36218)" />
    <path
       style="fill:#a0a0a0;stroke:none"
       d=""
       id="path4371"
       inkscape:connector-curvature="0"
       transform="translate(0,602.36218)" />
    <path
       style="fill:#a0a0a0;stroke:none"
       d="m 252.08536,68.138403 c -7.42124,-3.91532 -9.76489,-14.927686 -5.21448,-24.501901 2.38463,-5.01733 6.79679,-7.705009 12.62537,-7.690756 8.25642,0.02019 12.30163,3.974947 13.67157,13.365853 l 0.69995,4.798225 -12.34603,0 -12.34604,0 0.68175,2.716305 c 1.88032,7.491786 6.71678,10.137462 16.76662,9.171799 4.24388,-0.407783 4.99401,-0.217639 4.99401,1.265893 0,3.515847 -13.38998,4.115387 -19.53272,0.874582 z m 16.50226,-19.634582 c 0,-2.936103 -3.12172,-7.610683 -5.74973,-8.609848 -1.76981,-0.672881 -3.69848,-0.64197 -5.93173,0.09507 -3.91941,1.293524 -5.26482,2.738406 -6.47321,6.951813 l -0.8972,3.12836 9.52593,0 c 7.92974,0 9.52594,-0.262303 9.52594,-1.565393 z"
       id="path4373"
       inkscape:connector-curvature="0"
       transform="translate(0,602.36218)" />
    <path
       style="fill:#a0a0a0;stroke:none"
       d=""
       id="path4375"
       inkscape:connector-curvature="0"
       transform="translate(0,602.36218)" />
    <path
       style="fill:#a0a0a0;stroke:none"
       d="m 236.26274,51.265956 c 0,-3.018673 31.8908,-50.69421711 33.91003,-50.69421711 0.97943,0 1.28319,0.47222141 0.81222,1.26269071 -1.83091,3.0730067 -33.04301,49.8486894 -33.83712,50.7096574 -0.52917,0.573712 -0.88513,0.05969 -0.88513,-1.278131 z"
       id="path4377"
       inkscape:connector-curvature="0"
       transform="translate(0,602.36218)" />
    <path
       style="fill:#a0a0a0;stroke:none"
       d="m 187.77541,53.099671 c 0,-16.499158 0.0792,-17.172593 2.02031,-17.172593 1.12239,0 2.0203,0.673435 2.0203,1.515229 0,1.886558 0.39349,1.886 4.05172,-0.0057 4.50994,-2.332181 10.66661,-2.210266 14.03198,0.277861 2.47409,1.829172 3.13401,1.935243 4.79631,0.770927 3.97127,-2.781591 10.10803,-3.740529 13.87232,-2.16771 5.28707,2.209079 6.04315,4.542161 6.50249,20.06502 l 0.41101,13.889598 -2.5409,0 -2.54091,0 -0.35165,-13.602128 c -0.2909,-11.252418 -0.65453,-13.90481 -2.10498,-15.354318 -2.04242,-2.041082 -7.20021,-2.277231 -11.43931,-0.523747 l -2.9698,1.228445 0.32889,14.125873 0.32889,14.125875 -2.52346,0 -2.52347,0 -0.3308,-13.728634 c -0.31718,-13.163215 -0.4328,-13.811127 -2.80723,-15.731594 -1.90383,-1.539843 -3.30091,-1.848284 -6.04232,-1.333994 -7.26735,1.363365 -7.13862,1.062436 -7.13862,16.687627 l 0,14.106595 -2.52538,0 -2.52539,0 0,-17.172594 z"
       id="path4379"
       inkscape:connector-curvature="0"
       transform="translate(0,602.36218)" />
    <path
       style="fill:#a0a0a0;stroke:none"
       d="m 525.16637,207.64558 c 0,-1.11526 9.22454,-15.8601 20.49898,-32.7663 14.82876,-22.23598 20.86301,-30.51357 21.81502,-29.9252 0.96727,0.59781 -4.33344,9.28125 -20.00183,32.7663 -11.72482,17.57411 -21.54158,31.95294 -21.81502,31.95294 -0.27343,0 -0.49715,-0.91249 -0.49715,-2.02774 z"
       id="path4381"
       inkscape:connector-curvature="0"
       transform="translate(0,602.36218)" />
    <path
       style="fill:#a0a0a0;stroke:none"
       d="m 570.24987,278.57681 c -0.39222,-0.63462 32.44234,-50.78647 74.67704,-114.06249 49.31687,-73.886543 75.23902,-111.882155 74.97783,-109.89942 -0.25057,1.902107 -26.85554,42.710793 -71.45406,109.60155 -39.08017,58.6141 -71.44226,106.72262 -71.91577,106.90781 -0.4735,0.1852 -0.86317,0.86705 -0.86593,1.51523 -0.009,2.07463 -4.65816,7.16857 -5.41911,5.93732 l 0,0 z"
       id="path4383"
       inkscape:connector-curvature="0"
       transform="translate(0,602.36218)" />
    <path
       style="fill:#a0a0a0;stroke:none"
       d="m 563.55216,368.47445 c 0,-1.2547 34.02282,-53.19577 78.3757,-119.65257 51.29008,-76.85124 78.23832,-116.3881 77.97817,-114.40493 -0.25017,1.90695 -28.97902,45.91118 -77.49053,118.69293 -42.40114,63.61435 -77.49132,116.0943 -77.97816,116.62211 -0.52942,0.57396 -0.88518,0.0686 -0.88518,-1.25754 z"
       id="path4385"
       inkscape:connector-curvature="0"
       transform="translate(0,602.36218)" />
    <path
       style="fill:#a0a0a0;stroke:none"
       d="m 481.35326,277.101 c 0.41406,-0.69448 8.85454,-13.4224 18.75663,-28.28427 10.65273,-15.98849 18.64307,-27.02158 19.56945,-27.02158 1.91769,0 3.72096,-2.96932 -17.94382,29.54696 -10.65273,15.98849 -18.64307,27.02158 -19.56945,27.02158 -0.9806,0 -1.28433,-0.47184 -0.81281,-1.26269 z"
       id="path4387"
       inkscape:connector-curvature="0"
       transform="translate(0,602.36218)" />
    <path
       style="fill:#a0a0a0;stroke:none"
       d="m 418.79762,354.76536 c 0.44429,-0.75905 11.0356,-16.7484 23.53624,-35.5319 17.16051,-25.78545 22.81103,-33.58674 23.06562,-31.84513 0.46664,3.19232 -42.98278,68.6939 -45.59171,68.73115 -1.26054,0.018 -1.57027,-0.39721 -1.01015,-1.35412 z"
       id="path4389"
       inkscape:connector-curvature="0"
       transform="translate(0,602.36218)" />
    <path
       style="fill:#a0a0a0;stroke:none"
       d=""
       id="path4391"
       inkscape:connector-curvature="0"
       transform="translate(0,602.36218)" />
    <path
       style="fill:#a0a0a0;stroke:none"
       d="m 241.56461,413.24732 c 16.51169,-24.83216 25.07436,-36.85152 26.26682,-36.87057 1.25888,-0.0201 -5.29708,10.59882 -22.72843,36.81404 -16.51169,24.83216 -25.07436,36.85152 -26.26682,36.87057 -1.25888,0.0201 5.29708,-10.59882 22.72843,-36.81404 z"
       id="path4393"
       inkscape:connector-curvature="0"
       transform="translate(0,602.36218)" />
    <path
       style="fill:#a0a0a0;stroke:none"
       d="m 62.140869,448.82693 c 3.121241,-5.2287 47.314821,-71.18084 48.228321,-71.97337 1.65229,-1.43348 3.79627,-6.56599 2.74279,-6.56599 -0.48344,0 -1.16421,1.13642 -1.51282,2.52538 -0.62662,2.49666 -2.02282,3.29168 -3.00106,1.70885 -1.73835,-2.81272 -6.38641,-17.43482 -5.44209,-17.12005 0.63406,0.21135 2.37802,3.99262 3.87547,8.40282 2.89664,8.53104 2.9773,8.5427 5.39377,0.77994 0.76875,-2.46954 -0.89207,-4.18423 -1.78895,-1.84698 -0.69834,1.81984 -2.66294,2.0136 -2.66294,0.26264 0,-2.1313 42.66262,-65.42328 44.09924,-65.42328 0.7467,0 1.35763,0.23099 1.35763,0.5133 0,0.28232 -8.39746,13.10451 -18.66102,28.49376 -10.26355,15.38926 -18.27678,28.22712 -17.80717,28.52859 0.46961,0.30147 1.91072,3.84375 3.20248,7.87173 1.29175,4.02798 2.63371,7.32361 2.98212,7.32361 0.34841,0 1.70267,-3.40927 3.00947,-7.57615 1.3068,-4.16688 2.75053,-7.57614 3.2083,-7.57614 1.27691,0 1.05826,1.00822 -2.09339,9.65283 -1.60913,4.41366 -3.50181,8.02484 -4.20595,8.02484 -0.70414,0 -2.00135,-2.12706 -2.88268,-4.72679 -0.88133,-2.59974 -1.96458,-5.08322 -2.40722,-5.51884 -0.44264,-0.43563 -0.39465,0.31669 0.10665,1.67181 0.80559,2.17773 -2.23986,7.18868 -26.222983,43.14703 -16.311461,24.45608 -27.760103,40.68315 -28.703074,40.68315 -0.983487,0 -1.287472,-0.47102 -0.814894,-1.26269 z m 55.289161,-88.13581 c -0.31979,-0.83337 -0.71146,-1.51523 -0.87037,-1.51523 -0.15891,0 -0.55058,0.68186 -0.87037,1.51523 -0.35064,0.91373 -0.005,1.51523 0.87037,1.51523 0.87549,0 1.22101,-0.6015 0.87037,-1.51523 z"
       id="path4395"
       inkscape:connector-curvature="0"
       transform="translate(0,602.36218)" />
    <path
       style="fill:#a0a0a0;stroke:none"
       d="m 83.729702,354.87737 c 0,-1.92623 6.09038,-11.91512 19.861388,-32.57484 10.92376,-16.38819 20.24241,-29.7967 20.70812,-29.7967 2.40302,0 -0.87268,5.62363 -19.86138,34.0975 -15.737278,23.5983 -20.708128,30.3853 -20.708128,28.27404 z"
       id="path4397"
       inkscape:connector-curvature="0"
       transform="translate(0,602.36218)" />
    <path
       style="fill:#ff00ff;stroke:none"
       d="m 28.243119,68.502928 c -5.203825,-2.653494 -7.452005,-6.395346 -7.946041,-13.225323 -0.823576,-11.38583 5.236637,-19.338486 14.742928,-19.346751 8.392962,-0.0073 12.44537,3.956995 13.678167,13.380745 l 0.627693,4.798225 -12.102505,0 c -13.560051,0 -14.048383,0.331615 -10.077961,6.843709 2.631161,4.315501 6.151054,5.579283 13.885357,4.985398 5.536483,-0.425125 6.313454,-0.266009 6.313454,1.292929 0,3.355154 -13.300082,4.239273 -19.121092,1.271068 z M 43.291543,46.391541 c -1.141232,-5.060074 -3.276495,-6.883013 -8.062282,-6.883013 -4.601614,0 -8.503455,3.153086 -9.630919,7.782766 l -0.676505,2.77792 9.599578,0 9.599578,0 -0.82945,-3.677673 0,0 z"
       id="path4399"
       inkscape:connector-curvature="0"
       transform="translate(0,602.36218)" />
    <path
       style="fill:#ff00ff"
       d="M 102.14373,69.596176 C 99.058515,68.354847 97.871838,63.365358 97.871838,51.634607 l 0,-11.666919 -3.030458,0 c -2.357022,0 -3.030457,-0.448956 -3.030457,-2.020305 0,-1.571349 0.673435,-2.020305 3.030457,-2.020305 2.918219,0 3.030458,-0.168359 3.030458,-4.545686 0,-4.175298 0.205772,-4.545687 2.525382,-4.545687 2.31961,0 2.52538,0.370389 2.52538,4.545687 l 0,4.545686 5.55584,0 c 4.8824,0 5.55584,0.244885 5.55584,2.020305 0,1.77542 -0.67344,2.020305 -5.55584,2.020305 l -5.55584,0 0,11.9198 c 0,7.924085 0.40634,12.326144 1.21218,13.131983 0.6667,0.666701 3.16683,1.212184 5.55584,1.212184 4.44377,0 6.1447,2.123184 2.74581,3.427458 -1.87715,0.720333 -8.44577,0.680167 -10.2927,-0.06294 l 0,5e-6 z"
       id="path4401"
       inkscape:connector-curvature="0"
       transform="translate(0,602.36218)" />
    <path
       style="fill:#ff00ff"
       d="m 158.48099,68.502928 c -5.2543,-2.624818 -8.36237,-9.234246 -7.7601,-16.502151 0.86126,-10.393283 6.02201,-16.06244 14.62879,-16.069923 8.36509,-0.0073 12.39147,3.905249 13.77016,13.380745 l 0.69814,4.798225 -12.29323,0 -12.29323,0 0.68299,2.777919 c 1.81952,7.400447 5.88884,9.785037 15.44593,9.051188 5.53648,-0.425125 6.31345,-0.266009 6.31345,1.292929 0,3.35715 -13.25925,4.235257 -19.1929,1.271068 z m 16.16244,-19.476312 c 0,-0.573428 -0.65986,-2.621878 -1.46637,-4.552112 -3.44654,-8.248731 -14.47986,-6.118623 -17.20627,3.321867 -0.64818,2.244386 -0.5354,2.272843 9.00812,2.272843 5.97008,0 9.66452,-0.398552 9.66452,-1.042598 z"
       id="path4403"
       inkscape:connector-curvature="0"
       transform="translate(0,602.36218)" />
  </g>
</svg>
