<?xml version="1.0" encoding="UTF-8" standalone="no"?>
<!-- Created with Inkscape (http://www.inkscape.org/) -->

<svg
   xmlns:dc="http://purl.org/dc/elements/1.1/"
   xmlns:cc="http://creativecommons.org/ns#"
   xmlns:rdf="http://www.w3.org/1999/02/22-rdf-syntax-ns#"
   xmlns:svg="http://www.w3.org/2000/svg"
   xmlns="http://www.w3.org/2000/svg"
   xmlns:xlink="http://www.w3.org/1999/xlink"
   xmlns:sodipodi="http://sodipodi.sourceforge.net/DTD/sodipodi-0.dtd"
   xmlns:inkscape="http://www.inkscape.org/namespaces/inkscape"
   width="720"
   height="450"
   id="svg2"
   version="1.1"
   inkscape:version="0.48.1 r9760"
   sodipodi:docname="rnote.svg">
  <defs
     id="defs4">
    <linearGradient
       x1="46.915581"
       y1="45.730022"
       x2="150.70486"
       y2="106.60844"
       id="linearGradient2538"
       xlink:href="#linearGradient4808"
       gradientUnits="userSpaceOnUse"
       gradientTransform="matrix(1.4685665,0,0,1.4685665,-46.272274,-47.021816)" />
    <linearGradient
       id="linearGradient4808">
      <stop
         id="stop4810"
         style="stop-color:#ffffff;stop-opacity:0.72448999"
         offset="0" />
      <stop
         id="stop4812"
         style="stop-color:#ffffff;stop-opacity:0.0408163"
         offset="1" />
    </linearGradient>
    <linearGradient
       inkscape:collect="always"
       xlink:href="#linearGradient3741"
       id="linearGradient6191"
       gradientUnits="userSpaceOnUse"
       gradientTransform="translate(395.035,31.240115)"
       spreadMethod="repeat"
       x1="0"
       y1="450"
       x2="5.3162198"
       y2="455.31622" />
    <linearGradient
       id="linearGradient3741">
      <stop
         id="stop3743"
         style="stop-color:#000000;stop-opacity:0;"
         offset="0" />
      <stop
         id="stop3788"
         style="stop-color:#000000;stop-opacity:0.49803922;"
         offset="0.01" />
      <stop
         id="stop3755"
         style="stop-color:#000000;stop-opacity:1;"
         offset="0.02" />
      <stop
         id="stop3761"
         style="stop-color:#000000;stop-opacity:1;"
         offset="0.50999999" />
      <stop
         id="stop3786"
         style="stop-color:#000000;stop-opacity:0;"
         offset="0.50999999" />
      <stop
         id="stop3749"
         style="stop-color:#000000;stop-opacity:0;"
         offset="1" />
    </linearGradient>
    <linearGradient
       y2="455.31622"
       x2="5.3162198"
       y1="450"
       x1="0"
       spreadMethod="repeat"
       gradientTransform="matrix(0.66666667,0,0,1,-141.42135,358.43328)"
       gradientUnits="userSpaceOnUse"
       id="linearGradient6212"
       xlink:href="#linearGradient3741"
       inkscape:collect="always" />
  </defs>
  <sodipodi:namedview
     id="base"
     pagecolor="#ffffff"
     bordercolor="#666666"
     borderopacity="1.0"
     inkscape:pageopacity="0.0"
     inkscape:pageshadow="2"
     inkscape:zoom="0.98994949"
     inkscape:cx="296.87189"
     inkscape:cy="143.7561"
     inkscape:document-units="px"
     inkscape:current-layer="layer1"
     showgrid="false"
     inkscape:window-width="1920"
     inkscape:window-height="987"
     inkscape:window-x="0"
     inkscape:window-y="29"
     inkscape:window-maximized="1" />
  <metadata
     id="metadata7">
    <rdf:RDF>
      <cc:Work
         rdf:about="">
        <dc:format>image/svg+xml</dc:format>
        <dc:type
           rdf:resource="http://purl.org/dc/dcmitype/StillImage" />
        <dc:title />
      </cc:Work>
    </rdf:RDF>
  </metadata>
  <g
     inkscape:label="Livello 1"
     inkscape:groupmode="layer"
     id="layer1"
     transform="translate(0,-602.36218)">
    <rect
       style="opacity:1;fill:#f4f4f4;stroke:none;fill-opacity:1"
       id="rect3008"
       width="720"
       height="450"
       x="0"
       y="602.36218" />
    <rect
       width="960"
       height="900"
       x="-141.42136"
       y="358.43329"
       id="rect3739"
       style="opacity:0.02;fill:url(#linearGradient6212);fill-opacity:1;stroke:none;display:inline" />
    <text
       xml:space="preserve"
       style="font-size:40px;font-style:normal;font-weight:normal;line-height:125%;letter-spacing:0px;word-spacing:0px;fill:#343434;fill-opacity:1;stroke:none;font-family:Bitstream Vera Sans"
       x="15.091372"
       y="672.48389"
       id="text3004"
       sodipodi:linespacing="125%"><tspan
         sodipodi:role="line"
         id="tspan3006"
         x="15.091372"
         y="672.48389"
         style="font-size:72px;font-style:normal;font-variant:normal;font-weight:normal;font-stretch:normal;fill:#4f7796;fill-opacity:1;font-family:Cantarell;-inkscape-font-specification:Cantarell">insert title here</tspan></text>
    <g
       transform="matrix(0.14351876,0,0,0.14351876,580.67516,986.09108)"
       id="layer1-1">
      <g
         id="text2820"
         style="font-size:40px;font-style:normal;font-weight:normal;fill:#000000;fill-opacity:1;stroke:none;font-family:Bitstream Vera Sans">
        <path
           inkscape:connector-curvature="0"
           d="m 276.88195,306.85647 c -8e-5,16.8364 -12.79708,25.25458 -38.39104,25.25458 l -9.97964,0 c -12.28786,0 -21.2831,-3.59809 -26.98574,-10.79429 l 7.63748,-4.58249 c 4.6843,4.82011 11.13371,7.23015 19.34826,7.23014 l 16.19145,0 c 15.75011,1e-5 23.62518,-5.49896 23.62525,-16.49694 -7e-5,-9.43649 -7.50176,-16.22535 -22.50509,-20.3666 l -19.04277,-5.29532 c -16.36118,-4.54848 -24.54175,-12.93272 -24.54175,-25.15275 0,-15.34274 10.35301,-23.01415 31.05906,-23.01425 l 9.57231,0 0,-0.10183 5.60081,0 c 12.42356,9e-5 21.38486,3.46241 26.88391,10.38696 l -7.63747,4.58249 c -4.48072,-4.61635 -11.20169,-6.92456 -20.16294,-6.92465 l -17.41344,0 c -12.89886,9e-5 -19.34828,5.15963 -19.34827,15.47862 -1e-5,7.80726 6.65307,13.57779 19.95927,17.31161 l 19.85743,5.60081 c 17.51521,4.95592 26.27284,13.91721 26.27292,26.88391"
           id="path2825"
           style="font-size:250px;font-variant:normal;font-stretch:normal;fill:#000000;font-family:Asenine;-inkscape-font-specification:Asenine" />
        <path
           inkscape:connector-curvature="0"
           d="m 385.46814,332.11105 -8.55397,0 0,-18.32994 c -5.3633,7.46777 -12.83104,13.06858 -22.40326,16.80245 -5.77061,2.24032 -11.84663,3.36049 -18.22811,3.36049 -15.00343,0 -27.05366,-4.71826 -36.15071,-14.15479 -9.09709,-9.50439 -13.64563,-21.79223 -13.64562,-36.86354 -10e-6,-15.34278 4.37881,-27.63061 13.13645,-36.86355 8.89339,-9.50431 20.97756,-14.25652 36.25255,-14.25662 17.44731,1e-4 31.12687,7.26418 41.0387,21.79227 l 0,-20.0611 8.55397,0 0,98.57433 m -8.55397,-30.85539 0,-13.34013 c -1e-4,-13.78134 -3.25875,-25.0169 -9.77597,-33.70672 -7.26417,-9.77588 -17.54929,-14.66386 -30.8554,-14.66395 -12.62733,9e-5 -22.6409,4.07341 -30.04073,12.21996 -7.19622,7.87516 -10.79431,18.19423 -10.7943,30.95723 -10e-6,12.96677 3.53019,23.31978 10.59063,31.05906 7.33195,8.07877 17.4134,12.11814 30.2444,12.11813 6.51725,10e-6 12.59328,-1.39171 18.22811,-4.17515 9.77588,-4.82008 17.24363,-11.64289 22.40326,-20.46843"
           id="path2827"
           style="font-size:250px;font-variant:normal;font-stretch:normal;fill:#000000;font-family:Asenine;-inkscape-font-specification:Asenine" />
        <path
           inkscape:connector-curvature="0"
           d="m 493.96841,282.92572 c -1.1e-4,15.07131 -4.54864,27.35915 -13.64562,36.86354 -9.02928,9.43653 -21.0795,14.15479 -36.15072,14.15479 -6.38158,0 -12.45761,-1.12017 -18.2281,-3.36049 -9.64022,-3.73387 -17.10796,-9.33468 -22.40326,-16.80245 l 0,18.32994 -8.55397,0 -0.10183,-0.10183 0,-145.31568 8.55397,0 0,66.90428 c 9.97961,-14.52809 23.6931,-21.79217 41.14053,-21.79227 15.27488,1e-4 27.35905,4.75231 36.25254,14.25662 8.75754,9.23294 13.13635,21.52077 13.13646,36.86355 m -8.9613,-0.20367 c -1e-4,-12.69512 -3.5982,-23.01418 -10.7943,-30.95723 -7.39994,-8.14655 -17.41351,-12.21987 -30.04074,-12.21996 -13.44199,9e-5 -23.76106,4.85413 -30.95723,14.56212 -6.44944,8.62193 -9.67414,19.89144 -9.67413,33.80855 l 0,13.34013 c 5.15952,8.82554 12.62727,15.64835 22.40326,20.46843 5.63472,2.78344 11.71075,4.17516 18.2281,4.17515 12.69512,10e-6 22.74263,-4.07331 30.14257,-12.21996 7.12822,-7.80717 10.69237,-18.12623 10.69247,-30.95723"
           id="path2829"
           style="font-size:250px;font-variant:normal;font-stretch:normal;fill:#000000;font-family:Asenine;-inkscape-font-specification:Asenine" />
        <path
           inkscape:connector-curvature="0"
           d="m 602.26501,332.11105 -8.55397,0 0,-18.32994 c -5.36329,7.46777 -12.83104,13.06858 -22.40326,16.80245 -5.7706,2.24032 -11.84663,3.36049 -18.2281,3.36049 -15.00344,0 -27.05366,-4.71826 -36.15072,-14.15479 -9.09709,-9.50439 -13.64562,-21.79223 -13.64562,-36.86354 0,-15.34278 4.37881,-27.63061 13.13646,-36.86355 8.89339,-9.50431 20.97756,-14.25652 36.25255,-14.25662 17.44731,1e-4 31.12686,7.26418 41.03869,21.79227 l 0,-20.0611 8.55397,0 0,98.57433 m -8.55397,-30.85539 0,-13.34013 c -9e-5,-13.78134 -3.25875,-25.0169 -9.77597,-33.70672 -7.26416,-9.77588 -17.54928,-14.66386 -30.85539,-14.66395 -12.62734,9e-5 -22.6409,4.07341 -30.04074,12.21996 -7.19621,7.87516 -10.79431,18.19423 -10.79429,30.95723 -2e-5,12.96677 3.53019,23.31978 10.59063,31.05906 7.33194,8.07877 17.4134,12.11814 30.2444,12.11813 6.51725,10e-6 12.59328,-1.39171 18.2281,-4.17515 9.77589,-4.82008 17.24363,-11.64289 22.40326,-20.46843"
           id="path2831"
           style="font-size:250px;font-variant:normal;font-stretch:normal;fill:#000000;font-family:Asenine;-inkscape-font-specification:Asenine" />
        <path
           inkscape:connector-curvature="0"
           d="m 692.74084,329.05606 c -8e-5,15.27494 -4.17523,27.427 -12.52545,36.45622 -8.62193,9.36859 -20.50243,14.0529 -35.64155,14.05295 -11.60899,-5e-5 -22.573,-3.2587 -32.89206,-9.77597 l 2.95316,-8.55397 c 5.70263,4.14117 11.91444,6.92461 18.63544,8.35031 4.48062,0.9504 8.38421,1.42562 11.71079,1.42566 12.55935,-4e-5 22.30136,-3.90364 29.22607,-11.7108 6.65301,-7.46777 9.97955,-17.54923 9.97963,-30.2444 l 0,-9.97963 c -7.39993,9.91175 -17.88872,14.86762 -31.46639,14.86762 -13.03466,0 -23.08217,-4.27699 -30.14257,-12.83096 -6.58521,-7.87507 -9.87781,-18.46569 -9.8778,-31.77189 l 0,-55.70265 8.35031,0 0,58.45214 c -2e-5,9.97966 2.74947,18.09235 8.24847,24.33808 5.77051,6.58521 13.5777,9.87781 23.42159,9.8778 9.70802,10e-6 17.44732,-3.32653 23.21792,-9.97963 5.49891,-6.31362 8.24839,-14.39237 8.24847,-24.23625 l 0,-58.45214 8.55397,0 0,95.41751"
           id="path2833"
           style="font-size:250px;font-variant:normal;font-stretch:normal;fill:#000000;font-family:Asenine;-inkscape-font-specification:Asenine" />
        <path
           inkscape:connector-curvature="0"
           d="m 801.40281,282.92572 c -1e-4,14.86765 -4.58258,27.0876 -13.74745,36.65988 -9.09716,9.5723 -21.04556,14.35845 -35.84521,14.35845 -14.73188,0 -26.71422,-4.78615 -35.94705,-14.35845 -9.23287,-9.64017 -13.84929,-21.86012 -13.84929,-36.65988 0,-14.79967 4.61642,-27.01961 13.84929,-36.65988 9.23283,-9.64009 21.21517,-14.46019 35.94705,-14.46029 14.79965,1e-4 26.81594,4.85414 36.04888,14.56212 9.02909,9.50449 13.54368,21.69049 13.54378,36.55805 m -8.9613,-0.20367 c -9e-5,-12.55934 -3.59819,-22.84446 -10.7943,-30.8554 -7.39994,-8.21444 -17.34562,-12.3217 -29.83706,-12.32179 -12.49156,9e-5 -22.50513,4.10735 -30.04074,12.32179 -7.19621,7.94305 -10.79431,18.22817 -10.79429,30.8554 -2e-5,12.62733 3.59808,22.91245 10.79429,30.8554 7.46772,8.21454 17.48129,12.3218 30.04074,12.32179 12.35567,10e-6 22.2674,-4.1412 29.73523,-12.42362 7.264,-8.07873 10.89604,-18.32991 10.89613,-30.75357"
           id="path2835"
           style="font-size:250px;font-variant:normal;font-stretch:normal;fill:#000000;font-family:Asenine;-inkscape-font-specification:Asenine" />
        <path
           inkscape:connector-curvature="0"
           d="m 891.0431,332.11105 -8.35031,0 0,-58.3503 c -8e-5,-9.84379 -2.78351,-17.92253 -8.3503,-24.23625 -5.83849,-6.653 -13.61174,-9.97955 -23.31976,-9.97964 -9.64023,9e-5 -17.31164,2.9193 -23.01426,8.75764 -5.70266,5.77061 -8.55398,13.47597 -8.55397,23.11609 l 0,60.4888 -0.10183,0 0,0.20366 -8.35031,0 0,-0.20366 -0.10183,0 0,-98.47251 8.55397,0 0,13.54379 c 7.33196,-10.11531 17.85469,-15.17302 31.56823,-15.17312 12.89879,1e-4 22.91236,4.31103 30.04073,12.93279 6.65301,7.94306 9.97955,18.49973 9.97964,31.67007 l 0,55.70264"
           id="path2837"
           style="font-size:250px;font-variant:normal;font-stretch:normal;fill:#000000;font-family:Asenine;-inkscape-font-specification:Asenine" />
      </g>
    </g>
    <g
       transform="matrix(0.16862817,0,0,0.16862562,573.59204,1010.1246)"
       id="g2531">
      <path
         inkscape:connector-curvature="0"
         d="M 102.22637,184.5407 C 55.934332,185.39935 17.672179,148.567 16.765458,102.27333 15.858737,55.979655 52.650806,17.755146 98.942837,16.896491 145.23487,16.037838 183.49702,52.870195 184.40375,99.163864 185.31047,145.45754 148.5184,183.68205 102.22637,184.5407 l 0,0 z"
         id="path4777"
         style="fill:#101010;fill-opacity:1;stroke:none" />
      <text
         sodipodi:linespacing="125%"
         x="32.369461"
         y="159.09149"
         id="text4781"
         xml:space="preserve"
         style="font-size:146.85664368px;font-style:normal;font-variant:normal;font-weight:normal;font-stretch:normal;text-align:start;line-height:125%;text-anchor:start;fill:#ffffff;fill-opacity:1;stroke:none;font-family:AnimalTracks"><tspan
           x="32.369461"
           y="159.09149"
           id="tspan4783">q</tspan></text>
      <path
         inkscape:connector-curvature="0"
         d="M 95.495113,19.830365 C 62.013306,22.55451 40.450641,40.725646 28.433017,67.698913 c -1.392416,3.602123 -2.950339,7.184636 -3.965764,10.855306 -0.728528,4.194894 2.9494,7.801002 5.694835,11.22344 4.680384,5.621532 9.087323,11.696731 16.600264,15.610001 9.001436,4.88301 21.667665,4.63722 31.392336,1.04466 5.45254,-1.86132 9.691154,-5.15886 15.248317,-6.904272 4.049954,-1.575418 8.813165,-1.903433 13.253185,-1.120891 8.84841,1.198593 17.82458,3.588293 26.91379,2.179763 11.57392,-1.291859 21.69979,-6.017632 30.60802,-11.33111 3.50324,-2.103844 7.71407,-3.681491 10.73747,-6.205124 2.80305,-2.400567 1.67945,-5.730471 1.54274,-8.58825 -1.84297,-11.05421 -7.74986,-21.71401 -16.94605,-30.605331 -9.31438,-9.158964 -21.77912,-16.814996 -36.5002,-20.894715 -8.72571,-2.420695 -18.17187,-3.715652 -27.516847,-3.132025 z"
         id="path4816"
         style="opacity:0.40394102;fill:url(#linearGradient2538);fill-opacity:1;stroke:none" />
      <path
         inkscape:connector-curvature="0"
         d="m 181.58219,99.83417 c 0.0112,44.74144 -36.25603,81.01744 -80.99768,81.01744 -44.741662,0 -81.008822,-36.276 -80.997684,-81.01744 -0.01114,-44.74143 36.256022,-81.017436 80.997684,-81.017436 44.74165,0 81.00883,36.276006 80.99768,81.017436 l 0,0 z"
         id="path4827"
         style="fill:none;stroke:#101010;stroke-width:1.10142386;stroke-linecap:round;stroke-linejoin:round;stroke-miterlimit:4;stroke-opacity:1;stroke-dasharray:none;stroke-dashoffset:0" />
    </g>
    <text
       xml:space="preserve"
       style="font-size:40px;font-style:normal;font-weight:normal;line-height:125%;letter-spacing:0px;word-spacing:0px;fill:#000000;fill-opacity:1;stroke:none;font-family:Bitstream Vera Sans"
       x="49.497475"
       y="746.28595"
       id="text6239"
       sodipodi:linespacing="191%"><tspan
         sodipodi:role="line"
         id="tspan6241"
         x="49.497475"
         y="746.28595"
         style="font-size:40px;font-style:normal;font-variant:normal;font-weight:normal;font-stretch:normal;font-family:Cantarell;-inkscape-font-specification:Cantarell;line-height:191%;word-spacing:0.05000000000000000px">▢ point one, blah blah</tspan><tspan
         sodipodi:role="line"
         x="49.497475"
         y="796.79578"
         id="tspan6243"
         style="font-size:40px;font-style:normal;font-variant:normal;font-weight:normal;font-stretch:normal;font-family:Cantarell;-inkscape-font-specification:Cantarell;line-height:191%;word-spacing:0.05000000000000000px">▢ point two, blah blah</tspan><tspan
         sodipodi:role="line"
         x="49.497475"
         y="847.30566"
         id="tspan6245"
         style="font-size:40px;font-style:normal;font-variant:normal;font-weight:normal;font-stretch:normal;font-family:Cantarell;-inkscape-font-specification:Cantarell;line-height:191%;word-spacing:0.05000000000000000px">▢ point three, blah blah</tspan><tspan
         sodipodi:role="line"
         x="49.497475"
         y="897.81549"
         id="tspan6249"
         style="font-size:40px;font-style:normal;font-variant:normal;font-weight:normal;font-stretch:normal;font-family:Cantarell;-inkscape-font-specification:Cantarell;line-height:191%;word-spacing:0.05000000000000000px">▢ surprise...four!</tspan></text>
    <path
       style="fill:#000000"
       id="path5471"
       d="m 249.60393,102.5287 c -5.40137,6.22695 -11.14604,12.14091 -16.64792,18.27997 -6.66819,7.639 -13.67331,14.95532 -20.2064,22.71369 -3.69482,4.25897 -7.85804,8.07084 -11.93651,11.95236 -4.8799,4.27388 -9.41211,8.91887 -13.88131,13.61526 -5.40616,5.53777 -10.61544,11.24412 -15.74548,17.03677 -1.92185,2.18898 -3.80427,4.40903 -5.61322,6.69199 -0.36886,0.46551 -0.73991,0.92936 -1.10094,1.40097 -0.23212,0.30321 -0.32621,0.77536 -0.67829,0.92319 -0.18224,0.0765 -0.10782,-0.38032 -0.16173,-0.57049 0.45526,-0.42157 0.8354,-0.94271 1.36576,-1.26472 0.96883,-0.58822 2.05676,-0.95308 3.08222,-1.43584 1.56223,-0.73547 3.13987,-1.43977 4.68082,-2.21883 2.05287,-1.03788 3.95663,-2.39052 6.09805,-3.23065 1.7152,-0.67292 -6.28666,3.82566 -4.80909,2.72496 2.56683,-1.91214 5.39437,-3.4468 8.09156,-5.1702 12.41314,-8.56825 24.41105,-17.86248 35.45832,-28.15069 7.17016,-6.67749 9.79815,-9.70379 16.51012,-16.83329 12.43654,-14.16103 21.96577,-30.46938 31.6367,-46.553411 3.66921,-5.849436 7.12926,-11.885097 11.80876,-17.003909 0.52929,1.229661 0.95991,-2.028185 1.4535,-1.52774 4.73297,4.798748 -20.77374,8.69146 11.79333,-4.452514 1.37469,-0.554822 -2.29289,1.886578 -3.34386,2.932084 -1.69978,1.690956 -3.26552,3.511509 -4.89829,5.267264 -1.97242,2.407948 -3.9595,4.803969 -5.91727,7.223845 -7.39472,9.140125 -7.18704,9.22066 -15.15362,18.454811 -8.48974,9.84056 -17.29363,19.41745 -26.0877,28.9846 -12.84161,13.73401 -27.06059,26.07364 -39.5634,40.12614 -2.44533,2.91419 -4.76218,5.9438 -6.52298,9.32661 -0.26651,0.512 -0.16155,1.45168 -0.72606,1.57206 -0.52895,0.1128 0.35723,-1.021 0.53585,-1.53149 -3.09667,1.65851 -6.19334,3.31702 -9.29,4.97553 1.84242,-1.53968 3.77639,-2.97601 5.52727,-4.61904 4.98567,-4.67858 11.12932,-11.5822 15.42241,-16.65467 8.32261,-9.8335 16.05405,-20.14392 23.76465,-30.45601 1.95598,-2.6629 3.91197,-5.32581 5.86796,-7.98871 1.4587,-2.02754 2.9009,-4.06706 4.37609,-6.08263 4.01655,-5.48787 5.93103,-9.43024 15.61977,-8.63618 2.03854,0.16707 -2.58177,3.17313 -3.87266,4.7597 -10.59444,12.42575 -22.21489,24.02373 -34.54241,34.73389 -7.87,6.83745 -11.30932,9.27961 -19.40218,15.46826 -6.06844,4.35912 -12.14843,8.78168 -18.60462,12.56612 -4.93097,2.8904 -9.61872,6.28413 -14.87436,8.53071 -0.61495,0.26287 -1.22073,-1.14927 -0.95651,-1.76364 0.48701,-1.13244 1.84609,-1.63413 2.76914,-2.4512 17.0431,-9.99916 33.46957,-20.99171 50.10676,-31.63937 5.98226,-3.65402 16.38128,-10.10683 21.12283,-12.06914 0.66338,-0.27454 1.41268,0.962 1.35116,1.6773 -0.12205,1.41914 -0.99602,2.70614 -1.82761,3.86256 -1.42084,1.97584 -9.65521,10.30766 -10.80748,11.49485 -6.82073,6.87092 -6.17023,6.22553 -12.73433,12.80153 -6.13955,6.15067 -9.44227,10.34763 -19.85937,11.04733 -1.62091,0.10887 1.9375,-2.60824 2.90625,-3.91236 6.88374,-8.15893 12.90054,-16.99099 18.72782,-25.91979 3.5327,-5.41295 2.83257,-3.13127 3.60047,-6.94732 -0.79257,0.75231 -3.44316,2.49975 -2.3777,2.25694 2.22321,-0.50666 7.58911,-4.82739 6.09572,-3.10426 -2.37862,2.74454 -5.95272,4.16369 -8.87864,6.31529 -10.60038,7.79505 -20.9237,15.97783 -31.32067,24.03981 -2.71105,2.10263 -5.42982,4.19535 -8.13315,6.30789 -6.90742,5.39787 -12.9455,11.14282 -22.49928,12.01666 -1.74586,0.15969 2.20266,-2.72988 3.36935,-4.03844 1.76718,-1.98205 3.61942,-3.8866 5.42913,-5.8299 14.1915,-14.54268 28.73102,-28.7413 43.28065,-42.92408 6.85254,-6.81452 11.6106,-9.66873 21.35846,-14.49335 1.30212,-0.64447 2.07396,1.74799 2.12476,2.22101 0.0754,0.70254 -0.22468,1.39518 -0.33701,2.09277 -0.86707,2.53159 -2.20261,4.84571 -3.62428,7.0975 -0.0914,0.14469 -1.89996,2.938 -2.07031,3.01441 -4.02478,1.8054 -8.24317,3.14379 -12.36475,4.71568 1.53736,-1.30298 3.15192,-2.52001 4.6121,-3.90894 4.33948,-4.12776 11.46227,-11.94275 15.18194,-16.11681 7.0413,-7.90145 11.54993,-13.15867 18.03195,-21.51595 2.59453,-3.34514 5.0519,-6.794459 7.57785,-10.19169 3.41996,-4.9722 7.07192,-10.149144 10.30115,-15.280344 2.58793,-4.112184 4.23034,-10.019409 12.95963,-6.98432 2.35039,0.817208 -3.03526,3.944085 -4.55289,5.916128 -10.91401,15.058626 -21.17236,30.571216 -31.93354,45.737096 -5.60774,8.14875 -2.63737,6.69653 -16.62123,10.80709 -0.79645,0.23411 1.11763,-1.22789 1.66638,-1.8508 0.75364,-0.85551 1.49375,-1.72285 2.24062,-2.58427 7.3793,-8.58076 9.71894,-11.30505 21.94035,-16.77058 0.50864,-0.22747 0.6896,0.87537 1.03441,1.31305 -8.3e-4,0.69277 0.15292,1.4032 -0.002,2.07832 -0.37623,1.63437 -2.2427,4.83626 -2.97676,6.06327 -2.76074,4.61468 -5.92378,8.92215 -9.14681,13.21769 -3.64133,4.58333 -2.18693,2.83878 -5.6146,6.85961 -0.62811,0.73682 -0.95632,1.94934 -1.89,2.20561 -0.52493,0.14408 -0.04,-1.65724 -0.56938,-1.53057 -3.49829,0.83706 -6.59205,5.21439 -9.99856,4.05921 -2.40609,-0.81593 3.33152,-3.8368 4.99727,-5.7552 2.13169,-2.47779 4.2547,-4.96306 6.39505,-7.43337 17.01079,-19.63321 -2.71187,3.27518 14.30889,-16.52936 4.51617,-5.2548 8.91933,-10.62586 13.67815,-15.66394 4.49166,-1.776181 8.65274,-5.053021 13.47497,-5.328547 1.81432,-0.103665 -1.71026,3.21559 -2.73702,4.715017 -1.54924,2.26244 -3.29516,4.38401 -4.9768,6.54985 -6.4341,8.2867 -13.17537,16.28607 -20.00307,24.24829 -4.90096,5.61132 -9.9719,11.07319 -14.78874,16.75814 -0.77387,0.91334 -1.53348,1.83889 -2.28093,2.77396 -0.28669,0.35865 -0.40224,0.91736 -0.82074,1.10624 -4.32488,1.95191 -8.82409,3.49195 -13.23613,5.23793 4.21732,-3.95928 7.46547,-8.79866 11.47112,-12.9514 4.44482,-1.57104 8.6728,-4.01052 13.33444,-4.71313 1.02965,-0.15519 -0.76499,1.93809 -1.19989,2.8842 -2.68563,5.84249 -6.37856,11.13036 -9.96303,16.44439 -1.46494,2.233 -3.00813,4.4065 -4.69005,6.47953 0,0 -13.74771,5.78558 -13.74771,5.78558 l 0,0 c 1.93498,-1.9771 3.59803,-4.16379 5.13739,-6.46675 2.81922,-4.04196 5.70594,-8.11648 8.10606,-12.42881 0.6544,-1.17577 1.22897,-2.39579 1.77544,-3.62544 0.39099,-0.8798 0.22824,-2.1702 1.03423,-2.69679 4.43283,-2.89615 9.43218,-4.81504 14.14827,-7.22256 -2.05724,1.18429 -3.52715,3.28094 -5.02989,5.07519 -2.16273,2.58226 -4.33633,5.1582 -6.42968,7.79669 -4.81903,2.08939 -9.53882,4.42447 -14.45708,6.26818 -0.51726,0.1939 0.72129,-0.83686 1.08278,-1.25457 0.83817,-0.96855 1.6686,-1.94388 2.51618,-2.9042 5.06274,-5.73614 10.31905,-11.29581 15.41198,-17.00494 6.77753,-7.86045 13.44578,-15.74783 19.71571,-24.02389 1.57293,-2.07621 3.10298,-4.18461 4.63882,-6.28841 0.88572,-1.21326 1.37979,-2.82338 2.62571,-3.66254 4.1963,-2.826317 8.9326,-4.753626 13.3989,-7.130441 -4.87753,4.445452 -2.33686,1.92955 -8.21146,8.609591 -9.01294,10.24866 -17.89817,20.61293 -26.66526,31.0722 -1.5262,1.88008 -2.67664,4.14143 -4.57862,5.64026 -4.94077,3.89351 -10.21616,7.40705 -15.75711,10.38506 -0.49673,0.26697 -0.88409,-1.00805 -0.69885,-1.54069 0.33165,-0.95369 1.34605,-1.50539 2.01972,-2.25751 0.89845,-1.00305 1.82297,-1.98328 2.69662,-3.008 1.07267,-1.25815 2.09392,-2.55924 3.14087,-3.83886 3.22051,-4.1936 6.29626,-8.40126 9.01745,-12.94204 3.01151,-5.02521 0.74829,-1.34244 2.89928,-5.49353 0.15546,-0.30002 0.36299,-0.57007 0.54448,-0.8551 2.18469,4.28889 -0.15825,-0.11192 11.79182,-6.74224 0.63549,-0.35259 -1.12245,0.92525 -1.64991,1.4252 -2.39457,2.26969 -4.47571,4.84028 -6.68116,7.286 -0.71341,0.83533 -1.44986,1.65153 -2.14023,2.50599 -0.50724,0.6278 -0.74275,1.55111 -1.45078,1.93855 -18.50208,10.12439 -16.74798,9.52479 -10.36513,0.59156 11.14698,-14.9449 21.53372,-30.423264 32.06884,-45.801443 6.9839,-10.017602 3.44218,-6.670289 19.81348,-15.042945 0.32717,-0.167324 0.29918,0.762653 0.13942,1.093586 -0.65487,1.356484 -1.64477,2.52412 -2.48836,3.772019 -4.52118,6.688042 -5.90867,8.575655 -10.85445,15.595472 -2.57011,3.433455 -5.08215,6.911145 -7.71031,10.300363 -6.58729,8.494808 -10.74361,13.390568 -17.78697,21.493538 -3.46403,3.98518 -10.37631,11.77535 -14.31985,15.90822 -1.29209,1.35413 -2.66574,2.62801 -3.99861,3.94201 -5.09407,2.18584 -10.09695,4.59777 -15.2822,6.55752 -0.48286,0.18249 0.70191,-0.7588 1.01842,-1.16657 1.99963,-2.57615 3.71403,-5.39748 4.94854,-8.41805 0.20981,-0.43603 0.41383,-0.8749 0.62942,-1.3081 0.0491,-0.0986 0.27241,-0.26516 0.16436,-0.28684 -0.24416,-0.049 -0.48434,0.11603 -0.72652,0.17404 3.59029,-2.15045 7.18058,-4.30091 10.77086,-6.45136 2.87037,-1.53681 -13.56046,9.157 -7.47889,6.28277 -14.73891,13.97209 -29.25909,28.18643 -43.3197,42.84284 -1.69366,1.8828 -3.37791,3.77412 -5.08099,5.64841 -1.02037,1.12297 -1.78264,2.57173 -3.08919,3.34318 -4.44346,2.62363 -9.19759,4.70055 -13.94781,6.71629 -1.32016,0.56021 2.45544,-1.48878 3.61558,-2.33184 5.051,-3.67048 9.7296,-7.83778 14.86354,-11.39918 10.36026,-7.98151 20.62978,-16.08948 31.05936,-23.98024 9.12354,-6.90263 16.01136,-12.01283 27.14476,-17.23459 1.24575,-0.58428 2.74544,0.18873 4.11815,0.2831 -1.10572,4.56146 -0.15836,1.94695 -4.03574,7.73425 -5.87508,8.76901 -11.6961,17.59775 -18.31119,25.83617 -5.75696,7.3173 -2.03154,3.56802 -16.8469,10.50831 -0.90333,0.42317 1.74451,-0.99457 2.49692,-1.6495 1.76715,-1.53821 3.36287,-3.26299 5.03362,-4.9054 6.38826,-6.27989 6.27381,-6.21436 12.7592,-12.78122 1.97166,-2.06072 3.97076,-4.09554 5.91499,-6.18216 0.56562,-0.60705 5.02456,-5.9835 6.79912,-7.07581 3.05116,-1.8781 6.15481,-3.67143 9.17883,-5.59292 1.90189,-1.20848 -3.87432,2.30218 -5.81148,3.45327 -16.51292,10.3977 -32.69184,21.33376 -49.44921,31.3381 -0.93847,0.44165 -1.87694,0.8833 -2.81541,1.32496 -0.38778,-0.3388 -0.69171,-1.22306 -1.16335,-1.01639 -3.57134,1.56488 -6.69503,3.99947 -10.07622,5.94134 -1.62108,0.931 3.20995,-1.91749 4.79515,-2.90835 7.56599,-4.72926 6.63434,-4.24477 14.6583,-9.84715 8.08382,-6.07439 11.88233,-8.73123 19.69952,-15.46018 12.10167,-10.41697 23.49126,-21.77755 33.64752,-34.10087 6.4905,-8.76036 2.53014,-4.85774 18.55726,-12.21223 0.47984,-0.22018 -0.73502,0.75889 -1.07942,1.15903 -4.9497,5.75074 -9.20015,12.03422 -13.8785,18.00158 -6.92699,9.18417 -8.11714,10.86176 -15.39698,20.09087 -7.32311,9.28398 -14.73032,18.58763 -23.04905,27.01608 -1.61901,1.64036 -3.37308,3.14169 -5.05961,4.71254 -5.44474,3.07349 -10.59874,6.73132 -16.33421,9.22047 -0.74024,0.32125 -1.76534,-0.48576 -2.08773,-1.22551 -0.25315,-0.58086 0.51256,-1.15979 0.80269,-1.7231 1.83797,-3.56859 4.23304,-6.77244 6.8384,-9.81938 4.31188,-4.78009 5.04098,-5.69659 9.85504,-10.5252 10.05827,-10.08865 20.79723,-19.4906 30.48776,-29.95028 8.82173,-9.52049 17.63486,-19.07127 26.09589,-28.91692 7.0809,-8.23967 8.27067,-9.956219 14.7556,-18.253364 1.87101,-2.393854 3.74297,-4.786962 5.61445,-7.180443 7.55262,-8.756487 9.32267,-11.153622 22.13535,-16.682054 0.60414,-0.260672 1.04107,0.912356 1.23247,1.541873 0.22242,0.731484 -1.91084,1.089858 -1.53388,1.70529 -5.1406,4.880006 -8.65185,11.138125 -12.5732,16.971065 -10.01434,16.146573 -19.62976,32.665983 -32.1289,47.074403 -6.56256,7.03077 -9.44387,10.34576 -16.45098,16.94134 -10.93785,10.29546 -22.85274,19.57412 -35.10546,28.23721 -12.77975,8.34283 -8.45738,5.72269 -27.2602,16.3685 -3.19441,1.80862 -7.75834,4.10036 -11.21484,5.66639 -1.10564,0.50093 -2.17353,1.14744 -3.35993,1.40401 -0.84182,0.18206 -1.72072,-0.0795 -2.58108,-0.11918 -0.19678,-0.38477 -0.61488,-0.72284 -0.59034,-1.15431 0.0171,-0.30072 1.71043,-2.22716 1.90299,-2.46541 1.87625,-2.32149 3.75721,-4.63521 5.76321,-6.84919 5.16325,-5.74409 10.2298,-11.56722 15.67538,-17.05091 4.40503,-4.717 8.88279,-9.39331 13.74334,-13.64323 4.09315,-3.90859 8.29409,-7.71448 12.14495,-11.86709 2.85381,-3.37066 5.72452,-6.75776 8.71297,-10.00975 3.91973,-4.26539 8.1233,-8.28009 11.71917,-12.83955 5.31931,-6.03102 10.82294,-11.89001 16.13183,-17.92723 0,0 13.76431,-5.93156 13.76431,-5.93156 z"
       inkscape:connector-curvature="0"
       transform="translate(0,602.36218)" />
    <path
       style="fill:#000000"
       id="path5473"
       d="m 228.54914,146.8752 c 6.24902,5.90987 11.18683,13.00848 16.91059,19.39453 1.8225,2.03337 3.74037,3.97919 5.61056,5.96879 16.33346,16.87927 37.53995,27.12242 58.31344,37.36026 20.342,9.77994 41.37391,18.02904 61.75143,27.72376 4.45949,2.13682 8.94029,4.27937 13.16499,6.86327 0.77157,0.47191 2.55456,1.47931 3.08281,2.49694 0.19116,0.36826 0.14111,0.81776 0.21167,1.22663 -4.72822,2.53792 -9.14749,5.76336 -14.18466,7.61375 -1.06494,0.39121 -2.12946,-0.78689 -3.17024,-1.23846 -1.81481,-0.78741 -3.64124,-1.5582 -5.39318,-2.47704 -4.26069,-2.23463 -14.23023,-8.287 -17.84457,-10.41029 -3.90851,-2.29611 -7.83684,-4.5583 -11.75526,-6.83745 -18.2426,-10.33002 -36.54071,-20.58129 -54.40402,-31.56245 -10.30182,-6.33287 -14.89327,-9.43858 -24.83146,-15.95092 -8.46891,-5.69929 -16.66613,-11.78344 -24.68186,-18.09966 -2.46918,-1.94566 -5.99773,-5.33619 -8.95277,-6.67436 4.52514,-2.39881 8.67734,-5.69981 13.57543,-7.19643 1.0748,-0.32841 1.65267,1.52348 2.47149,2.29326 6.54849,6.15639 13.0293,12.34939 19.79398,18.27023 10.63371,9.28109 23.09711,15.72439 35.90804,21.38391 0.70364,0.22362 2.71944,0.25276 2.11091,0.67084 -3.94715,2.7118 -8.4063,4.60343 -12.74342,6.63401 -0.19,0.089 -0.27706,-0.31511 -0.41442,-0.47368 -0.80903,-0.934 -1.58626,-1.89638 -2.42474,-2.80404 -3.83717,-4.15378 -6.53215,-6.65682 -10.76227,-10.79255 -10.77868,-11.14787 -21.61624,-22.24971 -30.34419,-35.13033 -3.30981,-4.88459 -7.34021,-11.82245 -10.40801,-16.98784 -2.23278,-3.44014 -3.99538,-7.16995 -6.20776,-10.62351 -0.30136,-0.47043 -1.55818,-1.03016 -1.06557,-1.29372 4.43709,-2.374 8.98306,-5.34942 14.00745,-5.63063 1.8291,-0.10237 1.90174,3.13184 2.87175,4.68593 1.37654,2.2054 2.77849,4.39483 4.16774,6.59225 7.01575,10.92894 13.8372,22.15733 22.9113,31.55375 5.44211,5.63542 7.95795,7.21044 14.14146,11.97034 11.05914,7.48457 22.90328,13.84989 35.39022,18.59573 0.49135,-1.8e-4 1.89663,-0.25124 1.47405,-5.4e-4 -4.26803,2.53195 -8.48566,5.30506 -13.17123,6.93975 -0.82713,0.28857 -1.36993,-1.09242 -2.06649,-1.62364 -1.21878,-0.92948 -2.44389,-1.85079 -3.67919,-2.75818 -5.47749,-4.02352 -5.68821,-4.10051 -11.67618,-8.24185 -7.59845,-5.04698 -15.16886,-10.13338 -22.72472,-15.24359 -4.55457,-3.08038 -9.23651,-6.01218 -13.55625,-9.4209 4.76579,-2.41436 9.06138,-6.18185 14.29738,-7.24307 1.94018,-0.39324 3.26235,2.24347 4.90277,3.35161 12.33681,8.33379 24.5038,16.9139 36.79071,25.32265 18.1279,12.47808 35.22982,26.34031 52.50719,39.94599 1.35744,1.08668 2.71519,2.17297 4.07231,3.26004 0.90331,0.72355 1.78411,1.47606 2.70899,2.17183 0.4634,0.3486 0.93426,0.69694 1.45189,0.95831 0.0725,0.0366 0.2844,-0.15715 0.21359,-0.11735 -13.882,7.80077 -9.79925,11.16011 -14.67075,6.0517 -5.2925,-5.30869 -10.36556,-10.91623 -16.57515,-15.19828 -1.93474,-1.33418 -3.99129,-2.48247 -5.98694,-3.7237 -12.02552,-7.07889 -24.70649,-12.90997 -37.26988,-18.94262 -0.002,-9.2e-4 -4.25221,-1.96239 -4.94023,-2.01848 -0.23594,-0.0192 -0.71459,0.61223 -0.50849,0.49576 4.42153,-2.49878 8.47704,-5.72278 13.1744,-7.65376 0.74441,-0.30601 1.27702,0.98089 1.93676,1.4419 1.0734,0.75008 2.17414,1.46024 3.26121,2.19036 10.4589,6.33081 21.15223,12.26481 32.12063,17.66333 6.1402,2.89727 12.34956,5.60141 18.82186,7.65756 0,0 -12.12494,8.21306 -12.12494,8.21306 l 0,0 c -6.35192,-2.32869 -12.51922,-5.10114 -18.62269,-8.01783 -11.02636,-5.50184 -21.79498,-11.49361 -32.48542,-17.6204 -1.15448,-0.7158 -2.32411,-1.40772 -3.46342,-2.14742 -0.7666,-0.4977 -2.85421,-0.87562 -2.25247,-1.56358 9.72517,-11.11867 9.14795,-10.75346 17.22576,-6.62812 12.32555,6.45397 24.95865,12.32591 37.04157,19.24056 2.06103,1.25635 4.1816,2.41985 6.18308,3.76904 6.34707,4.27851 11.53608,9.90809 17.14191,15.05419 5.14431,4.70303 2.39022,1.27671 -10.58137,10.12891 -0.11114,0.0759 -0.15581,-0.22166 -0.25376,-0.31391 -0.42078,-0.3963 -0.87022,-0.7611 -1.29909,-1.14862 -0.83791,-0.75709 -1.65886,-1.53289 -2.50114,-2.28511 -1.27252,-1.13647 -2.562,-2.25381 -3.843,-3.38071 -16.69438,-14.12494 -33.62167,-28.01613 -51.76085,-40.27447 -9.97307,-6.71463 -19.84917,-13.62526 -29.97388,-20.11106 -2.49669,-1.59936 -5.03044,-3.14157 -7.5885,-4.64081 -1.71995,-1.00804 -6.08626,-1.07301 -5.24218,-2.87909 1.9549,-4.1829 7.1328,-5.86486 10.69919,-8.7973 0.51231,0.57251 0.94548,1.2272 1.53691,1.71754 1.70856,1.41649 9.87249,7.12841 11.13485,8.00292 7.51578,5.20663 15.18144,10.18415 22.85565,15.15269 5.3464,3.52094 10.80599,6.95522 15.98464,10.7258 0.89308,0.65026 3.31811,1.21007 2.60265,2.05183 -8.91263,10.48603 -7.61425,10.45484 -13.52619,8.64787 -12.18609,-5.3822 -23.95061,-11.79908 -34.9297,-19.35324 -6.47094,-5.0318 -8.56729,-6.27035 -14.23036,-12.23954 -9.02824,-9.51626 -15.90937,-20.77018 -23.23971,-31.56905 -1.47598,-2.14243 -2.92663,-4.30254 -4.42795,-6.42729 -1.07444,-1.52061 -4.26918,-2.91883 -3.29856,-4.50771 2.60606,-4.26609 7.50343,-6.68107 11.74742,-9.32296 0.48826,-0.30394 0.42936,1.06846 0.6857,1.58331 1.15166,2.31312 4.7828,9.09091 5.72892,10.86909 3.41397,6.07595 6.1421,11.17457 10.05268,17.0342 8.60129,12.88822 19.44417,23.94871 30.4908,34.73401 4.43265,3.99935 7.32349,6.51396 11.42769,10.50418 0.94989,0.92351 1.93693,1.81778 2.78462,2.83591 0.58656,0.7045 2.21139,1.73213 1.49722,2.30687 -11.25168,9.05505 -9.26776,9.3278 -15.49804,6.48447 -12.53852,-6.24569 -24.94911,-12.83076 -35.64615,-22.02095 -5.58093,-4.79325 -10.99257,-9.75351 -16.51724,-14.60936 -1.26517,-1.11201 -2.52346,-2.23255 -3.81719,-3.3112 -0.8908,-0.74272 -3.46997,-1.25453 -2.73458,-2.15139 3.1007,-3.78152 7.81789,-5.87686 11.72684,-8.81529 2.8216,2.36457 5.49124,4.9023 8.29166,7.29233 7.66101,6.53831 15.63429,12.70751 23.92315,18.43228 10.18185,6.84983 13.87992,9.47377 24.54631,16.06236 17.87812,11.04323 36.29655,21.18124 54.67768,31.35129 3.99279,2.23253 7.98261,4.47037 11.97836,6.69759 5.05536,2.81784 12.88587,7.31495 18.4034,9.83638 1.82312,0.83314 3.70912,1.53129 5.61451,2.1537 1.01361,0.3311 3.8839,-0.0455 3.12145,0.69995 -3.29752,3.22404 -7.72018,5.04692 -11.58027,7.57037 0.20611,0.0433 0.6325,0.34016 0.61834,0.13002 -0.0413,-0.61298 -2.16316,-1.98636 -2.55893,-2.25063 -4.0153,-2.68105 -8.35243,-4.83488 -12.61926,-7.07311 -20.03434,-10.09545 -40.86981,-18.46734 -61.09996,-28.1557 -21.00133,-10.29801 -42.49771,-20.54115 -59.1828,-37.38119 -1.91483,-1.98883 -3.87294,-3.93687 -5.74449,-5.96648 -5.79785,-6.28749 -10.86598,-13.33017 -17.51212,-18.78822 0,0 12.71815,-7.91063 12.71815,-7.91063 z"
       inkscape:connector-curvature="0"
       transform="translate(0,602.36218)" />
    <path
       style="fill:#000000"
       id="path5475"
       d="M 323.32073,35.855242 C 310.22589,34.181331 296.99908,34.700399 283.85027,35.245408 261.12996,36.240772 238.41273,34.9549 215.692,34.874593 c -17.53179,0.216489 -35.19956,-0.08614 -52.58302,2.620401 -3.09655,0.482121 -6.15521,1.182207 -9.23281,1.773311 -13.11946,2.863981 -25.72564,7.534513 -38.47098,11.679256 -7.33352,1.955323 -14.18274,5.190234 -20.923254,8.607925 1.917173,-1.415053 -10.67282,5.757808 -8.064805,4.210327 2.573171,-1.526807 5.0654,-3.231422 7.807159,-4.429381 1.584575,-0.69235 -2.895297,1.893362 -4.302644,2.89815 -2.939404,2.098614 -5.195222,3.996745 -8.003713,6.270795 -5.118565,4.779942 -11.277699,9.500971 -14.715802,15.76181 -0.508296,0.925616 -0.862888,1.927679 -1.294333,2.891518 -1.933687,6.318269 -1.048017,12.954075 -0.554896,19.418835 0.394248,6.00498 1.548263,11.87874 2.980158,17.70846 2.216683,8.26796 4.263324,16.58057 6.794611,24.75954 2.540458,8.82638 7.246308,16.61833 12.387391,24.1303 5.651924,8.3517 11.392086,16.6398 16.966708,25.04342 5.91846,8.9401 12.02756,17.84278 19.38735,25.67903 1.51346,1.61144 3.12447,3.12841 4.68671,4.69261 6.3207,6.07228 13.10101,11.68058 20.68445,16.11628 3.57221,2.08945 8.72693,4.6059 12.39574,6.45106 14.17352,7.22025 29.30212,12.20037 44.24596,17.52691 14.34129,5.76841 29.17109,10.27326 44.13323,14.11471 18.18558,3.80637 36.75815,5.37452 55.27366,6.54067 9.45999,0.33619 18.9439,1.04531 28.4162,0.7043 2.82225,-0.1016 5.63408,-0.39534 8.44423,-0.65418 10.43205,-1.70694 20.99454,-1.21984 31.50857,-0.94425 5.58552,0.24325 11.16906,0.53477 16.74951,0.87506 1.39461,0.085 4.44459,0.73792 5.86094,-0.11973 -4.27642,2.74487 -8.39605,5.75091 -12.82926,8.23461 -0.35448,0.19859 -0.75975,-0.2914 -1.15061,-0.40242 -0.68417,-0.19434 -1.3714,-0.38567 -2.07119,-0.51273 -2.9192,-0.53001 -5.92694,-0.58967 -8.88095,-0.72368 -6.2447,-0.1901 -12.49337,-0.12883 -18.73981,-0.0907 -4.69609,0.0503 -9.39241,0.0541 -14.08871,0.0518 -5.41648,0.086 -10.79951,0.11863 -16.12249,-0.97655 -3.81713,-1.23838 -7.69336,-2.8962 -10.25492,-6.09427 -0.2136,-0.82557 -0.75712,-1.87025 0.40599,-2.52654 4.93333,-2.78364 9.9944,-5.36459 15.19842,-7.60168 0.92331,-0.39691 2.00377,-0.15901 3.00665,-0.22428 1.76214,-0.11469 4.07255,-0.22137 5.86128,-0.30891 0.69129,-0.0311 2.61769,-0.52131 2.07386,-0.0934 -4.00241,3.14925 -8.17093,6.17265 -12.71718,8.46801 -0.96873,0.48909 -2.14986,-0.30032 -3.22875,-0.4171 -2.02821,-0.21952 -4.05531,-0.46616 -6.0915,-0.59169 -5.52793,-0.3408 -14.36673,-0.40215 -19.60985,-0.48395 -4.57489,-0.0326 -9.15114,0.0187 -13.72466,-0.0977 -12.08356,-0.30755 -20.98672,-0.97214 -33.15375,-1.73981 -16.3802,-1.0335 -32.75808,-2.03058 -49.14725,-2.91097 -8.92471,-0.46464 -17.85353,-0.84041 -26.78225,-1.21667 -1.13121,-0.0477 -2.26142,-0.12888 -3.3935,-0.14602 -0.33846,-0.005 -1.2896,0.27354 -1.01239,0.0793 4.33652,-3.03868 8.86588,-5.79241 13.29881,-8.68862 7.94185,1.22215 15.71174,3.35264 23.57114,4.99319 1.51352,0.31593 16.8351,3.26995 18.33547,3.5598 2.37834,0.4496 11.617,2.25633 14.51177,2.5981 1.35855,0.16039 2.73845,0.29725 4.10045,0.16941 0.50212,-0.0471 1.78837,-0.9322 1.351,-0.68109 -14.60752,8.38698 -8.53943,9.05796 -17.65789,6.41886 -23.09435,-5.36245 -46.5442,-8.84217 -69.90853,-12.75864 -3.41845,-0.59159 -11.4734,-1.953 -15.34649,-2.72638 -1.28837,-0.25726 -2.59138,-0.47388 -3.84459,-0.86829 -0.39651,-0.12479 -1.40205,-0.45071 -1.05033,-0.67225 15.16767,-9.55342 10.19095,-9.14636 21.24665,-7.18287 21.56451,4.31738 43.33853,7.59848 64.56284,13.49852 5.06397,1.40771 10.05712,3.0588 15.08567,4.5882 17.41817,5.47859 34.50006,11.93742 51.15989,19.39499 0.552,0.25152 2.13444,0.38165 1.656,0.75456 -4.06064,3.16505 -8.33945,6.22753 -13.10702,8.17088 -1.15471,0.47068 -2.30096,-0.96242 -3.4621,-1.417 -7.46496,-2.92248 -14.97,-5.61301 -22.57184,-8.15911 -19.11774,-5.99333 -38.5032,-11.06375 -57.73062,-16.67881 6.60808,-2.88989 -8.26565,-0.45716 -6.45028,-1.74826 4.22487,-3.00474 8.61353,-5.98952 13.49833,-7.72638 1.27621,-0.45377 2.47101,1.11387 3.73579,1.59856 7.65287,2.93278 7.85295,2.72873 16.73139,5.20158 29.07196,7.32163 58.22736,14.32029 87.5717,20.4659 2.8825,0.54067 12.07641,2.40709 15.83458,2.68883 0.95209,0.0714 3.66139,-0.72988 2.85605,-0.21703 -4.26967,2.71895 -8.61893,5.58683 -13.48392,6.98493 -1.57477,0.45256 -3.03398,-1.24121 -4.57612,-1.79484 -2.69472,-0.9674 -5.42092,-1.84476 -8.13138,-2.76714 -24.78207,-7.63342 -49.31446,-16.06938 -73.75808,-24.72165 -0.41336,-0.15079 -13.93157,-5.09273 -15.58873,-5.66336 -6.36198,-2.19067 -13.55166,-1.62523 12.5494,-8.52453 2.32299,-0.61403 4.62472,1.30616 6.94322,1.93695 3.39987,0.92501 6.80777,1.82027 10.21166,2.73041 24.5192,6.82907 49.59136,11.39107 74.74257,15.14193 -7.88886,4.90624 13.6888,-1.39296 10.844,0.85521 -3.75372,2.96646 -8.10571,5.25046 -12.61793,6.84113 -1.15112,0.40579 -2.31833,-0.76489 -3.46974,-1.16984 -14.62629,-5.14403 -1.91797,-0.91735 -20.21719,-6.7949 -29.52214,-9.27229 -59.19218,-18.07397 -88.45374,-28.15071 9.82052,-1.0155 -11.57356,-1.95001 -9.04325,-4.07909 4.43603,-3.73261 9.46463,-6.94479 14.89032,-8.98747 2.25231,-0.84796 4.80302,0.35523 7.1883,0.67524 10.70626,1.43638 15.37143,2.62208 26.48452,4.89966 26.49491,5.81862 52.51592,13.52967 78.73345,20.44284 17.84233,4.70475 18.1325,4.70457 35.17931,8.8927 12.80546,3.03526 11.03418,2.69193 22.50038,5.16381 2.17245,0.46834 4.33247,1.00568 6.52465,1.37061 1.11266,0.18522 4.27341,-0.40181 3.37255,0.27697 -12.17309,9.17216 -9.56453,9.05525 -17.39196,4.70319 -29.79469,-14.54216 -62.26287,-22.28072 -94.35544,-29.8782 -16.59403,-3.78445 -33.27174,-7.25459 -50.08756,-9.91056 -4.73765,-0.74828 -12.35865,-2.15509 -17.59291,-1.56592 -1.19747,0.13478 -2.26675,0.81865 -3.40013,1.22798 4.20614,-2.01063 8.08874,-4.92909 12.61844,-6.03188 1.2497,-0.30425 2.07357,1.52968 3.17994,2.18564 2.27698,1.35 4.57735,2.67044 6.95906,3.82568 6.66689,3.23376 14.28157,6.13161 21.27871,8.41272 4.44809,1.4501 8.97264,2.6542 13.45896,3.9813 13.62203,3.6332 27.43938,6.52206 41.34558,8.82855 3.34808,0.55532 6.7096,1.02799 10.07159,1.49164 7.83863,1.08103 5.30465,0.98367 10.68047,0.86737 -4.89082,2.46216 -9.36547,6.03808 -14.67246,7.38648 -2.39123,0.60757 -4.75984,-1.30973 -7.17012,-1.83669 -3.85456,-0.84272 -7.73217,-1.58077 -11.61699,-2.27072 -17.8909,-3.17745 -35.90268,-5.77253 -53.84797,-8.61825 -18.24216,-3.10366 -36.51707,-6.00826 -54.7928,-8.90559 -3.99292,-0.63301 -7.99089,-1.23482 -11.97898,-1.8975 -6.87041,-1.14163 -4.76069,-0.13723 -7.84409,-1.83862 5.5765,-2.44866 10.75422,-6.16724 16.72949,-7.34599 2.80042,-0.55245 5.48461,1.5851 8.21244,2.42565 3.85609,1.18821 7.70006,2.41582 11.53835,3.66033 15.26304,4.94877 30.37815,10.2773 45.48274,15.68621 13.27962,5.10511 26.63134,10.01721 40.03963,14.77302 6.14494,2.17956 12.2703,4.4903 18.52723,6.33139 -5.30829,2.29204 -10.24388,5.80015 -15.92487,6.87611 -2.50928,0.47525 -4.82364,-1.68036 -7.24663,-2.48751 -3.65218,-1.21662 -7.30573,-2.43026 -10.97838,-3.58363 -15.16269,-4.76174 -30.46288,-9.0295 -45.77923,-13.26176 -11.673,-3.26778 -23.36856,-6.4574 -35.00999,-9.83713 -1.96117,-0.56937 -3.93241,-1.10781 -5.87318,-1.74321 -0.78282,-0.2563 -2.93354,-0.4155 -2.28972,-0.92931 4.25116,-3.39267 9.32386,-5.60321 13.98579,-8.40482 21.0668,5.44254 41.80087,12.07778 62.67042,18.21758 6.0613,1.6203 12.73235,3.5106 18.92911,4.81117 1.76314,0.37004 3.53387,0.76083 5.33072,0.8909 0.65462,0.0474 2.49207,-0.71182 1.93487,-0.36497 -13.42277,8.35558 -8.96801,9.72622 -15.95225,6.15962 -1.10349,-0.54809 -2.20697,-1.09617 -3.31046,-1.64426 0,0 12.22622,-8.06293 12.22622,-8.06293 l 0,0 c 1.13038,0.5395 2.26075,1.07901 3.39112,1.61852 7.06344,3.54921 5.13595,1.44084 -8.36963,10.7419 -0.48727,0.33558 -1.18436,-0.0784 -1.76394,-0.19729 -3.64922,-0.74845 -9.93708,-2.50022 -13.05994,-3.38138 -3.4764,-0.98092 -6.93844,-2.01203 -10.40767,-3.01804 -3.76351,-1.12222 -21.7051,-6.47693 -25.3067,-7.53105 -10.73835,-3.1429 -21.55349,-6.3946 -32.53603,-8.60655 -1.93948,-0.39062 -3.91112,-0.59983 -5.86668,-0.89975 3.49979,-2.83378 6.65255,-6.16024 10.49938,-8.50136 0.58148,-0.35388 1.12661,0.78277 1.7555,1.04325 1.79867,0.74498 3.65534,1.34291 5.50102,1.96232 11.28485,3.78717 22.73659,7.06213 34.16647,10.37372 19.27237,5.33686 38.54624,10.66679 57.75731,16.22098 2.5676,0.74233 7.84571,-0.43625 7.70117,2.23259 -0.2283,4.21524 -5.55888,6.35456 -8.33832,9.53183 -18.85429,-7.8028 -38.06838,-14.70387 -57.07421,-22.12167 -19.09346,-6.78345 -38.2333,-13.51804 -57.85761,-18.63779 -2.85578,-0.74504 -8.44497,0.94041 -8.62397,-2.00552 -0.24198,-3.98239 5.30595,-5.95977 7.95892,-8.93966 0.53005,2.46429 0.0149,0.71581 6.15434,2.02458 3.83746,0.81805 7.70823,1.47154 11.56754,2.17938 18.04678,3.30999 36.14399,6.3341 54.25663,9.25975 18.88368,2.8293 20.27427,3.06754 38.64851,5.70877 10.29403,1.47973 18.25375,2.45736 28.28109,4.27858 2.63235,0.4781 8.27003,-0.99998 7.85623,1.64324 -0.69386,4.43211 -6.39432,6.29388 -9.59147,9.44081 -20.55488,-2.94287 -40.8994,-7.29109 -61.03565,-12.32299 -4.55845,-1.30809 -9.15123,-2.50201 -13.67536,-3.92428 -7.48128,-2.35193 -14.74115,-5.02416 -21.88831,-8.24207 -2.54279,-1.14486 -5.08426,-2.31679 -7.48874,-3.7292 -1.47473,-0.86627 -5.01513,-1.63304 -4.10359,-3.08022 2.78429,-4.42039 8.14849,-6.53991 12.22274,-9.80987 1.10263,-0.20124 2.18712,-0.59195 3.30791,-0.60373 5.14099,-0.054 12.22428,1.4185 16.90205,2.29175 16.54491,3.08863 32.99512,6.68361 49.39124,10.47481 32.60589,7.75825 65.43816,15.5646 96.26967,29.01102 8.54685,4.46483 9.11727,2.79743 -6.70503,11.66883 -0.91551,0.51332 -2.06363,-0.38992 -3.08345,-0.63819 -5.1451,-1.25252 -10.25375,-2.65047 -15.37463,-3.99862 -4.18082,-1.10066 -8.3552,-2.22559 -12.5328,-3.33838 -13.60303,-3.59888 -20.77113,-5.4803 -34.71085,-9.23609 -26.31433,-7.08988 -52.53145,-14.68745 -79.29744,-19.93778 -10.25925,-1.83123 -17.12136,-3.38154 -27.26582,-4.10868 -2.48222,-0.17793 -8.06234,2.40226 -7.46575,-0.0138 5.119,-20.73043 7.3361,-8.33841 11.05228,-6.28158 1.97816,1.09487 4.1241,1.85452 6.18615,2.78178 9.86497,3.72243 12.75619,4.9076 23.36533,8.45411 21.43571,7.16569 43.16478,13.43035 64.85268,19.77411 1.15672,0.33378 18.43884,5.23836 21.24024,6.30484 1.68185,0.64027 5.85859,1.00567 4.80384,2.46377 -8.06041,11.14282 -13.27954,8.54786 -23.029,7.04152 -25.02406,-4.39219 -50.0231,-9.05717 -74.65211,-15.34626 -3.52638,-0.82172 -7.04504,-1.67726 -10.57914,-2.46514 -2.46137,-0.54873 -7.86123,0.93597 -7.40608,-1.54442 2.88657,-15.73069 6.77615,-9.82997 11.34426,-7.83307 2.0982,0.9172 4.23908,1.73361 6.36555,2.58319 2.88475,1.15254 5.77864,2.28209 8.66796,3.42313 24.38154,9.02619 49.01614,17.46675 74.06625,24.45061 2.85613,0.85997 5.74047,1.63127 8.56838,2.57991 1.81769,0.60975 6.22937,0.38399 5.35788,2.09171 -6.04948,11.85413 -11.15975,9.82285 -19.82936,7.98548 -3.07363,-0.6514 -6.13773,-1.34699 -9.2066,-2.02048 -29.27007,-6.79167 -58.49113,-13.78948 -87.81013,-20.36996 -9.4718,-2.38065 -9.30584,-2.12365 -17.52938,-4.85883 -1.40347,-0.4668 -5.00554,-0.2949 -4.17035,-1.5156 8.01334,-11.71208 9.30142,-9.62345 17.29204,-6.77103 18.95176,6.21134 38.24469,11.2988 57.36541,16.95381 3.12579,0.99593 6.26467,1.95166 9.37736,2.98779 9.65458,3.21378 5.25916,2.02208 13.87739,4.74028 1.24318,0.3921 4.59095,0.0898 3.75554,1.09043 -9.02714,10.81282 -8.01337,10.84268 -13.18332,7.67033 -15.90893,-8.20729 -32.66412,-14.61772 -49.68485,-20.12841 -5.01689,-1.51083 -9.99571,-3.15441 -15.05068,-4.5325 -21.5041,-5.8625 -43.57788,-9.08652 -65.54185,-12.64454 -10.02843,-1.07547 -8.8122,0.63052 3.14188,-9.10212 0.1486,-0.12099 0.22474,0.34281 0.40491,0.40809 1.14503,0.41488 2.32838,0.72004 3.51104,1.0108 2.03406,0.50009 4.08431,0.93294 6.1348,1.36068 2.87439,0.59961 5.75933,1.14748 8.63899,1.72122 23.54598,4.31701 47.23018,7.83988 70.73941,12.3715 9.1423,2.68013 7.18035,0.63209 -6.18471,10.88603 -0.36291,0.27844 -0.91501,0.0952 -1.37099,0.0589 -3.64729,-0.29042 -6.51739,-0.96415 -10.21883,-1.703 -2.63255,-0.52549 -5.26042,-1.07419 -7.89063,-1.61129 -6.14131,-1.18657 -12.29378,-2.31559 -18.4297,-3.5297 -8.05056,-1.59294 -16.07825,-3.65177 -24.28886,-4.22873 3.69679,-2.94501 7.27539,-6.04482 11.09036,-8.83505 0.21479,-0.15709 0.52008,0.11658 0.78405,0.15023 1.02569,0.13075 2.0533,0.24824 3.08297,0.3427 8.59592,0.78857 17.22026,1.24187 25.82586,1.90087 32.07535,2.12161 64.19111,4.88085 96.35952,4.42136 8.88769,-0.002 17.7787,-0.14583 26.64463,0.59744 1.24943,0.10474 4.56037,-0.5136 3.73658,0.4316 -7.90116,9.06567 -7.47294,8.67114 -13.76181,8.83893 -2.03886,0.0912 -3.72674,0.14154 -5.77816,0.34712 -1.00449,0.10067 -3.78018,1.03083 -3.00396,0.38536 3.22371,-2.68076 7.26288,-4.22602 10.62876,-6.72595 0.36149,-0.26849 -0.89441,-0.24009 -1.33971,-0.17327 -0.14628,0.0219 -0.12477,0.26823 -0.18715,0.40235 2.2759,2.95595 6.08309,4.28235 9.54158,5.29025 5.27914,0.95276 10.60844,0.80854 15.95529,0.74567 4.68389,-0.0142 9.36776,-0.0342 14.05168,-0.0289 6.24143,-0.005 12.48494,-0.0197 18.72352,0.19665 3.06496,0.15721 6.15639,0.26175 9.17269,0.88977 0.77035,0.16039 1.53466,0.36028 2.2788,0.61602 0.50575,0.17381 1.85231,0.30656 1.45849,0.66837 -3.65438,3.35741 -7.93967,5.95555 -11.9095,8.93333 -7.36312,-0.81017 -14.76988,-1.21002 -22.16784,-1.52252 -10.60435,-0.22557 -21.2063,-0.36472 -31.72264,1.28709 -12.13889,0.83779 -24.28432,0.0519 -36.41587,-0.6327 -18.59389,-1.29734 -37.25816,-2.88551 -55.53301,-6.67437 -14.99997,-3.84055 -29.83253,-8.40926 -44.19328,-14.22949 -15.00886,-5.35416 -30.18846,-10.39944 -44.44711,-17.60023 -3.85638,-1.92836 -8.81964,-4.32263 -12.5508,-6.52779 -7.64128,-4.51609 -14.45329,-10.25754 -20.83577,-16.38964 -1.57332,-1.59027 -3.19301,-3.13597 -4.71996,-4.77082 -7.38338,-7.90519 -13.569899,-16.83424 -19.645399,-25.75202 -5.602285,-8.38281 -11.396523,-16.62772 -17.041823,-24.98187 -5.178426,-7.64195 -10.062927,-15.53427 -12.654951,-24.4833 -2.465631,-8.20972 -4.543415,-16.52607 -6.971938,-24.7472 -1.506921,-5.89936 -2.680274,-11.84866 -3.082846,-17.93923 -0.484533,-6.66368 -1.398737,-13.46822 0.258532,-20.040085 0.401552,-1.042606 0.708233,-2.126902 1.204658,-3.12782 3.183149,-6.418031 9.713663,-11.421517 14.75643,-16.285955 2.688469,-2.216437 5.161851,-4.317118 7.966933,-6.38615 9.147387,-6.747122 19.346681,-11.938691 29.439754,-17.109816 6.75733,-3.353846 13.64598,-6.418133 20.96482,-8.354963 12.60215,-4.00369 25.07786,-8.513449 38.06748,-11.143269 3.07946,-0.554142 6.14242,-1.20947 9.23838,-1.662427 17.37963,-2.542737 35.00172,-2.16608 52.51047,-2.359474 22.76398,0.129674 45.53226,1.427912 68.29143,0.189498 13.48654,-0.654269 27.01774,-1.185857 40.48311,0.179732 0,0 -12.152,8.600121 -12.152,8.600121 z"
       inkscape:connector-curvature="0"
       transform="translate(0,602.36218)" />
  </g>
</svg>
